<svg width="230" height="80" viewBox="0 0 230 80" fill="none" xmlns="http://www.w3.org/2000/svg">
<g clip-path="url(#clip0_626_2)">
<path d="M75.5 14.5L76 10.5L76.5 9.5L83 9H91L91.5 9.5L93 11.5L94.5 12V13.5V24V31.5L91 32L87 32.5L86.5 36.5L84.5 35.5L82.5 36.5L82 32L78.5 32.5L76.5 31.5L76 30L75.5 26.5V19.5V14.5Z" fill="white"/>
<path fill-rule="evenodd" clip-rule="evenodd" d="M59.8297 1.13382C59.8297 1.20719 60.1873 1.74665 60.6239 2.33142L61.418 3.39522L60.8279 3.89368C60.3869 4.26698 60.1303 4.83449 59.8143 6.13565C59.2571 8.42726 59.2659 8.64304 59.9175 8.64304C60.3957 8.64304 60.4747 8.50063 60.7226 7.16925C61.0451 5.44299 61.4882 4.27561 61.8217 4.27561C61.9511 4.27561 62.7804 5.25526 63.6645 6.45285C65.1322 8.44021 65.334 8.6301 66.001 8.63657L66.7293 8.64304L65.6083 7.18651C64.8624 6.21837 64.6335 5.58181 64.9216 5.27684C65.6127 4.55397 66.2598 2.93776 66.2664 1.93006C66.2708 1.08419 66.2225 1.0022 65.7158 1.0022C65.2375 1.0022 65.1607 1.10146 65.1585 1.71212C65.1585 2.69609 64.7812 3.93252 64.3073 4.50866L63.9102 4.99201L62.8375 3.48801C61.3522 1.40787 60.9464 1.0022 60.3496 1.0022C60.0666 1.0022 59.8341 1.06262 59.8341 1.13598" fill="#34B495"/>
<path d="M27.42 7.75184C26.9176 7.03761 26.0817 6.62762 25.123 6.62762C24.7501 6.62762 24.5636 6.56145 24.5636 6.4291C24.5636 6.05364 24.3662 5.9738 24.1994 5.9738C23.9362 5.9738 23.7321 6.05795 23.6225 6.20469C23.5347 6.32337 23.515 6.47873 23.5676 6.64272C23.6049 6.75925 23.6225 6.81103 22.9467 7.1606C22.5058 7.38717 22.0385 7.65474 21.8827 7.76479C21.8586 7.78205 21.8038 7.8209 21.773 7.83816C21.727 7.77127 21.6546 7.54901 21.5953 7.36991L21.4154 6.81535L22.1372 6.45931C22.1635 6.4442 24.8313 5.12578 24.8313 4.73521C24.8313 4.60574 24.7325 4.41154 24.636 4.28854C24.3947 3.97997 24.1709 4.13102 23.629 4.49785C22.8744 5.0071 21.4462 5.74939 21.161 5.83354C21.1259 5.77744 21.0666 5.63071 21.0315 5.42571C20.9679 5.05241 20.9021 4.83447 20.7332 4.74816C20.5906 4.67263 20.4216 4.72011 20.211 4.81289C19.7942 5.00062 19.8249 5.14088 19.9938 5.60265C20.1752 6.10183 19.6297 6.57583 18.3572 7.02466C18.1269 7.1045 17.9755 7.18434 17.9316 7.32891C17.8856 7.47133 17.9645 7.6159 18.1028 7.80147C18.3353 8.1122 18.5284 8.03668 19.4585 7.67201C19.9938 7.46485 20.3756 7.33107 20.505 7.29007C20.5555 7.37423 20.6542 7.58785 20.7595 7.91152C20.8999 8.35316 20.8904 8.68402 20.731 8.90412C19.882 10.078 19.5178 11.5388 19.803 12.6285C19.9478 13.1852 20.2549 13.5888 20.6893 13.7959C20.8648 13.8801 21.0381 13.9232 21.2158 13.9232C21.6502 13.9232 22.1131 13.6686 22.723 13.1183C22.984 12.8853 23.1683 12.745 23.2736 12.6782C23.3087 12.745 23.368 12.7968 23.4469 12.8314C23.6488 12.9198 23.9296 12.8573 24.127 12.6803C24.2674 12.5552 24.3596 12.4732 24.364 12.3545C24.3706 12.2293 24.2828 12.1387 24.1117 11.9574L23.8769 11.7114L24.1402 10.9174C24.3025 10.4383 24.5044 9.44789 24.5921 8.71208L24.7347 7.52527L25.1932 7.57706C25.9962 7.66553 26.5644 8.12731 26.7509 8.83939C26.9637 9.6572 26.6434 10.8548 25.4477 11.6877L24.7281 12.1862L25.1559 12.5228C25.1889 12.5508 25.4828 12.7839 25.6364 12.7839C25.9962 12.7839 27.3717 11.3058 27.6218 10.7987C27.8105 10.4146 27.9026 9.94635 27.9026 9.47379C27.9026 8.83939 27.7359 8.19851 27.42 7.75184ZM21.308 12.7882C21.1215 12.7882 20.9723 12.6911 20.867 12.5012C20.5686 11.9661 20.6586 10.7555 21.3211 9.73488C21.3387 9.70899 21.365 9.67231 21.3847 9.64425C21.4637 9.74136 21.6217 10.0348 21.7994 10.3671C22.0495 10.8375 22.3698 11.3835 22.4685 11.4849C22.5146 11.528 22.5672 11.6532 22.5672 11.7481C22.5672 11.9747 21.6458 12.7882 21.308 12.7882ZM23.131 10.7318C23.131 10.7318 23.1332 10.7275 23.1376 10.7253L23.2495 10.7879L23.131 10.7318ZM23.1574 10.6822C23.0959 10.6196 22.984 10.4578 22.7734 10.0866C22.2864 9.22636 22.3127 8.62217 22.8524 8.27404C23.199 8.04747 23.4755 7.8921 23.5917 7.83168C23.6115 7.91368 23.6334 8.06904 23.6334 8.29562C23.629 8.88902 23.3482 10.2808 23.1574 10.6822Z" fill="#34B495"/>
<path fill-rule="evenodd" clip-rule="evenodd" d="M52.1379 48.9943C51.618 48.7958 51.2823 49.0116 50.5869 49.9956C49.5843 51.4176 48.2789 51.7002 46.7082 50.8328C46.2124 50.5566 45.5959 49.9999 45.3392 49.592C44.8939 48.8843 44.477 48.675 44.1458 49.0008C44.0602 49.0828 43.9922 49.4194 43.9922 49.7431C43.9922 50.4142 45.2449 51.7261 46.4471 52.3238C47.9499 53.0661 50.0099 52.613 51.4995 51.2082C52.524 50.2415 52.8114 49.2468 52.1379 48.9943Z" fill="#0E2B44"/>
<path fill-rule="evenodd" clip-rule="evenodd" d="M52.1379 48.9943C51.618 48.7958 51.2823 49.0116 50.5869 49.9956C49.5843 51.4176 48.2789 51.7002 46.7082 50.8328C46.2124 50.5566 45.5959 49.9999 45.3392 49.592C44.8939 48.8843 44.477 48.675 44.1458 49.0008C44.0602 49.0828 43.9922 49.4194 43.9922 49.7431C43.9922 50.4142 45.2449 51.7261 46.4471 52.3238C47.9499 53.0661 50.0099 52.613 51.4995 51.2082C52.524 50.2415 52.8114 49.2468 52.1379 48.9943Z" fill="#0E2B44"/>
<path fill-rule="evenodd" clip-rule="evenodd" d="M52.1379 48.9943C51.618 48.7958 51.2823 49.0116 50.5869 49.9956C49.5843 51.4176 48.2789 51.7002 46.7082 50.8328C46.2124 50.5566 45.5959 49.9999 45.3392 49.592C44.8939 48.8843 44.477 48.675 44.1458 49.0008C44.0602 49.0828 43.9922 49.4194 43.9922 49.7431C43.9922 50.4142 45.2449 51.7261 46.4471 52.3238C47.9499 53.0661 50.0099 52.613 51.4995 51.2082C52.524 50.2415 52.8114 49.2468 52.1379 48.9943Z" fill="#0E2B44"/>
<path fill-rule="evenodd" clip-rule="evenodd" d="M52.1379 48.9943C51.618 48.7958 51.2823 49.0116 50.5869 49.9956C49.5843 51.4176 48.2789 51.7002 46.7082 50.8328C46.2124 50.5566 45.5959 49.9999 45.3392 49.592C44.8939 48.8843 44.477 48.675 44.1458 49.0008C44.0602 49.0828 43.9922 49.4194 43.9922 49.7431C43.9922 50.4142 45.2449 51.7261 46.4471 52.3238C47.9499 53.0661 50.0099 52.613 51.4995 51.2082C52.524 50.2415 52.8114 49.2468 52.1379 48.9943Z" fill="#0E2B44"/>
<path fill-rule="evenodd" clip-rule="evenodd" d="M52.1379 48.9943C51.618 48.7958 51.2823 49.0116 50.5869 49.9956C49.5843 51.4176 48.2789 51.7002 46.7082 50.8328C46.2124 50.5566 45.5959 49.9999 45.3392 49.592C44.8939 48.8843 44.477 48.675 44.1458 49.0008C44.0602 49.0828 43.9922 49.4194 43.9922 49.7431C43.9922 50.4142 45.2449 51.7261 46.4471 52.3238C47.9499 53.0661 50.0099 52.613 51.4995 51.2082C52.524 50.2415 52.8114 49.2468 52.1379 48.9943Z" fill="#0E2B44"/>
<path fill-rule="evenodd" clip-rule="evenodd" d="M52.1379 48.9943C51.618 48.7958 51.2823 49.0116 50.5869 49.9956C49.5843 51.4176 48.2789 51.7002 46.7082 50.8328C46.2124 50.5566 45.5959 49.9999 45.3392 49.592C44.8939 48.8843 44.477 48.675 44.1458 49.0008C44.0602 49.0828 43.9922 49.4194 43.9922 49.7431C43.9922 50.4142 45.2449 51.7261 46.4471 52.3238C47.9499 53.0661 50.0099 52.613 51.4995 51.2082C52.524 50.2415 52.8114 49.2468 52.1379 48.9943Z" fill="#0E2B44"/>
<path fill-rule="evenodd" clip-rule="evenodd" d="M52.1379 48.9943C51.618 48.7958 51.2823 49.0116 50.5869 49.9956C49.5843 51.4176 48.2789 51.7002 46.7082 50.8328C46.2124 50.5566 45.5959 49.9999 45.3392 49.592C44.8939 48.8843 44.477 48.675 44.1458 49.0008C44.0602 49.0828 43.9922 49.4194 43.9922 49.7431C43.9922 50.4142 45.2449 51.7261 46.4471 52.3238C47.9499 53.0661 50.0099 52.613 51.4995 51.2082C52.524 50.2415 52.8114 49.2468 52.1379 48.9943Z" fill="#0E2B44"/>
<path fill-rule="evenodd" clip-rule="evenodd" d="M52.1379 48.9943C51.618 48.7958 51.2823 49.0116 50.5869 49.9956C49.5843 51.4176 48.2789 51.7002 46.7082 50.8328C46.2124 50.5566 45.5959 49.9999 45.3392 49.592C44.8939 48.8843 44.477 48.675 44.1458 49.0008C44.0602 49.0828 43.9922 49.4194 43.9922 49.7431C43.9922 50.4142 45.2449 51.7261 46.4471 52.3238C47.9499 53.0661 50.0099 52.613 51.4995 51.2082C52.524 50.2415 52.8114 49.2468 52.1379 48.9943Z" fill="#0E2B44"/>
<path fill-rule="evenodd" clip-rule="evenodd" d="M76.6893 38.2332C76.1343 37.1737 74.9715 35.9934 74.0194 35.5144C73.4775 35.2446 73.1375 34.9123 73.1375 34.6577C73.1375 34.429 72.8764 33.8658 72.5605 33.4062C72.1788 32.8538 71.9067 32.0209 71.751 30.9484C71.3407 28.0764 70.2219 25.4287 68.0434 22.1682C65.0576 17.6929 61.1108 14.6655 55.7601 12.745C51.8923 11.3576 46.7697 10.9843 42.9612 11.8172C36.678 13.1917 31.6673 16.2688 28.0628 20.9685C25.7418 23.9894 23.888 28.3223 23.6335 31.3088C23.5326 32.4891 23.4031 32.8969 23.0784 33.0674C22.8437 33.1926 22.6506 33.4342 22.6506 33.6047C22.6506 33.7752 22.3128 34.0298 21.8938 34.1657C20.6367 34.5714 18.5218 37.0313 18.5218 38.0843C18.5218 38.257 18.2476 38.8978 17.9119 39.5063C17.4161 40.404 17.3042 40.8981 17.3174 42.1281C17.335 43.8047 18.1906 46.7091 19.1493 48.3448C19.7438 49.3546 21.3848 50.8802 21.8784 50.8802C22.0386 50.8802 22.3018 51.1564 22.4685 51.493C23.1772 52.9431 25.3249 53.5559 27.1217 52.8179C28.0014 52.4576 27.9663 52.4317 28.9009 54.0414C29.6687 55.3663 31.8626 57.4119 33.475 58.3074L34.7541 59.0152L34.3855 60.0833C34.1815 60.6702 34.0081 61.173 34.0016 61.2011C33.995 61.227 33.3719 61.0026 32.6216 60.6983C28.5872 59.067 25.4566 61.4061 25.5706 65.9634C25.6123 67.599 26.5315 69.8065 27.7272 71.1486L28.4402 71.947L27.2116 72.5447C25.7791 73.2396 24.9454 74.3012 24.9454 75.4319C24.9454 76.0361 25.1428 76.4094 25.8163 77.0697C26.9966 78.2328 28.0365 78.3644 32.0381 77.8595C33.7537 77.6437 35.5702 77.4171 36.0769 77.3567C36.8974 77.2596 37.0356 77.3157 37.3779 77.8897C38.1479 79.18 39.0759 79.8295 40.3198 79.9461C41.2237 80.0324 41.5835 79.9655 41.9345 79.6548C42.3711 79.2664 42.404 79.2664 42.8405 79.6548C43.7532 80.4683 45.3327 79.7929 46.4033 78.1378C46.5701 77.881 47.1887 77.7386 48.6257 77.6307L50.6177 77.4775L50.9709 78.1508C51.1662 78.5219 51.7058 79.057 52.1666 79.3354C52.9125 79.7907 53.1165 79.8188 53.9523 79.6008C54.7202 79.4001 54.9264 79.4131 55.0756 79.6742C55.1919 79.8749 55.6306 79.9979 56.2383 79.9979C57.3747 79.9979 58.9324 79.0139 59.4962 77.9415C59.6848 77.5833 59.8691 77.2898 59.902 77.2898C59.9371 77.2898 61.5101 77.5423 63.3968 77.853C67.3348 78.4982 68.8507 78.5543 69.9827 78.0882C71.8343 77.3286 72.5605 75.3542 71.4855 74.0121C71.2091 73.6668 70.2328 73.041 69.3158 72.6246L67.6463 71.8672L68.5655 70.579C71.9023 65.8943 70.3184 60.1286 65.7003 60.1373C64.5508 60.1394 62.8286 60.5451 61.9094 61.0284C61.4991 61.2464 61.4026 61.1773 61.0955 60.4523C60.9024 59.9992 60.7445 59.546 60.7445 59.4468C60.7445 59.3475 61.339 58.9332 62.0652 58.5254C63.625 57.6493 65.3559 56.1129 66.2949 54.7708L66.9706 53.8062L67.6397 54.2745C69.0196 55.239 72.2117 54.7557 72.9071 53.4761C73.0629 53.1934 73.6004 52.7769 74.0984 52.5568C75.4805 51.9419 76.9723 50.1724 77.3913 48.6555C77.5844 47.9564 77.852 47.0242 77.9859 46.584C78.4531 45.039 77.6941 40.1429 76.6893 38.2332ZM29.7521 23.1436C29.7521 23.1436 29.7543 23.1414 29.7565 23.1371C29.9057 22.8523 34.7979 13.7376 48.5774 13.7916C50.1263 13.8908 52.013 14.1735 54.0598 14.8662C59.4567 16.6938 62.7321 20.2607 64.2239 22.1467C64.2217 22.1467 64.2217 22.1467 64.2195 22.1467C63.9562 22.0323 63.6908 21.9179 63.4297 21.8036C64.3994 22.5459 65.244 23.3162 65.979 24.1297C65.3077 23.683 64.6385 23.2342 63.9694 22.7875C63.9694 22.7875 58 17.6951 50.519 17.2074C50.519 17.2074 42.3601 16.3357 35.3486 20.4377C35.3486 20.4377 29.6951 24.1556 28.7034 26.1753L27.9049 26.5788L27.8149 26.4494L27.5232 26.0243C27.5232 26.0243 28.2427 24.7835 29.7521 23.1457V23.1436ZM35.7808 75.9498C35.7128 76.0037 35.421 76.0771 34.9844 76.1591C34.2999 75.8246 33.3807 75.2506 32.6414 74.34C33.0867 74.3875 33.429 74.3293 33.5409 74.1502C33.8283 73.6884 33.3237 73.2201 32.0118 72.7303C29.5393 71.8025 27.7733 69.6856 27.0822 66.8287C27.0646 66.7531 27.0471 66.6776 27.0295 66.6021C26.8957 65.9936 26.8496 65.4261 26.8782 64.9061C27.0317 62.0124 29.5086 60.5926 32.5207 62.1095L33.7537 62.731L33.7778 63.7387C32.626 62.8 30.9785 62.6878 30.9785 62.6878C28.7517 62.4634 27.7513 64.3515 27.3104 65.8555C28.1396 67.476 29.6534 69.4483 32.332 70.4754C32.332 70.4754 33.2513 70.6674 33.4268 70.32C33.4268 70.32 32.999 66.0389 33.7778 63.771L33.8151 65.4023C33.8875 68.5075 34.3394 71.1292 35.274 73.8696C35.6426 74.9421 35.8685 75.8786 35.7808 75.9498ZM54.4284 62.2519C53.0836 63.2208 51.5676 63.5294 50.7515 63.6286H50.7428C50.5541 63.6092 50.4356 63.6092 50.4356 63.6092H45.2933C44.9883 63.6286 44.7141 63.6718 44.4684 63.7344C40.8683 62.0923 37.1102 61.9434 35.5263 61.9649C35.6601 60.6228 35.8839 59.6841 36.1822 59.6841C36.2678 59.6841 37.0554 59.9301 37.9307 60.2279C43.2376 62.0469 50.4663 62.1872 56.7297 60.5904C59.5708 59.8654 59.6168 59.7899 60.117 61.9952C57.9649 61.0651 54.4284 62.2519 54.4284 62.2519ZM60.9419 73.8696C61.1328 73.0756 61.2995 72.2275 61.4333 71.3644C63.0173 70.9631 66.3936 69.6619 68.5677 65.6138C68.118 63.9199 67.3326 63.2294 67.3326 63.2294C65.5994 61.6434 62.9471 62.9618 61.7514 63.702L61.69 62.6447L62.8703 62.0664C64.3665 61.3349 66.4572 61.2701 67.5454 61.9239C68.4075 62.4397 68.888 63.5121 68.9604 64.8219C68.8354 65.0959 68.7037 65.3614 68.5677 65.6138C68.6598 65.9612 68.7388 66.354 68.7915 66.7898C68.6445 67.4739 68.4032 68.1773 68.0697 68.8657C67.2295 70.5962 65.9197 71.9751 64.2305 72.9051C63.4166 73.3561 62.9493 73.7876 62.8615 74.1545C62.3109 74.4242 61.565 74.763 60.6655 75.1018C60.7357 74.763 60.83 74.3314 60.9419 73.8696ZM66.7688 38.4576C66.738 38.4555 66.6766 38.4058 66.5954 38.3174C66.4177 33.7471 63.7083 30.0378 63.7083 30.0378C60.6194 26.9608 57.3155 29.3063 57.3155 29.3063C56.5542 30.8643 55.2643 30.6657 55.2643 30.6657C47.2348 27.5132 41.9696 30.1263 41.9696 30.1263C40.3527 31.3584 38.9465 30.5125 38.9465 30.5125C37.9044 29.1272 35.8707 28.6654 35.8707 28.6654C31.6366 28.1152 29.4713 32.8322 28.8417 34.5023C28.9755 32.4244 29.1225 31.7921 29.5459 30.8233C30.1338 29.4789 31.924 27.7074 33.1174 27.2909C34.289 26.8788 36.0769 26.8744 37.4481 27.2801C38.0536 27.4614 38.9421 27.9167 39.4225 28.2965C39.903 28.6784 40.3922 28.987 40.5085 28.987C40.6248 28.987 41.2259 28.7604 41.8423 28.482C41.8423 28.482 41.8577 28.4756 42.5422 28.2145C42.6826 28.1605 42.8844 28.0979 43.1367 28.031C43.2091 28.0116 43.2837 27.9922 43.3649 27.9728C43.4855 27.9447 43.6172 27.9145 43.7554 27.8865C43.8936 27.8563 44.0406 27.8282 44.1963 27.8023C45.0892 27.6448 46.252 27.5153 47.5814 27.5196C47.5814 27.5196 47.6692 27.5196 47.8271 27.524C47.8688 27.5261 47.9149 27.5261 47.9654 27.5283C48.075 27.5304 48.2045 27.5369 48.3493 27.5434C48.4699 27.5498 48.5994 27.5563 48.742 27.565C48.7661 27.5671 48.7924 27.5693 48.8188 27.5714C48.9131 27.5757 49.014 27.5844 49.1171 27.593C49.1303 27.593 49.1413 27.593 49.1544 27.593C49.3277 27.606 49.5098 27.6232 49.6985 27.6426C50.4619 27.7203 51.3417 27.8455 52.1885 28.0483C52.3399 28.0828 52.4891 28.1217 52.6382 28.1627C52.7128 28.1842 52.7874 28.2058 52.8598 28.2274C53.0594 28.2878 53.2635 28.331 53.4631 28.3957C54.6522 28.7798 54.8255 28.7884 55.1853 28.4799C56.0321 27.7462 57.6841 27.1161 59.0355 27.0104C63.0699 26.6889 66.1172 29.4487 66.7073 33.9499C66.9728 35.9891 67.0079 38.4663 66.7688 38.4555V38.4576ZM71.2727 53.1675C70.5992 53.6767 69.4387 53.7048 68.5129 53.2322C67.8701 52.9086 67.8262 52.8136 68.0039 52.162C68.0807 51.8771 68.1575 49.6416 68.1991 46.6638C68.5063 47.4622 69.1162 48.4246 70.2767 48.4591C70.2767 48.4591 71.4285 48.4225 72.148 47.3047C72.0625 52.0433 71.8892 52.7014 71.2727 53.1675ZM70.9612 36.3257C70.0902 35.1562 68.9823 35.2252 68.2759 35.441C68.2825 34.7354 68.2869 34.3125 68.2913 34.2693C68.3549 33.663 69.9147 33.3371 70.9305 33.7191C71.2508 33.8356 71.6786 34.2607 71.8892 34.6577C72.0844 35.0289 72.1788 35.5122 72.2117 37.1737C71.4811 36.9752 70.9612 36.3257 70.9612 36.3257ZM76.0926 49.1302C75.7898 49.8639 74.2015 51.3334 73.7101 51.3334C73.4775 51.3334 73.3985 50.7464 73.3744 47.4989C74.0106 47.6607 75.3511 47.6845 76.5708 45.9259C76.5006 47.3522 76.3295 48.5584 76.0926 49.1302Z" fill="#0E2B44"/>
<path fill-rule="evenodd" clip-rule="evenodd" d="M22.4223 45.3865C20.9239 46.4136 19.6866 44.2558 19.114 42.9762C19.1096 42.6957 19.1074 42.3957 19.1074 42.0785C19.1074 39.61 19.1776 39.1072 19.6449 38.0736C20.2767 36.6883 21.909 35.0829 22.2073 35.5576C22.3148 35.7237 22.4048 38.9346 22.4179 42.6935C22.4201 43.7249 22.4245 44.6183 22.4223 45.3865Z" fill="white"/>
<path fill-rule="evenodd" clip-rule="evenodd" d="M70.3689 29.835C69.3356 25.8495 67.2602 22.3344 64.0967 19.2055C60.9485 16.0918 57.8618 14.3569 53.2877 13.1291C51.4229 12.6307 46.2937 12.4127 44.1086 12.7429C40.4361 13.2974 36.3008 15.0517 33.1109 17.4081C30.4937 19.3415 27.4179 22.9472 26.8958 24.6993C26.8058 25.0101 26.6018 25.4157 26.446 25.6013C25.9722 26.171 24.7173 30.4046 24.7173 31.4361C24.7173 32.3035 24.7699 32.3985 25.2197 32.3316C25.6321 32.2733 25.7879 31.982 26.1235 30.6377C26.3451 29.7443 26.7905 28.5273 27.1152 27.9318C27.4355 27.334 27.7009 26.7622 27.7009 26.6587C27.7009 26.6284 27.7426 26.5551 27.815 26.4472L27.5232 26.0221C27.5232 26.0221 28.2428 24.7813 29.7521 23.1436C29.7521 23.1436 29.7543 23.1414 29.7565 23.1371C29.9057 22.8523 34.798 13.7376 48.5775 13.7916C50.1263 13.8908 52.013 14.1735 54.0599 14.8662C59.4567 16.6938 62.7321 20.2607 64.224 22.1466C64.2218 22.1466 64.2218 22.1466 64.2196 22.1466C63.9563 22.0323 63.6909 21.9179 63.4298 21.8036C64.3995 22.5458 65.2441 23.3162 65.979 24.1297H65.9812C67.6902 26.0243 68.7981 28.1497 69.4585 30.683C69.7897 31.9604 69.963 32.2755 70.3579 32.3337C70.9722 32.4244 70.9722 32.1654 70.3689 29.8371V29.835Z" fill="white"/>
<path fill-rule="evenodd" clip-rule="evenodd" d="M27.3038 46.1049L27.2994 46.2948C25.6738 47.8096 24.1864 46.3509 23.5501 45.5374C23.5392 44.7088 23.526 43.7529 23.5128 42.6438L23.4536 37.6096C23.9889 36.1401 25.0332 35.1928 26.095 35.1648C26.3495 35.1583 26.7795 35.1993 27.2994 35.523C27.3235 36.0085 27.3433 36.6407 27.3608 37.465C27.4025 39.3208 27.374 43.207 27.3038 46.1049Z" fill="#7CBCF2"/>
<path fill-rule="evenodd" clip-rule="evenodd" d="M33.778 63.7711C32.9992 66.0389 33.427 70.32 33.427 70.32C33.2515 70.6675 32.3322 70.4754 32.3322 70.4754C29.6536 69.4483 28.1398 67.476 27.3105 65.8555C27.7515 64.3515 28.7519 62.4634 30.9786 62.6878C30.9786 62.6878 32.6262 62.8 33.778 63.7387V63.7711Z" fill="#B2ECDD"/>
<path fill-rule="evenodd" clip-rule="evenodd" d="M34.9845 76.1591C33.8766 76.3662 31.8341 76.6273 30.1668 76.7503C27.7733 76.9272 27.5781 76.6726 29.1335 75.3995C29.9123 74.7651 30.0527 74.5472 29.8246 74.3227C29.4297 73.9343 28.1266 74.5623 27.4421 75.4729C26.8322 76.2842 26.4154 76.3511 26.196 75.6671C26.0709 75.2765 26.2289 74.996 26.9594 74.3271C28.2582 73.1338 29.2871 72.9827 30.7943 73.7574C31.4217 74.0811 32.1084 74.2839 32.6415 74.34C33.3808 75.2506 34.3 75.8246 34.9845 76.1591Z" fill="#B2ECDD"/>
<path fill-rule="evenodd" clip-rule="evenodd" d="M43.3033 71.2522C44.3146 74.2451 45.1395 76.8863 45.1395 77.1193C45.1395 77.8012 44.7008 78.4183 44.2203 78.4183C43.9132 78.4183 43.5885 78.0601 43.1892 77.2898C42.6912 76.3188 42.5157 76.1612 41.9321 76.1612C41.1884 76.1612 40.5939 76.8884 40.9515 77.3588C41.7259 78.3838 40.4403 79.0419 39.3346 78.1853C38.139 77.2617 36.8468 74.2796 35.8135 70.0675C35.344 68.1492 35.2848 64.3946 35.5261 61.9649C37.1101 61.9434 40.8681 62.0922 44.4682 63.7343C43.3384 64.017 42.7987 64.6795 42.5442 65.1866C42.112 64.8284 41.4692 64.9794 41.4692 65.4779C41.4692 65.6613 42.2941 68.2571 43.3033 71.2522Z" fill="#B2ECDD"/>
<path fill-rule="evenodd" clip-rule="evenodd" d="M60.457 67.3228C60.1937 74.9442 57.9516 80.054 55.6328 78.3255C55.3081 78.0839 55.2554 77.8314 55.3717 77.1107C55.4967 76.3403 55.4485 76.1656 55.0448 75.9563C54.6565 75.7491 54.492 75.7901 54.1234 76.1785C53.8755 76.4374 53.61 76.9985 53.5267 77.4214C53.4214 77.9781 53.259 78.1918 52.9475 78.1918C51.7913 78.1918 51.471 76.1246 52.2433 73.6452C52.8466 71.7097 54.3186 66.1813 54.3186 65.8512C54.3208 65.4282 53.6495 64.8823 53.2941 65.0183C53.2349 65.042 53.1669 65.1261 53.0967 65.2535C52.7698 63.9847 51.3833 63.6955 50.7515 63.6286C51.5676 63.5294 53.0835 63.2208 54.4283 62.2519C54.4283 62.2519 57.9648 61.0651 60.117 61.9952C60.1389 62.1009 60.1652 62.2131 60.1916 62.3318C60.4877 63.6459 60.547 64.7421 60.457 67.3228Z" fill="#B2ECDD"/>
<path fill-rule="evenodd" clip-rule="evenodd" d="M68.5675 65.6139C66.3934 69.6619 63.0171 70.9631 61.4331 71.3645C61.7819 69.1441 61.9311 66.8072 61.8236 64.945L61.7512 63.702C62.9469 62.9619 65.5992 61.6435 67.3323 63.2295C67.3323 63.2295 68.1177 63.92 68.5675 65.6139Z" fill="#B2ECDD"/>
<path fill-rule="evenodd" clip-rule="evenodd" d="M68.7916 66.7898C68.739 66.354 68.66 65.9612 68.5679 65.6138C68.7039 65.3614 68.8355 65.0959 68.9606 64.8219C68.9957 65.4347 68.9386 66.1037 68.7916 66.7898Z" fill="#B2ECDD"/>
<path fill-rule="evenodd" clip-rule="evenodd" d="M70.5005 76.1591C69.9981 76.705 69.6954 76.7417 69.6954 76.2519C69.6954 76.0534 69.3356 75.5376 68.9012 75.1061C68.3111 74.5256 67.9403 74.3422 67.4818 74.3962C66.6174 74.4976 66.5582 74.9421 67.3524 75.3456C68.0434 75.6973 68.9122 76.7784 68.684 77.005C68.4339 77.2509 60.8981 76.1612 60.5624 75.8311C60.5405 75.8074 60.5822 75.5268 60.6655 75.1018C61.565 74.763 62.3109 74.4242 62.8616 74.1545C62.8155 74.3336 62.8638 74.4976 63.0064 74.6378C63.1753 74.804 63.7742 74.6206 64.9962 74.0358C66.3739 73.3755 66.8982 73.2288 67.473 73.3474C68.5941 73.5827 70.2965 74.5623 70.6234 75.1643C70.8757 75.6283 70.8581 75.7707 70.5005 76.1591Z" fill="#B2ECDD"/>
<path fill-rule="evenodd" clip-rule="evenodd" d="M66.8278 50.5738C65.6717 55.4764 61.9838 58.1435 54.0641 59.8071C46.5195 61.3931 36.2501 59.3885 31.8537 55.4742C30.8335 54.5679 30.2346 53.7803 29.6006 52.518C28.7976 50.9212 28.7274 50.6256 28.6572 48.485C28.6133 47.2141 28.6748 46.0035 28.7954 45.7942C28.9161 45.5806 28.9995 45.5331 29.1684 45.723C29.2561 45.8201 29.368 45.9841 29.5172 46.2215C30.7238 48.1441 33.216 49.6783 35.5547 49.9416C39.5299 50.3882 42.689 48.6836 44.3388 45.1965C44.6503 44.5362 44.9092 43.7141 44.9092 43.3688C44.9092 43.1574 44.9289 42.9589 45.0474 42.8078C45.0474 42.8078 45.111 42.728 45.2076 42.6697C45.6902 42.3719 46.4624 42.4043 47.0087 42.3827C47.9038 42.3482 48.8054 42.3762 49.6983 42.4302C49.9221 42.4431 50.1481 42.4604 50.3565 42.5402C50.6351 42.6481 50.8128 42.8618 50.8699 43.1487C51.0344 43.9666 51.3503 44.7563 51.7386 45.4965C52.7587 47.445 54.6696 49.1194 56.4839 49.6459C57.9362 50.0732 60.876 50.0732 62.0957 49.6481C63.4932 49.1626 65.0596 48.0254 65.856 46.9141C66.2399 46.3768 66.6282 45.9798 66.7181 46.0316C66.9112 46.1481 67.0253 46.912 67.0472 47.8312C67.0714 48.7548 67.0012 49.8358 66.8278 50.5738Z" fill="#B2ECDD"/>
<path fill-rule="evenodd" clip-rule="evenodd" d="M66.5954 38.3174C66.4309 38.1404 66.1874 37.8124 65.9439 37.4391C65.2243 36.3214 64.384 35.6179 62.6224 34.6728L61.4487 34.0406L62.1288 33.6457C63.32 32.9552 63.3178 31.4835 62.1288 30.3119C61.6549 29.8479 61.2447 29.6645 60.6699 29.6645C59.0881 29.6645 58.0241 31.941 59.1386 32.9379C59.3909 33.1623 59.5971 33.417 59.5971 33.5054C59.5971 33.5939 59.0245 33.7234 58.3225 33.7924C56.6222 33.9672 54.4218 35.0094 53.2262 36.2092C52.1929 37.2492 51.2473 38.9733 50.9994 40.2724L50.8481 41.0621H44.951L44.8216 40.2529C44.2731 36.8522 41.024 34.1571 37.6192 33.8032C35.9277 33.6263 34.12 33.9845 32.6589 34.8562C31.3931 35.6093 29.8991 36.7616 29.2694 38.1189C28.7692 39.1999 28.6223 38.6907 28.7451 36.2674C28.778 35.5791 28.8109 34.9986 28.8416 34.5023C29.4713 32.8322 31.6366 28.1152 35.8707 28.6654C35.8707 28.6654 37.9044 29.1272 38.9465 30.5125C38.9465 30.5125 40.3527 31.3584 41.9696 30.1263C41.9696 30.1263 47.2348 27.5132 55.2642 30.6657C55.2642 30.6657 56.5542 30.8643 57.3155 29.3063C57.3155 29.3063 60.6194 26.9608 63.7083 30.0378C63.7083 30.0378 66.4177 33.7471 66.5954 38.3174Z" fill="#B2ECDE"/>
<path fill-rule="evenodd" clip-rule="evenodd" d="M66.8278 50.5739C65.6717 55.4764 61.9838 58.1435 54.0641 59.8072C46.5195 61.3932 36.2501 59.3886 31.8537 55.4743C30.8335 54.568 30.2346 53.7804 29.6006 52.5181C28.7976 50.9213 28.7274 50.6257 28.6572 48.4851C28.6133 47.2141 28.6748 46.0036 28.7954 45.7943C28.9161 45.5807 28.9995 45.5332 29.1684 45.7231C29.7234 47.8939 30.8269 51.1824 32.7158 53.0726C32.7158 53.0726 38.569 58.8405 50.611 58.2255C50.611 58.2255 63.8991 57.2372 67.0472 47.8313C67.0714 48.7548 67.0012 49.8359 66.8278 50.5739Z" fill="#7CB4BF"/>
<path fill-rule="evenodd" clip-rule="evenodd" d="M64.2128 46.5667C61.5583 49.2489 57.1618 49.3028 54.4239 46.6854C52.9189 45.2461 52.3727 43.9471 52.388 41.8519C52.4034 39.8235 52.7763 38.8762 54.119 37.4456C56.1548 35.2748 58.4189 34.7354 61.4968 35.6848C62.8022 36.0862 64.5836 37.6959 65.347 39.161C65.6915 39.8213 65.9021 40.7104 65.9745 41.7979C66.1149 43.891 65.6695 45.0951 64.215 46.5645L64.2128 46.5667Z" fill="#B2ECDD"/>
<path fill-rule="evenodd" clip-rule="evenodd" d="M43.4153 42.0785C43.4175 43.8091 43.3495 44.1198 42.7067 45.2375C39.3984 51.0097 30.2018 48.8972 29.8047 42.2727C29.5042 37.2407 35.0151 33.7277 39.7889 35.9093C41.1469 36.5329 42.2372 37.6463 42.9327 39.1331C43.2991 39.9185 43.4153 40.6112 43.4153 42.0785Z" fill="#B2ECDD"/>
<path fill-rule="evenodd" clip-rule="evenodd" d="M65.4984 28.1562C62.9448 25.4287 58.4035 24.9022 55.4309 26.9824C54.8298 27.4053 54.6257 27.4355 53.8974 27.2284C53.4345 27.0967 52.0524 26.8637 50.8216 26.7083C48.3623 26.3998 44.1151 26.6695 42.1143 27.2607C41.0722 27.5693 41.0393 27.5628 39.1899 26.6587C37.4897 25.8279 37.1562 25.7438 35.5459 25.7438C33.6833 25.7438 31.8997 26.335 30.5045 27.4139C29.3681 28.2943 28.1987 30.0702 27.9048 31.3671C27.5494 32.9272 27.1106 32.8581 27.1567 31.2527C27.2466 28.0483 30.035 25.2216 32.3583 23.3076C35.0633 21.0786 38.2619 19.43 41.6689 18.5237C42.1121 18.405 42.5574 18.3015 43.0072 18.2087C49.9441 16.7845 57.3483 18.4978 62.8504 22.9041C64.6582 24.352 66.3014 26.0157 67.3171 28.0872C68.482 30.4694 68.9756 32.3359 68.5127 32.6229C68.0082 32.9358 67.9423 32.8797 67.633 31.8677C67.1877 30.3982 66.5361 29.2697 65.4918 28.1562H65.4984Z" fill="#B2ECDD"/>
<path fill-rule="evenodd" clip-rule="evenodd" d="M72.2008 42.961C72.1854 44.7002 72.1701 46.1287 72.1481 47.3047C71.4286 48.4225 70.2768 48.4592 70.2768 48.4592C69.1162 48.4246 68.5064 47.4622 68.1992 46.6639C68.2146 45.5202 68.2277 44.2708 68.2321 42.9805C68.2475 39.802 68.2628 36.9623 68.276 35.441C68.9824 35.2252 70.0903 35.1562 70.9613 36.3257C70.9613 36.3257 71.4812 36.9752 72.2118 37.1738C72.2337 38.3649 72.2249 40.1623 72.2008 42.961Z" fill="#78C1F4"/>
<path fill-rule="evenodd" clip-rule="evenodd" d="M76.5709 45.9259C75.3512 47.6845 74.0107 47.6608 73.3745 47.4989C73.3679 46.5668 73.3657 45.4166 73.3657 43.9968C73.3657 39.6639 73.4535 36.6624 73.5785 36.6624C73.697 36.6624 74.1029 36.9213 74.4868 37.2363C74.8663 37.5535 75.463 38.3843 75.8119 39.0834C76.3428 40.1472 76.4656 40.7514 76.5687 42.7431C76.6258 43.8155 76.6214 44.9247 76.5709 45.9259Z" fill="white"/>
<path fill-rule="evenodd" clip-rule="evenodd" d="M72.1479 47.3047C72.0624 52.0433 71.889 52.7014 71.2726 53.1675C70.5991 53.6767 69.4385 53.7048 68.5127 53.2322C67.8699 52.9086 67.826 52.8136 68.0038 52.1619C68.0805 51.8771 68.1573 49.6416 68.199 46.6638C68.5061 47.4622 69.116 48.4246 70.2766 48.4591C70.2766 48.4591 71.4283 48.4224 72.1479 47.3047Z" fill="#418BBE"/>
<path fill-rule="evenodd" clip-rule="evenodd" d="M72.2116 37.1737C71.4811 36.9752 70.9611 36.3257 70.9611 36.3257C70.0902 35.1561 68.9823 35.2252 68.2759 35.441C68.2825 34.7353 68.2868 34.3124 68.2912 34.2693C68.3549 33.6629 69.9147 33.3371 70.9304 33.719C71.2507 33.8355 71.6785 34.2606 71.8891 34.6577C72.0844 35.0288 72.1787 35.5122 72.2116 37.1737Z" fill="#FEFCEA"/>
<path fill-rule="evenodd" clip-rule="evenodd" d="M76.5709 45.9259C76.5007 47.3522 76.3296 48.5584 76.0927 49.1303C75.7899 49.8639 74.2016 51.3334 73.7102 51.3334C73.4776 51.3334 73.3986 50.7465 73.3745 47.499C74.0107 47.6608 75.3512 47.6845 76.5709 45.9259Z" fill="#BFD5E8"/>
<path fill-rule="evenodd" clip-rule="evenodd" d="M22.4226 45.3864C22.416 50.3882 22.2449 50.0602 20.7333 48.362C19.5201 46.9983 19.1647 45.9172 19.1143 42.9761C19.6868 44.2557 20.9242 46.4135 22.4226 45.3864Z" fill="#BFD5E8"/>
<path fill-rule="evenodd" clip-rule="evenodd" d="M27.2994 35.523C26.7794 35.1993 26.3494 35.1583 26.0949 35.1648C25.0331 35.1928 23.9889 36.1401 23.4536 37.6096L23.4185 34.7461L24.0503 34.1225C24.7567 33.4299 26.141 33.268 26.8759 33.7967C27.1304 33.9801 27.2357 34.2822 27.2994 35.523Z" fill="#FEFCEA"/>
<path fill-rule="evenodd" clip-rule="evenodd" d="M27.2996 46.2949L27.1701 51.3722L26.4308 51.7218C25.5269 52.1426 24.588 51.9009 24.0066 51.0939C23.7061 50.6817 23.6205 49.9589 23.5503 45.5375C24.1865 46.351 25.6739 47.8097 27.2996 46.2949Z" fill="#418BBE"/>
<path d="M45.4949 31.4857C46.1891 31.4857 46.7519 31.05 46.7519 30.5125C46.7519 29.975 46.1891 29.5393 45.4949 29.5393C44.8006 29.5393 44.2378 29.975 44.2378 30.5125C44.2378 31.05 44.8006 31.4857 45.4949 31.4857Z" fill="#FEFCEA"/>
<path fill-rule="evenodd" clip-rule="evenodd" d="M66.7687 38.4577C66.7379 38.4555 66.6765 38.4059 66.5953 38.3174C66.4944 35.7 65.5818 32.9962 64.1997 30.7629C64.0242 30.4802 63.8289 30.2083 63.6008 29.9623C62.9931 29.3063 62.1748 28.8489 61.2972 28.6374C60.0928 28.3461 58.2719 28.413 57.3417 29.3517C57.0785 29.6171 56.9008 29.958 56.6265 30.2126C55.9421 30.8492 55.1216 30.6464 54.3449 30.3335C54.0115 30.1997 53.6605 30.0983 53.316 29.9968C52.0195 29.6106 50.6878 29.3366 49.3386 29.2049C47.4738 29.0215 45.5674 29.1014 43.7443 29.5415C43.1454 29.6861 42.5201 29.8566 41.9673 30.1306C40.3504 31.3627 38.9442 30.5169 38.9442 30.5169C37.9021 29.1316 35.8684 28.6698 35.8684 28.6698C31.6343 28.1195 29.469 32.8365 28.8394 34.5067C28.9732 32.4287 29.1202 31.7965 29.5436 30.8276C30.1315 29.4833 31.9217 27.7117 33.1152 27.2953C34.2867 26.8831 36.0746 26.8788 37.4458 27.2845C38.0513 27.4657 38.9398 27.921 39.4202 28.3008C39.9007 28.6827 40.3899 28.9913 40.5062 28.9913C40.6225 28.9913 41.2236 28.7647 41.8401 28.4864C41.8401 28.4864 41.8554 28.4799 42.5399 28.2188C43.1893 27.9707 45.0979 27.5175 47.5791 27.524C47.5791 27.524 50.5189 27.5305 52.8575 28.2339C53.0572 28.2943 53.2634 28.3375 53.4608 28.4022C54.6499 28.7863 54.8232 28.7949 55.183 28.4864C56.0298 27.7527 57.6818 27.1226 59.0332 27.0169C63.0677 26.6954 66.1149 29.4552 66.705 33.9565C66.9705 35.9956 67.0056 38.4728 66.7665 38.462L66.7687 38.4577Z" fill="#FEFCEA"/>
<path fill-rule="evenodd" clip-rule="evenodd" d="M68.9603 64.8219C68.8353 65.096 68.7036 65.3614 68.5676 65.6138C68.1179 63.92 67.3325 63.2295 67.3325 63.2295C65.5994 61.6435 62.947 62.9619 61.7514 63.702L61.6899 62.6447L62.8702 62.0664C64.3664 61.3349 66.4572 61.2701 67.5453 61.924C68.4075 62.4397 68.8879 63.5121 68.9603 64.8219Z" fill="#FEFCEA"/>
<path fill-rule="evenodd" clip-rule="evenodd" d="M33.7776 63.7387C32.6258 62.8001 30.9782 62.6879 30.9782 62.6879C28.7515 62.4634 27.7511 64.3515 27.3101 65.8555C27.1368 65.5211 26.9942 65.1996 26.8779 64.9061C27.0315 62.0125 29.5083 60.5926 32.5205 62.1096L33.7534 62.731L33.7776 63.7387Z" fill="#FEFCEA"/>
<path fill-rule="evenodd" clip-rule="evenodd" d="M51.1156 72.5016C51.0542 72.7325 50.9971 72.9591 50.9423 73.1748C50.6308 74.394 50.418 75.3456 50.418 75.5571C50.418 76.0879 50.3236 76.1354 48.9722 76.2778C46.9714 76.4871 46.4712 76.3835 46.2716 75.7103C46.0917 75.1039 45.8767 74.4091 45.6376 73.669C45.3721 72.8361 45.0803 71.9492 44.7842 71.0731C44.7842 71.0731 46.1663 73.6733 48.472 73.4165C48.472 73.4165 50.0165 73.5007 51.1156 72.5016Z" fill="#BFD5E8"/>
<path fill-rule="evenodd" clip-rule="evenodd" d="M35.7808 75.9497C35.7128 76.0037 35.421 76.0771 34.9844 76.1591C34.3 75.8246 33.3807 75.2506 32.6414 74.34C33.0868 74.3875 33.429 74.3292 33.5409 74.1501C33.8283 73.6883 33.3237 73.2201 32.0118 72.7303C29.5393 71.8024 27.7733 69.6856 27.0822 66.8286C27.0647 66.7531 27.0471 66.6776 27.0296 66.6021C26.8958 65.9936 26.8497 65.426 26.8782 64.906C26.9945 65.1995 27.1371 65.521 27.3104 65.8555C28.1397 67.476 29.6534 69.4482 32.3321 70.4753C32.3321 70.4753 33.2513 70.6674 33.4268 70.32C33.4268 70.32 32.999 66.0389 33.7778 63.771L33.8151 65.4023C33.8875 68.5074 34.3395 71.1292 35.274 73.8696C35.6426 74.942 35.8686 75.8785 35.7808 75.9497Z" fill="#7DB6BD"/>
<path fill-rule="evenodd" clip-rule="evenodd" d="M60.1169 61.9951C60.1015 61.9304 59.6057 61.7987 59.5267 61.7772C59.2788 61.7124 59.009 61.693 58.7545 61.6671C58.2499 61.6175 57.7409 61.6132 57.2364 61.652C56.2118 61.7297 55.1983 61.9822 54.2637 62.4029C53.5661 62.718 52.9057 63.1237 52.1752 63.3545C50.8457 63.7732 49.3714 63.6092 47.9981 63.6092C47.1008 63.6092 46.2057 63.6092 45.3085 63.6092C45.3041 63.6092 45.2997 63.6092 45.2953 63.6092C44.9904 63.6286 44.7161 63.6717 44.4704 63.7343C40.8703 62.0922 37.1123 61.9433 35.5283 61.9649C35.6621 60.6227 35.8859 59.6841 36.1843 59.6841C36.2698 59.6841 37.0574 59.9301 37.9328 60.2279C43.2397 62.0469 50.4684 62.1872 56.7318 60.5904C59.5728 59.8653 59.6189 59.7898 60.1191 61.9951H60.1169Z" fill="#79BDC3"/>
<path fill-rule="evenodd" clip-rule="evenodd" d="M50.4355 63.6093C50.4355 63.6093 50.554 63.6093 50.7426 63.6287C50.3763 63.674 50.1547 63.674 50.1547 63.674L45.6442 64.3278C45.2559 64.1099 44.8632 63.9135 44.4683 63.7344C44.714 63.6718 44.9882 63.6287 45.2931 63.6093H50.4355Z" fill="#79BDC3"/>
<path fill-rule="evenodd" clip-rule="evenodd" d="M53.0968 65.2535C52.952 65.5125 52.8028 65.9483 52.7063 66.4187C52.5615 67.12 51.9889 69.3383 51.4295 71.345C51.3198 71.7378 51.2145 72.1283 51.1158 72.5016C50.0167 73.5007 48.4722 73.4166 48.4722 73.4166C46.1665 73.6733 44.7843 71.0732 44.7843 71.0732C43.8147 68.1989 42.8143 65.4628 42.6256 65.2621C42.5993 65.2341 42.573 65.2104 42.5444 65.1866C42.7989 64.6795 43.3386 64.0171 44.4684 63.7344C44.7141 63.6718 44.9884 63.6287 45.2933 63.6093H50.4357C50.4357 63.6093 50.5541 63.6093 50.7428 63.6287H50.7516C51.3834 63.6956 52.7699 63.9847 53.0968 65.2535Z" fill="#FEFCEA"/>
<path fill-rule="evenodd" clip-rule="evenodd" d="M65.979 24.1275C65.3077 23.6809 64.6385 23.232 63.9694 22.7854C63.9694 22.7854 58 17.6929 50.519 17.2052C50.519 17.2052 42.3601 16.3335 35.3486 20.4355C35.3486 20.4355 29.6951 24.1534 28.7034 26.1731L27.9049 26.5767L27.8149 26.4472C28.2625 25.7934 29.8903 23.8945 30.6757 23.1414C30.9894 22.8436 31.9679 22.0733 32.8564 21.4303C40.842 15.6538 50.9665 14.7583 59.1452 19.1041C60.6809 19.9176 62.0257 20.7527 63.1928 21.6223C63.2674 21.6762 63.3376 21.7302 63.41 21.7841C63.4166 21.7906 63.421 21.7949 63.4253 21.7971L63.4297 21.8014C64.3994 22.5437 65.244 23.314 65.979 24.1275Z" fill="#0E2B44"/>
<path fill-rule="evenodd" clip-rule="evenodd" d="M65.9789 24.1275C65.244 23.314 64.3994 22.5437 63.4297 21.8014C63.6908 21.9158 63.9562 22.0301 64.2195 22.1445C64.9851 22.9213 65.5709 23.6161 65.9789 24.1275Z" fill="#4889B0"/>
<path fill-rule="evenodd" clip-rule="evenodd" d="M64.2238 22.1466C64.2238 22.1466 64.2216 22.1466 64.2194 22.1466C61.997 19.8874 58.2609 16.9355 52.9628 15.7638C50.6088 15.2416 48.4808 15.192 46.752 15.3106C38.0798 15.6926 32.5623 20.0967 29.7563 23.1392C29.9055 22.8544 34.7978 13.7397 48.5773 13.7937C50.1261 13.893 52.0129 14.1756 54.0597 14.8683C59.4566 16.696 62.732 20.2628 64.2238 22.1488V22.1466Z" fill="#80BFF5"/>
<path fill-rule="evenodd" clip-rule="evenodd" d="M64.2193 22.1445C63.956 22.0302 63.6906 21.9158 63.4295 21.8014L63.4251 21.7971C63.4251 21.7971 63.4164 21.7906 63.4098 21.7842C63.4032 21.7799 63.3944 21.7712 63.3856 21.7648C63.322 21.7173 63.2562 21.6698 63.1926 21.6223C62.0255 20.7527 60.6806 19.9177 59.145 19.1042C50.9663 14.7583 40.8418 15.6538 32.8562 21.4303C31.9677 22.0733 30.9892 22.8437 30.6755 23.1414C29.8901 23.8945 28.2623 25.7934 27.8147 26.4472L27.5229 26.0221C27.5229 26.0221 28.2425 24.7814 29.7519 23.1436C29.7519 23.1436 29.7541 23.1414 29.7563 23.1371C32.5622 20.0946 38.0797 15.6905 46.752 15.3086C48.4807 15.1899 50.6087 15.2395 52.9627 15.7617C58.2608 16.9334 61.9969 19.8853 64.2193 22.1445Z" fill="#428DB5"/>
<path fill-rule="evenodd" clip-rule="evenodd" d="M52.1379 48.9943C51.618 48.7958 51.2823 49.0116 50.5869 49.9956C49.5843 51.4176 48.2789 51.7002 46.7082 50.8328C46.2124 50.5566 45.5959 49.9999 45.3392 49.592C44.8939 48.8843 44.477 48.675 44.1458 49.0008C44.0602 49.0828 43.9922 49.4194 43.9922 49.7431C43.9922 50.4142 45.2449 51.7261 46.4471 52.3238C47.9499 53.0661 50.0099 52.613 51.4995 51.2082C52.524 50.2415 52.8114 49.2468 52.1379 48.9943Z" fill="#0E2B44"/>
<path fill-rule="evenodd" clip-rule="evenodd" d="M33.3391 30.4262C32.6633 31.0498 32.5186 31.3475 32.5186 32.0834C32.5186 33.2054 33.0582 33.7298 34.2122 33.7298C35.7084 33.7298 37.1081 32.6897 37.1081 31.5784C37.1081 31.3195 36.7878 30.7822 36.3951 30.3873C35.4056 29.3947 34.4404 29.4077 33.3412 30.4283L33.3391 30.4262Z" fill="#0E2B44"/>
<path fill-rule="evenodd" clip-rule="evenodd" d="M52.1379 48.9943C51.618 48.7958 51.2823 49.0116 50.5869 49.9956C49.5843 51.4176 48.2789 51.7002 46.7082 50.8328C46.2124 50.5566 45.5959 49.9999 45.3392 49.592C44.8939 48.8843 44.477 48.675 44.1458 49.0008C44.0602 49.0828 43.9922 49.4194 43.9922 49.7431C43.9922 50.4142 45.2449 51.7261 46.4471 52.3238C47.9499 53.0661 50.0099 52.613 51.4995 51.2082C52.524 50.2415 52.8114 49.2468 52.1379 48.9943Z" fill="#0E2B44"/>
<path fill-rule="evenodd" clip-rule="evenodd" d="M52.1379 48.9943C51.618 48.7958 51.2823 49.0116 50.5869 49.9956C49.5843 51.4176 48.2789 51.7002 46.7082 50.8328C46.2124 50.5566 45.5959 49.9999 45.3392 49.592C44.8939 48.8843 44.477 48.675 44.1458 49.0008C44.0602 49.0828 43.9922 49.4194 43.9922 49.7431C43.9922 50.4142 45.2449 51.7261 46.4471 52.3238C47.9499 53.0661 50.0099 52.613 51.4995 51.2082C52.524 50.2415 52.8114 49.2468 52.1379 48.9943Z" fill="#0E2B44"/>
<path fill-rule="evenodd" clip-rule="evenodd" d="M52.1379 48.9943C51.618 48.7958 51.2823 49.0116 50.5869 49.9956C49.5843 51.4176 48.2789 51.7002 46.7082 50.8328C46.2124 50.5566 45.5959 49.9999 45.3392 49.592C44.8939 48.8843 44.477 48.675 44.1458 49.0008C44.0602 49.0828 43.9922 49.4194 43.9922 49.7431C43.9922 50.4142 45.2449 51.7261 46.4471 52.3238C47.9499 53.0661 50.0099 52.613 51.4995 51.2082C52.524 50.2415 52.8114 49.2468 52.1379 48.9943Z" fill="#0E2B44"/>
<path fill-rule="evenodd" clip-rule="evenodd" d="M52.1379 48.9943C51.618 48.7958 51.2823 49.0116 50.5869 49.9956C49.5843 51.4176 48.2789 51.7002 46.7082 50.8328C46.2124 50.5566 45.5959 49.9999 45.3392 49.592C44.8939 48.8843 44.477 48.675 44.1458 49.0008C44.0602 49.0828 43.9922 49.4194 43.9922 49.7431C43.9922 50.4142 45.2449 51.7261 46.4471 52.3238C47.9499 53.0661 50.0099 52.613 51.4995 51.2082C52.524 50.2415 52.8114 49.2468 52.1379 48.9943Z" fill="#0E2B44"/>
<path fill-rule="evenodd" clip-rule="evenodd" d="M52.1379 48.9943C51.618 48.7958 51.2823 49.0116 50.5869 49.9956C49.5843 51.4176 48.2789 51.7002 46.7082 50.8328C46.2124 50.5566 45.5959 49.9999 45.3392 49.592C44.8939 48.8843 44.477 48.675 44.1458 49.0008C44.0602 49.0828 43.9922 49.4194 43.9922 49.7431C43.9922 50.4142 45.2449 51.7261 46.4471 52.3238C47.9499 53.0661 50.0099 52.613 51.4995 51.2082C52.524 50.2415 52.8114 49.2468 52.1379 48.9943Z" fill="#0E2B44"/>
<path fill-rule="evenodd" clip-rule="evenodd" d="M68.7915 66.7898C68.6445 67.4739 68.4032 68.1773 68.0697 68.8657C67.2295 70.5962 65.9198 71.9751 64.2305 72.9051C63.4166 73.3561 62.9493 73.7876 62.8616 74.1545C62.3109 74.4242 61.565 74.763 60.6655 75.1018C60.7357 74.763 60.8301 74.3314 60.942 73.8696C61.1328 73.0756 61.2995 72.2275 61.4334 71.3644C63.0173 70.9631 66.3936 69.6619 68.5677 65.6138L68.9604 64.8219C68.9736 65.1089 68.9736 65.4347 68.9429 65.7929C68.9122 66.1662 68.8551 66.5007 68.7915 66.7898Z" fill="#7DB6BD"/>
<path fill-rule="evenodd" clip-rule="evenodd" d="M52.1379 48.9943C51.618 48.7958 51.2823 49.0116 50.5869 49.9956C49.5843 51.4176 48.2789 51.7002 46.7082 50.8328C46.2124 50.5566 45.5959 49.9999 45.3392 49.592C44.8939 48.8843 44.477 48.675 44.1458 49.0008C44.0602 49.0828 43.9922 49.4194 43.9922 49.7431C43.9922 50.4142 45.2449 51.7261 46.4471 52.3238C47.9499 53.0661 50.0099 52.613 51.4995 51.2082C52.524 50.2415 52.8114 49.2468 52.1379 48.9943Z" fill="#0E2B44"/>
<path fill-rule="evenodd" clip-rule="evenodd" d="M52.1379 48.9943C51.618 48.7958 51.2823 49.0116 50.5869 49.9956C49.5843 51.4176 48.2789 51.7002 46.7082 50.8328C46.2124 50.5566 45.5959 49.9999 45.3392 49.592C44.8939 48.8843 44.477 48.675 44.1458 49.0008C44.0602 49.0828 43.9922 49.4194 43.9922 49.7431C43.9922 50.4142 45.2449 51.7261 46.4471 52.3238C47.9499 53.0661 50.0099 52.613 51.4995 51.2082C52.524 50.2415 52.8114 49.2468 52.1379 48.9943Z" fill="#0E2B44"/>
<path fill-rule="evenodd" clip-rule="evenodd" d="M52.1379 48.9943C51.618 48.7958 51.2823 49.0116 50.5869 49.9956C49.5843 51.4176 48.2789 51.7002 46.7082 50.8328C46.2124 50.5566 45.5959 49.9999 45.3392 49.592C44.8939 48.8843 44.477 48.675 44.1458 49.0008C44.0602 49.0828 43.9922 49.4194 43.9922 49.7431C43.9922 50.4142 45.2449 51.7261 46.4471 52.3238C47.9499 53.0661 50.0099 52.613 51.4995 51.2082C52.524 50.2415 52.8114 49.2468 52.1379 48.9943Z" fill="#0E2B44"/>
<path fill-rule="evenodd" clip-rule="evenodd" d="M37.1081 31.5763C37.1081 32.6876 35.7084 33.7277 34.2122 33.7277C33.0582 33.7277 32.5186 33.2033 32.5186 32.0812C32.5186 31.3454 32.6655 31.0477 33.3391 30.424C34.4382 29.4034 35.4035 29.3904 36.3929 30.383C36.7856 30.7779 37.1059 31.3152 37.1059 31.5742L37.1081 31.5763Z" fill="#201F1F"/>
<path fill-rule="evenodd" clip-rule="evenodd" d="M37.1081 31.5763C37.1081 32.6876 35.7084 33.7277 34.2122 33.7277C33.0582 33.7277 32.5186 33.2033 32.5186 32.0812C32.5186 31.3454 32.6655 31.0477 33.3391 30.424C34.4382 29.4034 35.4035 29.3904 36.3929 30.383C36.7856 30.7779 37.1059 31.3152 37.1059 31.5742L37.1081 31.5763Z" fill="#13314F"/>
<path fill-rule="evenodd" clip-rule="evenodd" d="M40.1007 41.6814C40.0809 41.4181 40.0392 41.157 39.9778 40.9067C39.8242 40.2788 39.5215 39.6789 39.0652 39.2128C38.6198 38.7554 38.0341 38.4339 37.4088 38.2828C36.1956 37.9893 34.8332 38.3173 34.0106 39.2732C33.0102 40.4385 33.0343 42.2532 33.6113 43.5997C33.9711 44.4391 34.6512 45.1102 35.5484 45.3777C36.3689 45.6237 37.3452 45.6108 38.1284 45.2396C38.9094 44.8706 39.5303 44.1844 39.8549 43.3968C40.0743 42.8595 40.1445 42.2661 40.1028 41.6835L40.1007 41.6814ZM36.9679 41.4526C36.426 41.6965 36.3097 41.6598 35.8183 41.0988C35.5177 40.7557 35.2698 40.2831 35.2698 40.0522C35.2698 38.8978 37.0424 38.4921 37.7072 39.4912C38.1876 40.2097 37.8717 41.0491 36.9679 41.4526Z" fill="#0E2B44"/>
<path fill-rule="evenodd" clip-rule="evenodd" d="M36.97 41.4526C36.4281 41.6965 36.3119 41.6598 35.8204 41.0987C35.5199 40.7556 35.272 40.2831 35.272 40.0522C35.272 38.8978 37.0446 38.4921 37.7093 39.4912C38.1898 40.2097 37.8739 41.0491 36.97 41.4526Z" fill="#FEFCEA"/>
<path fill-rule="evenodd" clip-rule="evenodd" d="M61.2185 38.8116C60.1062 38.1232 59.4546 37.9894 58.5376 38.257C57.5592 38.5418 56.4293 39.7308 56.1419 40.773C55.5145 43.0625 57.2411 45.5397 59.4612 45.5397C61.4488 45.5397 62.8112 44.0313 62.8112 41.8347C62.8112 40.3976 62.3439 39.515 61.2185 38.8116ZM60.2795 40.8917C59.8473 41.6491 59.2967 41.7807 58.5552 41.3017C57.8115 40.8227 57.7895 39.7632 58.5069 39.2647C59.2155 38.7727 59.8605 38.913 60.2795 39.6531C60.5954 40.2098 60.5954 40.335 60.2795 40.8917Z" fill="#0E2B44"/>
<path fill-rule="evenodd" clip-rule="evenodd" d="M60.2796 40.8916C59.8474 41.649 59.2968 41.7807 58.5553 41.3016C57.8116 40.8226 57.7896 39.7631 58.507 39.2647C59.2156 38.7727 59.8606 38.9129 60.2796 39.6531C60.5955 40.2098 60.5955 40.3349 60.2796 40.8916Z" fill="#FEFCEA"/>
<path fill-rule="evenodd" clip-rule="evenodd" d="M51.5019 51.2082C50.0123 52.613 47.9523 53.0661 46.4495 52.3238C45.2473 51.7283 43.9946 50.4142 43.9946 49.7431C43.9946 49.4173 44.0626 49.0828 44.1482 49.0008C44.4795 48.675 44.8963 48.8843 45.3416 49.592C45.5983 49.9999 46.217 50.5587 46.7106 50.8328C48.2792 51.7002 49.5867 51.4176 50.5893 49.9956C51.2848 49.0116 51.6204 48.7958 52.1404 48.9943C52.8161 49.2468 52.5265 50.2415 51.5019 51.2082Z" fill="#201F1F"/>
<path fill-rule="evenodd" clip-rule="evenodd" d="M51.5019 51.2082C50.0123 52.613 47.9523 53.0661 46.4495 52.3238C45.2473 51.7283 43.9946 50.4142 43.9946 49.7431C43.9946 49.4173 44.0626 49.0828 44.1482 49.0008C44.4795 48.675 44.8963 48.8843 45.3416 49.592C45.5983 49.9999 46.217 50.5587 46.7106 50.8328C48.2792 51.7002 49.5867 51.4176 50.5893 49.9956C51.2848 49.0116 51.6204 48.7958 52.1404 48.9943C52.8161 49.2468 52.5265 50.2415 51.5019 51.2082Z" fill="#0E2B44"/>
<path fill-rule="evenodd" clip-rule="evenodd" d="M16.3478 63.251L14.6849 59.1015L13.8337 59.0519C13.3664 59.026 12.9386 59.0692 12.8859 59.1533C12.7719 59.3346 9.56885 67.325 9.56885 67.4286C9.56885 67.4674 9.9067 67.4998 10.3169 67.4998C10.8157 67.4998 11.1755 67.2085 11.3963 66.6259L11.7276 65.7519H15.727L16.0626 66.5827C16.2491 67.0402 16.4202 67.4415 16.4421 67.476C16.5058 67.5688 17.833 67.571 17.9274 67.4804C17.9713 67.435 17.2605 65.534 16.3456 63.251H16.3478ZM12.3792 64.3558C12.2782 64.1789 13.6801 60.6616 13.7986 60.7997C13.8622 60.871 14.1913 61.6586 14.5313 62.5497C14.8736 63.4409 15.15 64.2501 15.15 64.345C15.15 64.5328 12.4845 64.5436 12.3792 64.3558Z" fill="#34B495"/>
<path fill-rule="evenodd" clip-rule="evenodd" d="M89.5341 23.491C88.9264 23.9291 78.8172 23.9334 78.4486 23.4975C78.2951 23.3119 78.2797 23.1177 78.4092 22.9904C78.6856 22.7185 89.2116 22.7142 89.6372 22.9839C89.9027 23.1523 89.8851 23.2407 89.5341 23.491Z" fill="#0E2B44"/>
<path fill-rule="evenodd" clip-rule="evenodd" d="M78.3258 20.414C78.1415 20.2349 78.1569 20.1184 78.3719 19.9867C78.8129 19.7192 89.2468 19.6825 89.657 19.9457C90.5016 20.4917 89.385 20.6298 84.0517 20.6449C80.3727 20.6535 78.4947 20.5801 78.3258 20.4118V20.414Z" fill="#0E2B44"/>
<path fill-rule="evenodd" clip-rule="evenodd" d="M78.2864 17.4513C78.1987 17.3132 78.2711 17.1103 78.4444 17.0024C78.6155 16.8945 81.1472 16.8039 84.0672 16.8039C88.2289 16.7996 89.4311 16.8643 89.6308 17.1017C89.7734 17.2678 89.8194 17.4728 89.7361 17.5527C89.4596 17.8246 78.4597 17.7275 78.2864 17.4513Z" fill="#0E2B44"/>
<path fill-rule="evenodd" clip-rule="evenodd" d="M89.7757 26.2768C89.6858 26.4213 87.5424 26.5055 84.0257 26.5055C79.502 26.5055 78.416 26.4472 78.416 26.2055C78.416 26.0394 78.4687 25.8538 78.5323 25.7912C78.6683 25.6575 89.1702 25.8171 89.6178 25.9552C89.7823 26.0092 89.8547 26.1538 89.7757 26.2789V26.2768Z" fill="#0E2B44"/>
<path fill-rule="evenodd" clip-rule="evenodd" d="M96.4997 21.6201L96.4295 10.9799L95.8547 10.5138C95.4576 10.188 94.9508 10.0412 94.2049 10.0348C93.3998 10.0304 93.0488 9.91392 92.8118 9.58378C92.0418 8.50055 91.6316 8.45092 83.8061 8.46818C77.0974 8.48329 76.3844 8.52213 75.5156 8.91485C74.3287 9.45215 73.2384 10.6541 72.9203 11.7697C72.6153 12.855 72.5978 27.9231 72.9027 29.7465C73.1967 31.5116 73.9229 32.9271 74.9211 33.678C75.6911 34.2563 75.9127 34.2973 78.7405 34.4052L81.7417 34.5174L81.801 35.7582C81.8361 36.4422 81.9172 37.2363 81.983 37.5276C82.1037 38.0519 82.1103 38.0519 83.1107 37.247C83.6635 36.7982 84.1747 36.4357 84.2471 36.4357C84.3195 36.4357 84.9008 36.8025 85.5371 37.2535C86.1755 37.7045 86.7656 38.0023 86.8534 37.9181C86.9367 37.8361 87.0464 37.0701 87.0947 36.2199C87.1693 34.9425 87.2614 34.6512 87.6124 34.5606C87.845 34.5001 89.5035 34.4354 91.2915 34.416C94.9355 34.3793 95.5234 34.2088 96.1662 33.0112C96.5392 32.3207 96.5633 31.4123 96.4997 21.6201ZM76.1189 19.581C76.1189 10.7792 76.1365 10.4642 76.5796 10.0283C77.0228 9.59241 77.3453 9.57515 84.0474 9.57515H91.059L91.6206 10.1319L92.1822 10.6843V19.3997C92.1822 28.3029 92.1471 28.7258 91.2849 29.3753C91.0195 29.576 89.0889 29.6537 84.0518 29.658C77.3102 29.6645 77.172 29.658 76.652 29.1746L76.1189 28.6827V19.581ZM79.0236 33.2767C76.6915 33.2767 76.3383 33.2206 75.6385 32.7609C75.2085 32.4761 74.6512 31.8417 74.3989 31.3497C73.9624 30.4974 73.9404 30.0054 73.9404 21.0871C73.9404 12.1688 73.9668 11.679 74.3682 11.1007C74.6052 10.7598 74.8684 10.4793 74.9584 10.4793C75.0483 10.4793 75.1427 14.4648 75.1668 19.3371C75.1931 24.2117 75.2743 28.8833 75.3533 29.7227C75.4761 31.0973 75.5683 31.3174 76.2725 31.9237C77.0293 32.5754 77.1303 32.5991 79.3417 32.5991C81.2218 32.5991 81.6276 32.6595 81.6276 32.9379C81.6276 33.2162 81.1867 33.2767 79.0236 33.2767ZM85.9868 34.1786C85.9868 36.1509 85.8245 36.3451 84.9754 35.3741L84.4423 34.7656L83.6679 35.4086L82.8891 36.0516L82.8233 34.5174C82.7838 33.6737 82.8057 32.8451 82.8715 32.6768C82.9549 32.4653 83.4419 32.3725 84.4884 32.3725H85.9868V34.1786ZM87.0091 31.2936C86.8885 31.1944 84.7034 31.2095 82.152 31.3281C78.4444 31.4965 77.4418 31.4792 77.1566 31.2461C76.9591 31.0865 76.856 30.8966 76.9306 30.8254C77.1456 30.6117 85.8354 30.5276 86.3992 30.7326C87.0596 30.9721 91.2059 30.6355 91.9167 30.2838C93.0619 29.7184 93.1014 29.3926 93.1014 20.5736C93.1014 16.0572 93.1629 12.2983 93.2396 12.225C93.5095 11.9595 94.0206 12.3436 94.0272 12.8184C94.0338 13.0838 94.0272 17.3088 94.0184 22.207C94.0097 28.9459 93.9373 31.1555 93.7245 31.2893C93.3581 31.518 87.2899 31.5223 87.0091 31.2936ZM95.6221 21.9244C95.62 27.3599 95.5607 32.0251 95.4905 32.2884C95.4159 32.5538 95.1351 32.8839 94.8609 33.0242C94.1786 33.3759 87.1342 33.4817 87.1342 33.1386C87.1342 32.8386 89.2337 32.5991 91.8619 32.5991C93.5424 32.5991 93.8407 32.5344 94.409 32.0553L95.0517 31.5116L95.1198 22.2782C95.1658 16.2622 95.1066 12.8313 94.9508 12.4299C94.806 12.0566 94.4375 11.7157 94.0206 11.5733C93.6433 11.446 93.391 11.2475 93.459 11.1331C93.7003 10.7555 94.4989 10.9281 95.0627 11.4848L95.6243 12.0394V21.9244H95.6221Z" fill="#0E2B44"/>
<path fill-rule="evenodd" clip-rule="evenodd" d="M95.6244 12.0395V21.9244C95.6201 27.36 95.5608 32.0252 95.4906 32.2885C95.416 32.5539 95.1352 32.884 94.861 33.0243C94.1787 33.376 87.1343 33.4817 87.1343 33.1386C87.1343 32.8387 89.2338 32.5992 91.862 32.5992C93.5425 32.5992 93.8408 32.5345 94.4091 32.0554L95.0518 31.5116L95.1199 22.2783C95.1659 16.2623 95.1067 12.8314 94.9509 12.43C94.8061 12.0567 94.4376 11.7158 94.0207 11.5734C93.6434 11.4461 93.3911 11.2475 93.4591 11.1332C93.7004 10.7556 94.499 10.9282 95.0628 11.4849L95.6244 12.0395Z" fill="#85D9F9"/>
<path fill-rule="evenodd" clip-rule="evenodd" d="M81.6276 32.938C81.6276 33.2185 81.1867 33.2768 79.0236 33.2768C76.6915 33.2768 76.3383 33.2207 75.6385 32.761C75.2085 32.4762 74.6512 31.8418 74.3989 31.3498C73.9624 30.4975 73.9404 30.0055 73.9404 21.0872C73.9404 12.1689 73.9668 11.6791 74.3682 11.1008C74.6052 10.7599 74.8684 10.4794 74.9584 10.4794C75.0483 10.4794 75.1427 14.4649 75.1668 19.3372C75.1931 24.2117 75.2743 28.8834 75.3533 29.7228C75.4761 31.0974 75.5683 31.3175 76.2725 31.9238C77.0294 32.5755 77.1303 32.5992 79.3417 32.5992C81.2218 32.5992 81.6276 32.6596 81.6276 32.938Z" fill="#85D9F9"/>
<path fill-rule="evenodd" clip-rule="evenodd" d="M89.5341 23.491C88.9264 23.9291 78.8172 23.9334 78.4486 23.4975C78.2951 23.3119 78.2797 23.1177 78.4092 22.9904C78.6856 22.7185 89.2116 22.7142 89.6372 22.9839C89.9027 23.1523 89.8851 23.2407 89.5341 23.491Z" fill="#0E2B44"/>
<path fill-rule="evenodd" clip-rule="evenodd" d="M84.0517 20.6448C80.3727 20.6535 78.4947 20.5801 78.3258 20.4118C78.1415 20.2327 78.1569 20.1162 78.3719 19.9845C78.8129 19.717 89.2468 19.6803 89.657 19.9435C90.5016 20.4895 89.385 20.6276 84.0517 20.6427V20.6448Z" fill="#0E2B44"/>
<path fill-rule="evenodd" clip-rule="evenodd" d="M78.2864 17.4513C78.1987 17.3132 78.2711 17.1103 78.4444 17.0024C78.6155 16.8945 81.1472 16.8039 84.0672 16.8039C88.2289 16.7996 89.4311 16.8643 89.6308 17.1017C89.7734 17.2678 89.8194 17.4728 89.7361 17.5527C89.4596 17.8246 78.4597 17.7275 78.2864 17.4513Z" fill="#0E2B44"/>
<path fill-rule="evenodd" clip-rule="evenodd" d="M89.7757 26.2768C89.6858 26.4213 87.5424 26.5055 84.0257 26.5055C79.502 26.5055 78.416 26.4472 78.416 26.2055C78.416 26.0394 78.4687 25.8538 78.5323 25.7912C78.6683 25.6575 89.1702 25.8171 89.6178 25.9552C89.7823 26.0092 89.8547 26.1538 89.7757 26.2789V26.2768Z" fill="#0E2B44"/>
<path fill-rule="evenodd" clip-rule="evenodd" d="M89.7336 17.5527C89.4572 17.8246 78.4573 17.7275 78.284 17.4513C78.1962 17.3132 78.2686 17.1103 78.4419 17.0024C78.613 16.8945 81.1447 16.8039 84.0647 16.8039C88.2265 16.7996 89.4287 16.8643 89.6283 17.1017C89.7709 17.2678 89.817 17.4728 89.7336 17.5527Z" fill="#0E2B44"/>
<path fill-rule="evenodd" clip-rule="evenodd" d="M84.0517 20.6448C80.3727 20.6535 78.4947 20.5801 78.3258 20.4118C78.1415 20.2327 78.1569 20.1162 78.3719 19.9845C78.8129 19.717 89.2468 19.6803 89.657 19.9435C90.5016 20.4895 89.385 20.6276 84.0517 20.6427V20.6448Z" fill="#0E2B44"/>
<path fill-rule="evenodd" clip-rule="evenodd" d="M89.5341 23.491C88.9264 23.9291 78.8172 23.9334 78.4486 23.4975C78.2951 23.3119 78.2797 23.1177 78.4092 22.9904C78.6856 22.7185 89.2116 22.7142 89.6372 22.9839C89.9027 23.1523 89.8851 23.2407 89.5341 23.491Z" fill="#0E2B44"/>
<path fill-rule="evenodd" clip-rule="evenodd" d="M89.7757 26.2768C89.6858 26.4213 87.5424 26.5055 84.0257 26.5055C79.502 26.5055 78.416 26.4472 78.416 26.2055C78.416 26.0394 78.4687 25.8538 78.5323 25.7912C78.6683 25.6575 89.1702 25.8171 89.6178 25.9552C89.7823 26.0092 89.8547 26.1538 89.7757 26.2789V26.2768Z" fill="#0E2B44"/>
<path d="M80.6294 14.3699V14.8036H78.9204V12.1322H79.3899V14.3699H80.6294Z" fill="#0E2B44"/>
<path d="M82.8893 13.9901H81.2637C81.3339 14.2728 81.5818 14.4583 81.9086 14.4583C82.1719 14.4583 82.3979 14.3353 82.512 14.1864L82.8103 14.4389C82.6063 14.6914 82.275 14.8489 81.8977 14.8489C81.2593 14.8489 80.7876 14.4001 80.7876 13.8067C80.7876 13.2133 81.2439 12.7795 81.8472 12.7795C82.4505 12.7795 82.9025 13.2219 82.9025 13.8175C82.9025 13.8714 82.8981 13.934 82.8915 13.9879L82.8893 13.9901ZM81.2593 13.634H82.4286C82.3628 13.3557 82.1302 13.1723 81.8428 13.1723C81.5554 13.1723 81.3317 13.3578 81.2593 13.634Z" fill="#0E2B44"/>
<path d="M85.3067 12.8291V14.8035H84.8658V14.5209C84.7012 14.7259 84.4555 14.851 84.1615 14.851C83.5955 14.851 83.1743 14.4065 83.1743 13.8174C83.1743 13.2283 83.5955 12.7838 84.1615 12.7838C84.4577 12.7838 84.7012 12.9068 84.8658 13.114V12.8313H85.3067V12.8291ZM84.8658 13.8174C84.8658 13.4678 84.6025 13.2024 84.2471 13.2024C83.8917 13.2024 83.6262 13.47 83.6262 13.8174C83.6262 14.1648 83.8895 14.4324 84.2471 14.4324C84.6047 14.4324 84.8658 14.1648 84.8658 13.8174Z" fill="#0E2B44"/>
<path d="M86.9719 12.7968V13.2413H86.8973C86.5046 13.2413 86.272 13.4765 86.272 13.8411V14.8014H85.8311V12.827H86.272V13.1183C86.4212 12.9176 86.634 12.7968 86.8973 12.7968H86.9719Z" fill="#0E2B44"/>
<path d="M89.2119 13.5607V14.8036H88.7709V13.7031C88.7709 13.401 88.5734 13.2004 88.2707 13.2004C87.9526 13.2004 87.7398 13.4053 87.7398 13.7118V14.8036H87.2988V12.8292H87.7398V13.0838C87.9021 12.8853 88.1325 12.7817 88.4177 12.7817C88.8938 12.7817 89.2119 13.0925 89.2119 13.5607Z" fill="#0E2B44"/>
<path d="M85.2053 64.5694C85.0452 64.7636 84.8148 64.8887 84.5735 64.9146C84.5428 64.9168 84.5121 64.9189 84.4835 64.9189C84.2839 64.9189 84.093 64.8499 83.9351 64.7247C83.7442 64.5759 83.6279 64.3665 83.6016 64.1378C83.5775 63.9005 83.6521 63.6523 83.81 63.4624C83.9636 63.2747 84.1808 63.156 84.4199 63.128C84.6634 63.0999 84.9026 63.1668 85.0912 63.3178C85.2777 63.4646 85.394 63.6696 85.4181 63.8961C85.4444 64.1335 85.3677 64.373 85.2053 64.5694Z" fill="#34B495"/>
<path d="M83.1346 62.1677C83.1346 62.3684 83.0644 62.5734 82.9174 62.7525C82.766 62.9381 82.5554 63.0567 82.3229 63.0913C82.2812 63.0977 82.2373 63.0999 82.1956 63.0999C81.9982 63.0999 81.8073 63.033 81.6493 62.9078C81.2457 62.5885 81.1843 62.0296 81.5089 61.6347C81.8292 61.2485 82.4106 61.1859 82.8033 61.4988C83.0227 61.6736 83.1346 61.9174 83.1346 62.1677Z" fill="#34B495"/>
<path d="M82.0246 64.4377C81.2786 63.8443 80.3858 63.4581 79.5718 63.3761L79.4863 63.3674L79.0782 64.4787L79.2186 64.4938C79.8527 64.5607 80.5481 64.8499 81.079 65.2706C81.4936 65.6008 81.7262 65.959 81.7657 66.3366C81.8074 66.7228 81.6516 67.135 81.3028 67.5601L81.2721 67.5968C79.868 66.4898 78.5715 65.9611 77.5096 66.0712C76.8383 66.1381 76.2657 66.4553 75.8072 67.0141C75.4255 67.4781 75.239 68.0477 75.2873 68.6196C75.3399 69.2583 75.6778 69.8431 76.2657 70.3091C76.9831 70.8788 77.8848 71.114 78.7119 70.9543L78.2533 71.6664L79.4205 72.5943L79.4841 72.4799C79.7057 72.0786 80.0479 71.5974 80.5327 71.0061L82.3405 68.8051C83.2728 67.668 83.9749 65.987 82.0246 64.4377ZM80.5503 68.5268L79.7803 69.4654C79.7057 69.5561 79.5938 69.6532 79.4643 69.733C78.9663 70.0437 78.1085 70.1883 77.3363 69.5755C77.0577 69.3554 76.8866 69.0727 76.8559 68.7792C76.823 68.4815 76.9261 68.1815 77.1652 67.8902C77.4131 67.5881 77.7071 67.4263 78.0647 67.3918C78.1086 67.3875 78.1546 67.3853 78.2007 67.3853C78.8303 67.3853 79.6201 67.7694 80.5503 68.5268Z" fill="#34B495"/>
<path d="M9.82099 40.9888C9.60599 41.5347 9.14309 41.9943 8.48274 42.318C8.18658 42.4626 7.60082 42.7064 7.05894 42.6978H6.97338L6.7167 41.6124H6.85711C7.23006 41.6124 7.58546 41.5304 7.91454 41.3707C8.55514 41.0557 8.79646 40.5076 8.52662 39.9724C8.31162 39.5517 7.99352 39.3273 7.35072 39.146C6.55436 38.9065 5.92034 38.6691 5.58249 38.0002C5.26657 37.3787 5.37627 36.6624 5.89401 35.9783C5.87646 35.8035 5.83478 35.6525 5.76019 35.5079C5.39601 34.7872 4.73567 34.552 4.04022 34.8929C3.42814 35.195 2.84896 35.7863 3.82742 37.7154L6.55875 43.1013L5.32361 43.7076L2.61642 38.367C1.98678 37.1241 1.84418 36.1617 2.16887 35.3418C2.42994 34.6944 2.91478 34.2046 3.6541 33.8421C4.24863 33.5508 4.88704 33.4731 5.45744 33.6198C6.08049 33.7817 6.57849 34.196 6.8944 34.8217C7.11598 35.2598 7.15328 35.7129 7.11598 35.9675L7.11159 35.9999L7.09185 36.0236C6.68818 36.4854 6.56313 36.9234 6.73425 37.2601C6.91634 37.6204 7.26078 37.7413 7.7851 37.9225C8.47397 38.1491 9.25717 38.4059 9.70691 39.2927C9.99649 39.8624 10.036 40.4472 9.82099 40.9888Z" fill="#34B495"/>
<path d="M87.1712 41.854L84.0253 49.8638H82.8428L85.9778 41.854H87.1712Z" fill="#34B495"/>
<path d="M91.5085 49.1906C91.4537 48.8972 91.4274 48.5023 91.4274 48.0168V46.1244C91.4274 44.6506 90.6551 43.8392 89.2533 43.8392C88.5842 43.8392 87.9238 44.0162 87.4434 44.3226L87.2986 44.4154L87.6584 45.4425L87.8953 45.2914C88.2309 45.0778 88.6873 44.9505 89.1151 44.9505C89.7249 44.9505 90.0277 45.2202 90.0606 45.7964C88.8781 45.8201 88.0159 46.0877 87.4982 46.5948C87.1494 46.9379 86.9717 47.3737 86.9717 47.8916C86.9717 48.7202 87.586 49.5596 88.764 49.5596C89.3103 49.5596 89.8215 49.3762 90.201 49.0547L90.2471 49.4453H91.5568L91.5085 49.1906ZM89.0076 48.4483C88.8079 48.4483 88.345 48.3836 88.345 47.7859C88.345 47.568 88.4152 47.3953 88.5556 47.2594C88.8189 47.0069 89.3454 46.871 90.0847 46.8623V47.5248C90.0847 47.5895 90.0694 47.6694 90.0431 47.7492C89.9312 48.0707 89.5933 48.4483 89.0076 48.4483Z" fill="#34B495"/>
<path d="M95.9376 41.854L92.7916 49.8638H91.6113L94.7441 41.854H95.9376Z" fill="#34B495"/>
<path d="M100.654 43.8392C99.1055 43.8392 98.0239 45.0498 98.0239 46.7825C98.0239 48.5152 99.1011 49.5488 100.771 49.5488C101.642 49.5488 102.232 49.3676 102.574 49.2165L102.738 49.1432L102.477 48.0642L102.238 48.1635C101.933 48.2908 101.56 48.4073 100.9 48.4073C100.468 48.4073 99.4938 48.2736 99.3666 47.0824H102.945L102.971 46.8451C102.982 46.7523 103 46.6099 103 46.4373C103 45.1447 102.273 43.8392 100.654 43.8392ZM100.58 44.9289C100.889 44.9289 101.137 45.0196 101.315 45.1987C101.549 45.4339 101.624 45.7662 101.648 45.9927H99.4082C99.5289 45.518 99.8667 44.9289 100.58 44.9289Z" fill="#34B495"/>
<path fill-rule="evenodd" clip-rule="evenodd" d="M42.9325 61.6046C43.4919 61.9757 43.6016 62.2519 44.0382 62.5972C44.387 62.8734 44.6876 62.992 45.2448 63.21C45.5322 63.3222 46.0127 63.5164 46.6555 63.6049C47.1337 63.6696 47.6208 63.6351 48.1012 63.6308C49.1016 63.6221 50.1173 63.5272 51.0519 63.1517C51.9053 62.8086 52.6951 62.1699 52.9145 61.9951C53.2523 61.7276 53.5222 61.4729 54.0224 61.2507C54.6498 60.9745 55.2027 60.9421 55.2027 60.94C55.2027 60.9378 53.7613 61.2226 52.3485 61.4082C50.9137 61.5959 49.8014 61.6412 49.163 61.6671C47.5176 61.7319 46.2474 61.6715 45.7472 61.6456C44.7841 61.5938 43.6565 61.4924 42.3994 61.3025C42.5223 61.3607 42.7153 61.4578 42.9347 61.6024L42.9325 61.6046Z" fill="#CADCE6"/>
<path d="M26.3691 24.5591C26.3691 24.5591 27.9926 26.6932 28.2449 26.8097" stroke="#0E2B44" stroke-width="2" stroke-miterlimit="10"/>
</g>
<path fill-rule="evenodd" clip-rule="evenodd" d="M130 27.3671V43.7342H132.86H135.72V36.9775V30.2272H142.47H149.227V27.623V25.0253H142.509H135.797L135.624 20.6232L135.458 16.2211L143.251 16.0803L151.044 15.9332L151.204 13.4698L151.364 11H140.679H130V27.3671Z" fill="white"/>
<path fill-rule="evenodd" clip-rule="evenodd" d="M225.08 48.5203C223.564 45.1483 221.216 44.2781 213.602 44.259C208.285 44.2462 207.472 44.131 206.653 43.2288C206.051 42.5634 205.84 41.7764 206.045 40.9638C206.346 39.7545 206.512 39.7161 210.953 39.7737C215.195 39.8249 215.739 39.7097 218.106 38.27C222.739 35.4356 224.479 29.0947 221.881 24.4687C220.953 22.8179 220.87 22.3316 221.427 21.6662C221.792 21.2311 222.764 20.8664 223.589 20.8664C225.016 20.8664 225.08 20.7576 225.08 18.531V16.1956H223.046C221.612 16.1956 220.537 16.5987 219.411 17.5392C218.535 18.275 217.812 19.19 217.812 19.5675C217.812 20.1178 217.345 20.105 215.342 19.4907C208.041 17.2321 200.683 22.4276 200.67 29.8497C200.67 31.5453 201.918 34.7317 203.089 36.0306C203.85 36.8624 203.806 37.0607 202.616 38.4748C200.818 40.6119 200.402 43.2672 201.496 45.5706C202.82 48.3603 204.413 48.9234 211.004 48.9234C217.114 48.9234 219.155 49.3905 220.461 51.086C221.228 52.0842 221.433 52.1098 223.685 51.4508L226.098 50.7469L225.087 48.5203H225.08ZM210.255 24.0656C211.983 23.6113 213.275 23.7649 215.124 24.6606C218.925 26.497 218.458 32.985 214.414 34.6805C212.168 35.6211 211.349 35.6083 209.251 34.6102C204.439 32.3259 205.098 25.4221 210.262 24.0656H210.255Z" fill="white"/>
<path fill-rule="evenodd" clip-rule="evenodd" d="M180.253 19.5034C177.118 20.38 174.283 22.6387 172.607 25.5947C171.558 27.4503 171.315 28.5828 171.321 31.526C171.34 35.8834 172.549 38.5579 175.736 41.29C182.262 46.8758 193.511 43.9901 196.224 36.0369C199.666 25.9338 190.657 16.6114 180.253 19.5098V19.5034ZM189.659 36.7471C186.607 40.2151 181.462 40.2087 178.398 36.7215C176.248 34.271 175.838 31.7756 177.092 28.7427C178.845 24.5198 183.67 22.7026 187.656 24.7565C192.154 27.0855 193.114 32.8121 189.659 36.7471Z" fill="white"/>
<path fill-rule="evenodd" clip-rule="evenodd" d="M155.459 31.526V43.7342H160.655V36.9263C160.655 31.6476 160.847 29.7089 161.525 28.2948C162.568 26.1002 164.974 24.5134 167.284 24.5134C168.967 24.5134 168.973 24.5006 168.973 21.9156C168.973 19.3307 168.947 19.3179 167.38 19.3179C165.486 19.3179 164.027 20.0089 162.088 21.8196L160.661 23.1505V19.3179H155.466V31.526H155.459Z" fill="white"/>
<path fill-rule="evenodd" clip-rule="evenodd" d="M148.504 64.9513V77.1659H150.353H152.202V64.9513V52.7432H150.353H148.504V64.9513Z" fill="white"/>
<path fill-rule="evenodd" clip-rule="evenodd" d="M130 65.508V77.1659H132.035H134.069V72.3543V67.5427H138.881H143.693V65.6935V63.8444H138.881H134.069V60.5108V57.1837H139.623H145.171V55.5137V53.8501H137.589H130V65.508Z" fill="white"/>
<path fill-rule="evenodd" clip-rule="evenodd" d="M219.187 57.6443V59.9542H217.799C216.43 59.9542 216.411 59.9734 216.295 61.5282L216.18 63.1022H219.117L219.245 68.56C219.354 73.1797 219.482 74.2034 220.096 75.2144C220.966 76.6604 222.681 77.537 224.607 77.5306C227.301 77.5242 227.697 77.2618 227.697 75.4895V73.9027L226.034 73.9283C223.161 73.9731 222.886 73.4484 222.886 67.8562V63.1022H227.697V59.7686H222.886V55.3281H219.187V57.6379V57.6443Z" fill="white"/>
<path fill-rule="evenodd" clip-rule="evenodd" d="M186.991 69.7629H194.022V68.4193C194.022 63.87 190.465 60.0246 185.871 59.6151C184.758 59.5191 183.305 59.5767 182.633 59.743C180.976 60.1589 178.724 61.7137 177.623 63.179C175.09 66.5701 175.429 71.4713 178.423 74.7025C181.629 78.164 188.117 78.4072 191.988 75.2144L193.363 74.0755L190.906 72.0727L189.467 73.0261C187.426 74.3762 184.175 74.5937 182.416 73.506C181.04 72.655 179.952 71.2538 179.952 70.3388C179.952 69.8461 180.912 69.7693 186.984 69.7693L186.991 69.7629ZM180.752 64.8809C182.153 62.9166 184.745 62.2512 187.125 63.243C188.488 63.8124 189.947 65.4568 189.947 66.4358C189.947 67.0052 189.422 67.082 184.95 67.114C179.402 67.1524 179.204 67.05 180.752 64.8809Z" fill="white"/>
<path fill-rule="evenodd" clip-rule="evenodd" d="M204.701 59.8966C203.959 60.1717 202.878 60.7732 202.296 61.2339L201.24 62.0657L201.125 60.9204C201.016 59.8262 200.933 59.775 199.365 59.775H197.721V77.1659H200.997L201.118 71.4009L201.24 65.636L202.622 64.3691C203.812 63.2814 204.266 63.1022 205.853 63.1022C207.44 63.1022 207.92 63.2942 208.912 64.1835L210.121 65.2649L210.236 71.2154L210.351 77.1659H213.998V71.049C213.998 64.7082 213.71 63.1406 212.226 61.509C210.684 59.8006 207.05 59.0264 204.689 59.903L204.701 59.8966Z" fill="white"/>
<path fill-rule="evenodd" clip-rule="evenodd" d="M156.656 65.7832C156.662 72.5271 157.027 73.9539 159.196 75.7775C161.986 78.1257 167.226 78.1257 170.009 75.7775C172.178 73.9539 172.543 72.5271 172.549 65.7832V59.7687H170.707H168.858V65.4121C168.858 70.3516 168.762 71.2026 168.135 72.2392C166.772 74.4722 162.779 74.613 161.103 72.4823C160.405 71.5993 160.341 71.0043 160.341 65.6424V59.7687H156.643V65.7832H156.649H156.656Z" fill="white"/>
<defs>
<clipPath id="clip0_626_2">
<rect width="101" height="79" fill="white" transform="translate(2 1)"/>
</clipPath>
</defs>
</svg>
