
<svg width="190" height="80" viewBox="0 0 190 80" fill="none" xmlns="http://www.w3.org/2000/svg">
<path fill-rule="evenodd" clip-rule="evenodd" d="M107.113 30.4439V42.6705H109.25H111.386V37.6231V32.5805H116.429H121.476V30.6351V28.6945H116.458H111.444L111.315 25.406L111.19 22.1176L117.012 22.0124L122.834 21.9025L122.953 20.0623L123.073 18.2173H115.091H107.113V30.4439Z" fill="#052C49"/>
<path fill-rule="evenodd" clip-rule="evenodd" d="M178.141 46.2459C177.008 43.7269 175.254 43.0769 169.566 43.0625C165.594 43.053 164.987 42.967 164.375 42.293C163.926 41.7959 163.768 41.208 163.921 40.601C164.145 39.6976 164.27 39.6689 167.587 39.7119C170.756 39.7502 171.162 39.6641 172.931 38.5887C176.391 36.4713 177.691 31.7345 175.751 28.2787C175.058 27.0456 174.995 26.6823 175.411 26.1852C175.684 25.8602 176.41 25.5877 177.027 25.5877C178.093 25.5877 178.141 25.5065 178.141 23.8431V22.0985H176.621C175.55 22.0985 174.747 22.3996 173.906 23.1023C173.251 23.6519 172.711 24.3354 172.711 24.6174C172.711 25.0285 172.362 25.0189 170.866 24.5601C165.412 22.8728 159.915 26.754 159.906 32.2985C159.906 33.5652 160.838 35.9455 161.713 36.9158C162.281 37.5371 162.248 37.6853 161.359 38.7416C160.016 40.3381 159.705 42.3217 160.522 44.0424C161.512 46.1264 162.702 46.547 167.625 46.547C172.19 46.547 173.714 46.8959 174.69 48.1626C175.263 48.9082 175.416 48.9273 177.099 48.435L178.901 47.9092L178.145 46.2459H178.141ZM167.066 27.9776C168.356 27.6383 169.322 27.753 170.703 28.4221C173.542 29.7939 173.193 34.6406 170.173 35.9072C168.495 36.6099 167.883 36.6003 166.315 35.8547C162.721 34.1483 163.213 28.9909 167.071 27.9776H167.066Z" fill="#052C49"/>
<path fill-rule="evenodd" clip-rule="evenodd" d="M144.654 24.5695C142.312 25.2244 140.194 26.9116 138.942 29.1199C138.158 30.506 137.976 31.352 137.981 33.5507C137.995 36.8057 138.899 38.8037 141.279 40.8446C146.154 45.0174 154.557 42.8617 156.584 36.9205C159.155 29.3732 152.425 22.4091 144.654 24.5743V24.5695ZM151.68 37.451C149.4 40.0416 145.557 40.0369 143.267 37.4319C141.661 35.6012 141.356 33.7371 142.292 31.4715C143.602 28.3169 147.206 26.9594 150.184 28.4937C153.544 30.2336 154.261 34.5115 151.68 37.451Z" fill="#052C49"/>
<path fill-rule="evenodd" clip-rule="evenodd" d="M126.132 33.5507V42.6705H130.013V37.5848C130.013 33.6415 130.156 32.1932 130.663 31.1369C131.442 29.4975 133.239 28.3121 134.965 28.3121C136.222 28.3121 136.227 28.3025 136.227 26.3715C136.227 24.4405 136.208 24.4309 135.037 24.4309C133.622 24.4309 132.532 24.9471 131.084 26.2998L130.018 27.294V24.4309H126.137V33.5507H126.132Z" fill="#052C49"/>
<path fill-rule="evenodd" clip-rule="evenodd" d="M120.936 58.5202V67.6447H122.317H123.699V58.5202V49.4004H122.317H120.936V58.5202Z" fill="#052C49"/>
<path fill-rule="evenodd" clip-rule="evenodd" d="M107.113 58.936V67.6448H108.633H110.153V64.0504V60.456H113.748H117.342V59.0746V57.6933H113.748H110.153V55.203V52.7176H114.302H118.446V51.47V50.2273H112.782H107.113V58.936Z" fill="#052C49"/>
<path fill-rule="evenodd" clip-rule="evenodd" d="M173.738 53.0618V54.7873H172.701C171.678 54.7873 171.664 54.8017 171.578 55.9631L171.492 57.139H173.686L173.781 61.2161C173.862 64.6671 173.958 65.4318 174.417 66.187C175.067 67.2673 176.348 67.9221 177.787 67.9173C179.799 67.9125 180.095 67.7166 180.095 66.3926V65.2072L178.853 65.2263C176.706 65.2598 176.501 64.8678 176.501 60.6903V57.139H180.095V54.6487H176.501V51.3315H173.738V53.057V53.0618Z" fill="#052C49"/>
<path fill-rule="evenodd" clip-rule="evenodd" d="M149.687 62.1147H154.94V61.1109C154.94 57.7125 152.282 54.8399 148.85 54.534C148.019 54.4623 146.934 54.5053 146.432 54.6296C145.194 54.9403 143.511 56.1017 142.689 57.1963C140.796 59.7296 141.05 63.3909 143.287 65.8047C145.681 68.3905 150.528 68.5721 153.42 66.187L154.447 65.3362L152.612 63.8402L151.537 64.5524C150.012 65.5609 147.584 65.7234 146.269 64.9108C145.242 64.2751 144.429 63.2284 144.429 62.5449C144.429 62.1768 145.146 62.1195 149.682 62.1195L149.687 62.1147ZM145.026 58.4677C146.073 57.0003 148.009 56.5032 149.787 57.2441C150.805 57.6695 151.895 58.8979 151.895 59.6292C151.895 60.0546 151.503 60.112 148.162 60.1359C144.018 60.1645 143.87 60.0881 145.026 58.4677Z" fill="#052C49"/>
<path fill-rule="evenodd" clip-rule="evenodd" d="M162.917 54.7441C162.362 54.9496 161.555 55.3989 161.12 55.743L160.331 56.3644L160.245 55.5088C160.164 54.6915 160.102 54.6532 158.931 54.6532H157.702V67.6446H160.149L160.24 63.3381L160.331 59.0315L161.363 58.0851C162.252 57.2726 162.592 57.1387 163.777 57.1387C164.963 57.1387 165.321 57.2821 166.062 57.9465L166.965 58.7543L167.051 63.1995L167.137 67.6446H169.862V63.0752C169.862 58.3384 169.647 57.1674 168.538 55.9486C167.386 54.6724 164.671 54.094 162.907 54.7488L162.917 54.7441Z" fill="#052C49"/>
<path fill-rule="evenodd" clip-rule="evenodd" d="M127.026 59.1417C127.03 64.1795 127.303 65.2454 128.923 66.6076C131.007 68.3618 134.922 68.3618 137.001 66.6076C138.621 65.2454 138.894 64.1795 138.899 59.1417V54.6487H137.522H136.141V58.8644C136.141 62.5544 136.069 63.1901 135.601 63.9644C134.582 65.6326 131.6 65.7377 130.348 64.1461C129.827 63.4865 129.779 63.0419 129.779 59.0365V54.6487H127.016V59.1417H127.021H127.026Z" fill="#052C49"/>
<g clip-path="url(#clip0_484_112)">
<path fill-rule="evenodd" clip-rule="evenodd" d="M53.2 10.1016C53.2 10.1573 53.4671 10.567 53.7933 11.0111L54.3865 11.8191L53.9457 12.1976C53.6163 12.4812 53.4245 12.9122 53.1885 13.9004C52.7723 15.6409 52.7788 15.8048 53.2656 15.8048C53.6228 15.8048 53.6818 15.6966 53.867 14.6854C54.1079 13.3743 54.439 12.4877 54.6881 12.4877C54.7848 12.4877 55.4043 13.2318 56.0647 14.1413C57.1611 15.6507 57.3119 15.7949 57.8101 15.7998L58.3542 15.8048L57.5167 14.6985C56.9595 13.9632 56.7885 13.4798 57.0038 13.2482C57.52 12.6991 58.0035 11.4716 58.0084 10.7063C58.0117 10.0639 57.9756 10.0016 57.597 10.0016C57.2398 10.0016 57.1824 10.077 57.1808 10.5408C57.1808 11.2881 56.8989 12.2271 56.5449 12.6647L56.2483 13.0318L55.4469 11.8895C54.3374 10.3097 54.0342 10.0016 53.5884 10.0016C53.377 10.0016 53.2033 10.0475 53.2033 10.1032" fill="#0E2B44"/>
<path d="M28.9895 15.128C28.6142 14.5855 27.9898 14.2741 27.2736 14.2741C26.995 14.2741 26.8557 14.2239 26.8557 14.1234C26.8557 13.8382 26.7082 13.7776 26.5836 13.7776C26.387 13.7776 26.2346 13.8415 26.1526 13.9529C26.0871 14.0431 26.0723 14.161 26.1117 14.2856C26.1395 14.3741 26.1526 14.4134 25.6479 14.6789C25.3184 14.851 24.9694 15.0542 24.853 15.1378C24.835 15.1509 24.794 15.1804 24.7711 15.1935C24.7367 15.1427 24.6826 14.9739 24.6383 14.8379L24.5039 14.4167L25.0431 14.1463C25.0628 14.1348 27.0556 13.1335 27.0556 12.8369C27.0556 12.7385 26.9819 12.591 26.9098 12.4976C26.7295 12.2633 26.5623 12.378 26.1575 12.6566C25.5938 13.0434 24.5269 13.6071 24.3138 13.671C24.2876 13.6284 24.2434 13.517 24.2171 13.3613C24.1696 13.0778 24.1204 12.9122 23.9943 12.8467C23.8877 12.7893 23.7615 12.8254 23.6042 12.8959C23.2928 13.0384 23.3158 13.145 23.442 13.4957C23.5774 13.8748 23.1699 14.2348 22.2194 14.5757C22.0473 14.6363 21.9342 14.697 21.9014 14.8068C21.867 14.9149 21.926 15.0247 22.0293 15.1657C22.203 15.4017 22.3472 15.3443 23.0421 15.0673C23.442 14.91 23.7271 14.8084 23.8238 14.7773C23.8615 14.8412 23.9353 15.0034 24.0139 15.2492C24.1188 15.5847 24.1117 15.836 23.9926 16.0031C23.3584 16.8947 23.0863 18.0042 23.2994 18.8318C23.4075 19.2546 23.637 19.5611 23.9615 19.7184C24.0926 19.7823 24.2221 19.8151 24.3548 19.8151C24.6793 19.8151 25.0251 19.6217 25.4807 19.2038C25.6757 19.0268 25.8134 18.9203 25.892 18.8695C25.9183 18.9203 25.9625 18.9596 26.0215 18.9858C26.1723 19.053 26.3821 19.0055 26.5296 18.8711C26.6344 18.7761 26.7033 18.7138 26.7066 18.6236C26.7115 18.5286 26.6459 18.4598 26.5181 18.3221L26.3427 18.1353L26.5394 17.5322C26.6607 17.1683 26.8114 16.4161 26.877 15.8573L26.9835 14.9559L27.326 14.9952C27.9259 15.0624 28.3503 15.4131 28.4896 15.954C28.6486 16.5751 28.4093 17.4846 27.5161 18.1172L26.9786 18.4958L27.2982 18.7515C27.3228 18.7728 27.5424 18.9498 27.6571 18.9498C27.9259 18.9498 28.9534 17.8272 29.1403 17.442C29.2812 17.1503 29.35 16.7947 29.35 16.4358C29.35 15.954 29.2255 15.4672 28.9895 15.128ZM24.4236 18.9531C24.2843 18.9531 24.1729 18.8793 24.0942 18.7351C23.8713 18.3286 23.9385 17.4093 24.4335 16.6341C24.4466 16.6144 24.4662 16.5866 24.481 16.5652C24.54 16.639 24.658 16.8619 24.7907 17.1143C24.9776 17.4715 25.2168 17.8862 25.2906 17.9632C25.325 17.996 25.3643 18.091 25.3643 18.1631C25.3643 18.3352 24.676 18.9531 24.4236 18.9531ZM25.7855 17.3912C25.7855 17.3912 25.7872 17.3879 25.7904 17.3863L25.874 17.4338L25.7855 17.3912ZM25.8052 17.3535C25.7593 17.306 25.6757 17.1831 25.5184 16.9012C25.1546 16.2479 25.1742 15.789 25.5774 15.5246C25.8363 15.3525 26.0428 15.2345 26.1297 15.1886C26.1444 15.2509 26.1608 15.3689 26.1608 15.541C26.1575 15.9916 25.9478 17.0487 25.8052 17.3535Z" fill="#0E2B44"/>
<path fill-rule="evenodd" clip-rule="evenodd" d="M47.4542 46.4514C47.0658 46.3006 46.815 46.4645 46.2955 47.2118C45.5466 48.2918 44.5715 48.5065 43.398 47.8477C43.0277 47.6379 42.5671 47.2151 42.3754 46.9054C42.0427 46.3678 41.7313 46.2089 41.4839 46.4563C41.4199 46.5186 41.3691 46.7743 41.3691 47.0201C41.3691 47.5298 42.3049 48.5262 43.203 48.9802C44.3256 49.5439 45.8645 49.1998 46.9773 48.1329C47.7426 47.3987 47.9573 46.6432 47.4542 46.4514Z" fill="#0E2B44"/>
<path fill-rule="evenodd" clip-rule="evenodd" d="M47.4542 46.4514C47.0658 46.3006 46.815 46.4645 46.2955 47.2118C45.5466 48.2918 44.5715 48.5065 43.398 47.8477C43.0277 47.6379 42.5671 47.2151 42.3754 46.9054C42.0427 46.3678 41.7313 46.2089 41.4839 46.4563C41.4199 46.5186 41.3691 46.7743 41.3691 47.0201C41.3691 47.5298 42.3049 48.5262 43.203 48.9802C44.3256 49.5439 45.8645 49.1998 46.9773 48.1329C47.7426 47.3987 47.9573 46.6432 47.4542 46.4514Z" fill="#0E2B44"/>
<path fill-rule="evenodd" clip-rule="evenodd" d="M47.4542 46.4514C47.0658 46.3006 46.815 46.4645 46.2955 47.2118C45.5466 48.2918 44.5715 48.5065 43.398 47.8477C43.0277 47.6379 42.5671 47.2151 42.3754 46.9054C42.0427 46.3678 41.7313 46.2089 41.4839 46.4563C41.4199 46.5186 41.3691 46.7743 41.3691 47.0201C41.3691 47.5298 42.3049 48.5262 43.203 48.9802C44.3256 49.5439 45.8645 49.1998 46.9773 48.1329C47.7426 47.3987 47.9573 46.6432 47.4542 46.4514Z" fill="#0E2B44"/>
<path fill-rule="evenodd" clip-rule="evenodd" d="M47.4542 46.4514C47.0658 46.3006 46.815 46.4645 46.2955 47.2118C45.5466 48.2918 44.5715 48.5065 43.398 47.8477C43.0277 47.6379 42.5671 47.2151 42.3754 46.9054C42.0427 46.3678 41.7313 46.2089 41.4839 46.4563C41.4199 46.5186 41.3691 46.7743 41.3691 47.0201C41.3691 47.5298 42.3049 48.5262 43.203 48.9802C44.3256 49.5439 45.8645 49.1998 46.9773 48.1329C47.7426 47.3987 47.9573 46.6432 47.4542 46.4514Z" fill="#0E2B44"/>
<path fill-rule="evenodd" clip-rule="evenodd" d="M47.4542 46.4514C47.0658 46.3006 46.815 46.4645 46.2955 47.2118C45.5466 48.2918 44.5715 48.5065 43.398 47.8477C43.0277 47.6379 42.5671 47.2151 42.3754 46.9054C42.0427 46.3678 41.7313 46.2089 41.4839 46.4563C41.4199 46.5186 41.3691 46.7743 41.3691 47.0201C41.3691 47.5298 42.3049 48.5262 43.203 48.9802C44.3256 49.5439 45.8645 49.1998 46.9773 48.1329C47.7426 47.3987 47.9573 46.6432 47.4542 46.4514Z" fill="#0E2B44"/>
<path fill-rule="evenodd" clip-rule="evenodd" d="M47.4542 46.4514C47.0658 46.3006 46.815 46.4645 46.2955 47.2118C45.5466 48.2918 44.5715 48.5065 43.398 47.8477C43.0277 47.6379 42.5671 47.2151 42.3754 46.9054C42.0427 46.3678 41.7313 46.2089 41.4839 46.4563C41.4199 46.5186 41.3691 46.7743 41.3691 47.0201C41.3691 47.5298 42.3049 48.5262 43.203 48.9802C44.3256 49.5439 45.8645 49.1998 46.9773 48.1329C47.7426 47.3987 47.9573 46.6432 47.4542 46.4514Z" fill="#0E2B44"/>
<path fill-rule="evenodd" clip-rule="evenodd" d="M47.4542 46.4514C47.0658 46.3006 46.815 46.4645 46.2955 47.2118C45.5466 48.2918 44.5715 48.5065 43.398 47.8477C43.0277 47.6379 42.5671 47.2151 42.3754 46.9054C42.0427 46.3678 41.7313 46.2089 41.4839 46.4563C41.4199 46.5186 41.3691 46.7743 41.3691 47.0201C41.3691 47.5298 42.3049 48.5262 43.203 48.9802C44.3256 49.5439 45.8645 49.1998 46.9773 48.1329C47.7426 47.3987 47.9573 46.6432 47.4542 46.4514Z" fill="#0E2B44"/>
<path fill-rule="evenodd" clip-rule="evenodd" d="M47.4542 46.4514C47.0658 46.3006 46.815 46.4645 46.2955 47.2118C45.5466 48.2918 44.5715 48.5065 43.398 47.8477C43.0277 47.6379 42.5671 47.2151 42.3754 46.9054C42.0427 46.3678 41.7313 46.2089 41.4839 46.4563C41.4199 46.5186 41.3691 46.7743 41.3691 47.0201C41.3691 47.5298 42.3049 48.5262 43.203 48.9802C44.3256 49.5439 45.8645 49.1998 46.9773 48.1329C47.7426 47.3987 47.9573 46.6432 47.4542 46.4514Z" fill="#0E2B44"/>
<path fill-rule="evenodd" clip-rule="evenodd" d="M65.7949 38.2784C65.3803 37.4737 64.5117 36.5773 63.8004 36.2135C63.3956 36.0086 63.1416 35.7562 63.1416 35.5628C63.1416 35.3891 62.9466 34.9614 62.7106 34.6123C62.4254 34.1928 62.2222 33.5602 62.1058 32.7457C61.7994 30.5643 60.9636 28.5535 59.3362 26.0772C57.1057 22.6782 54.1574 20.3789 50.1602 18.9203C47.271 17.8665 43.4442 17.583 40.5992 18.2156C35.9055 19.2595 32.1624 21.5965 29.4697 25.166C27.7358 27.4604 26.351 30.7512 26.1609 33.0193C26.0855 33.9158 25.9888 34.2255 25.7463 34.355C25.5709 34.4501 25.4267 34.6336 25.4267 34.7631C25.4267 34.8926 25.1743 35.0859 24.8613 35.1892C23.9222 35.4973 22.3424 37.3656 22.3424 38.1653C22.3424 38.2964 22.1375 38.7832 21.8868 39.2453C21.5164 39.9271 21.4328 40.3024 21.4426 41.2365C21.4558 42.5099 22.0949 44.7158 22.8111 45.9581C23.2552 46.7251 24.4811 47.8837 24.8498 47.8837C24.9695 47.8837 25.1661 48.0935 25.2907 48.3492C25.82 49.4505 27.4245 49.9159 28.7667 49.3554C29.4239 49.0817 29.3976 49.0621 30.0958 50.2846C30.6694 51.2909 32.3082 52.8445 33.5128 53.5247L34.4682 54.0622L34.1929 54.8734C34.0405 55.3192 33.911 55.701 33.9061 55.7224C33.9012 55.742 33.4358 55.5716 32.8753 55.3405C29.8614 54.1015 27.5228 55.878 27.608 59.3393C27.6391 60.5816 28.3258 62.2581 29.219 63.2775L29.7516 63.8838L28.8339 64.3378C27.7637 64.8655 27.1409 65.6718 27.1409 66.5306C27.1409 66.9895 27.2884 67.273 27.7916 67.7745C28.6733 68.6578 29.4501 68.7578 32.4393 68.3743C33.7209 68.2104 35.0779 68.0383 35.4565 67.9924C36.0694 67.9187 36.1726 67.9613 36.4283 68.3972C37.0035 69.3773 37.6968 69.8706 38.626 69.9591C39.3012 70.0246 39.57 69.9738 39.8322 69.7378C40.1583 69.4428 40.1829 69.4428 40.509 69.7378C41.1908 70.3557 42.3708 69.8427 43.1705 68.5857C43.2951 68.3907 43.7573 68.2825 44.8307 68.2006L46.3188 68.0842L46.5826 68.5955C46.7285 68.8774 47.1316 69.2839 47.4758 69.4953C48.033 69.8411 48.1854 69.8624 48.8098 69.6969C49.3834 69.5444 49.5375 69.5543 49.6489 69.7526C49.7358 69.905 50.0636 69.9984 50.5175 69.9984C51.3664 69.9984 52.53 69.2511 52.9512 68.4366C53.0921 68.1645 53.2298 67.9416 53.2544 67.9416C53.2806 67.9416 54.4557 68.1334 55.8651 68.3694C58.8068 68.8594 59.9393 68.902 60.7849 68.548C62.1681 67.9711 62.7106 66.4716 61.9075 65.4522C61.701 65.19 60.9718 64.7147 60.2867 64.3984L59.0395 63.8232L59.7262 62.8448C62.2189 59.2869 61.0357 54.9078 57.5859 54.9144C56.7271 54.916 55.4406 55.2241 54.7539 55.5913C54.4475 55.7568 54.3754 55.7043 54.1459 55.1537C54.0017 54.8095 53.8837 54.4654 53.8837 54.39C53.8837 54.3146 54.3278 53.9999 54.8703 53.6902C56.0355 53.0248 57.3286 51.8579 58.03 50.8386L58.5348 50.106L59.0346 50.4616C60.0655 51.1942 62.45 50.8271 62.9695 49.8553C63.0859 49.6406 63.4874 49.3243 63.8594 49.1571C64.8919 48.69 66.0063 47.3462 66.3193 46.1941C66.4635 45.6631 66.6635 44.9551 66.7635 44.6208C67.1125 43.4474 66.5455 39.7288 65.7949 38.2784ZM62.2091 35.5628C62.3549 35.8447 62.4254 36.2118 62.45 37.4737C61.9043 37.323 61.5159 36.8297 61.5159 36.8297C60.8652 35.9414 60.0376 35.9939 59.5099 36.1577C59.5148 35.6218 59.5181 35.3006 59.5214 35.2678C59.5689 34.8073 60.7341 34.5599 61.4929 34.8499C61.7322 34.9384 62.0518 35.2613 62.2091 35.5628ZM29.0666 29.0042C29.0666 29.0042 29.6041 28.0618 30.7317 26.8179C30.7317 26.8179 30.7333 26.8163 30.7349 26.813C30.8464 26.5967 34.501 19.6742 44.7946 19.7151C45.9517 19.7905 47.3611 20.0052 48.8901 20.5313C52.9217 21.9194 55.3685 24.6284 56.4829 26.0608C56.4813 26.0608 56.4813 26.0591 56.4797 26.0591C56.283 25.9723 56.0847 25.8854 55.8897 25.7986C56.614 26.3623 57.245 26.9474 57.794 27.5652C57.2925 27.226 56.7927 26.8851 56.2928 26.5459C56.2928 26.5459 51.8335 22.6782 46.245 22.3078C46.245 22.3078 40.1501 21.6457 34.9124 24.7612C34.9124 24.7612 30.689 27.5849 29.9483 29.1189L29.3517 29.4253L29.2846 29.327L29.0666 29.0042ZM49.9226 56.3091C49.4637 56.4189 49.1655 56.5205 49.1655 56.5205C49.072 56.5893 48.977 56.6532 48.8803 56.7122C48.5329 56.9335 48.1772 57.0974 47.8396 57.2219C47.8364 57.2252 47.8314 57.2268 47.8282 57.2268C47.4217 57.376 47.0415 57.4645 46.7318 57.5202C46.617 57.5398 46.5122 57.5546 46.4187 57.5661H46.4122C46.3827 57.5628 46.3565 57.5611 46.3319 57.5595C46.2385 57.5513 46.1828 57.5513 46.1828 57.5513H42.3413C42.1135 57.5661 41.9086 57.5988 41.7251 57.6464C39.0357 56.3992 36.2284 56.2861 35.0451 56.3025C35.1451 55.2831 35.3122 54.5702 35.5351 54.5702C35.599 54.5702 36.1874 54.7571 36.8413 54.9832C40.8057 56.3648 46.2057 56.4713 50.8846 55.2586C53.0069 54.7079 53.0413 54.6506 53.415 56.3255C52.3481 55.8567 50.8273 56.096 49.9243 56.3091H49.9226ZM58.384 38.4489C58.3611 38.4472 58.3152 38.4095 58.2545 38.3423C58.2496 38.2325 58.2447 38.1227 58.2365 38.0129C58.2299 37.9162 58.2201 37.8195 58.2103 37.7245C58.2103 37.7065 58.2086 37.6884 58.2054 37.6704C58.1955 37.5819 58.1857 37.495 58.1742 37.4082C58.1742 37.4 58.1726 37.3918 58.171 37.3852C57.835 34.9188 56.6632 32.9226 56.2469 32.2769C56.1535 32.1311 56.0978 32.0541 56.0978 32.0541C55.9487 31.9033 55.7979 31.7689 55.6488 31.6509C55.5717 31.5903 55.4914 31.5313 55.4095 31.4755C54.5065 30.8577 53.6182 30.7807 52.9004 30.8921H52.8922C52.2662 30.9904 51.7729 31.2297 51.5156 31.3772C51.391 31.4493 51.3222 31.4985 51.3222 31.4985C51.2992 31.546 51.2763 31.5919 51.2517 31.6345C51.1075 31.8951 50.9436 32.0803 50.7781 32.213C50.6339 32.3294 50.4897 32.4048 50.3569 32.4523C50.3536 32.4523 50.3504 32.4556 50.3471 32.4572C50.0324 32.5687 49.7899 32.531 49.7899 32.531C49.6866 32.49 49.585 32.4507 49.4834 32.413C49.3146 32.3474 49.1458 32.2868 48.9803 32.2294C48.9721 32.2261 48.9655 32.2229 48.9573 32.2212C48.8213 32.1737 48.6853 32.1294 48.5525 32.0868C48.4804 32.0639 48.4083 32.0409 48.3362 32.0196C48.0805 31.9426 47.8216 31.8705 47.5627 31.8066C47.4545 31.7787 47.3447 31.7525 47.2365 31.7279C47.1136 31.6984 46.9891 31.6722 46.8645 31.6476C46.8498 31.6443 46.835 31.6411 46.8186 31.6378C46.7154 31.6165 46.6138 31.5968 46.5105 31.5788C46.4319 31.5657 46.3548 31.5509 46.2762 31.5395C46.186 31.5247 46.0959 31.51 46.0058 31.4968C45.9238 31.4854 45.8435 31.4739 45.7616 31.4641C45.7485 31.4624 45.7353 31.4608 45.7222 31.4592C45.6206 31.446 45.5174 31.4346 45.4141 31.4231C45.3977 31.4215 45.3814 31.4198 45.365 31.4182C45.301 31.4116 45.2371 31.4051 45.1716 31.4002C45.0946 31.3936 45.0175 31.387 44.9405 31.3821C44.7766 31.3707 44.6127 31.3625 44.4488 31.3575C44.398 31.3559 44.3472 31.3543 44.2964 31.3526C44.1096 31.3477 43.9293 31.3477 43.7556 31.351C43.6753 31.3526 43.5983 31.3559 43.5196 31.3575C43.3656 31.3641 43.2164 31.3723 43.0706 31.3821C42.9247 31.3936 42.7838 31.4051 42.6461 31.4198C42.5773 31.428 42.5101 31.4362 42.4445 31.4444C42.3118 31.4608 42.1856 31.4788 42.0627 31.4985C41.7677 31.5444 41.476 31.6034 41.1859 31.6738C41.1072 31.6935 41.0286 31.7132 40.9499 31.7345C40.4189 31.8803 40.0698 32.0246 39.9289 32.0885C39.9043 32.0983 39.8814 32.1098 39.8584 32.1213C38.6506 33.057 37.6001 32.4146 37.6001 32.4146C36.8216 31.3625 35.3024 31.0118 35.3024 31.0118C32.1394 30.5938 30.5219 34.1764 30.0515 35.4448C30.1515 33.8666 30.2613 33.3864 30.5776 32.6506C31.0168 31.6296 32.3541 30.2841 33.2457 29.9678C34.1208 29.6548 35.4565 29.6515 36.4808 29.9596C36.9331 30.0973 37.5968 30.4431 37.9557 30.7315C38.3146 31.0216 38.6801 31.2559 38.7669 31.2559C38.8538 31.2559 39.3029 31.0839 39.7634 30.8724C39.7634 30.8724 39.7732 30.8675 40.2845 30.6692C40.337 30.6479 40.4009 30.6266 40.4763 30.6037C40.5074 30.5938 40.5418 30.584 40.5762 30.5725C40.5828 30.5709 40.5894 30.5693 40.5959 30.5676C40.6385 30.5545 40.6828 30.543 40.7287 30.5299C40.8237 30.5037 40.927 30.4791 41.0417 30.4529C41.0892 30.4414 41.14 30.4316 41.1908 30.4201C41.2252 30.4119 41.2613 30.4054 41.2973 30.3988C41.3334 30.3906 41.3694 30.3841 41.4071 30.3775C41.4448 30.3693 41.4825 30.3628 41.5219 30.3562C41.5989 30.3415 41.6792 30.3283 41.7628 30.3152C41.8988 30.2939 42.0414 30.2726 42.1921 30.2546C42.2397 30.248 42.2888 30.2415 42.338 30.2366C42.415 30.2284 42.4937 30.2185 42.574 30.212C42.6215 30.2071 42.6691 30.2022 42.7182 30.1972C42.769 30.194 42.8198 30.189 42.8723 30.1858C42.9231 30.1809 42.9739 30.1776 43.0263 30.1743C43.182 30.1645 43.341 30.1563 43.5049 30.1497C43.6032 30.1464 43.7032 30.1448 43.8048 30.1432C43.8851 30.1415 43.967 30.1415 44.049 30.1415C44.049 30.1415 44.1162 30.1415 44.2342 30.1448C44.2489 30.1448 44.2653 30.1464 44.2833 30.1464C44.2997 30.1464 44.3177 30.1464 44.3374 30.1481C44.3636 30.1481 44.3898 30.1481 44.4193 30.1514C44.7111 30.1612 45.1536 30.1858 45.6632 30.2399C45.7648 30.2513 45.8714 30.2628 45.9779 30.2759C46.0123 30.2792 46.0484 30.2841 46.0861 30.289C46.2106 30.3054 46.3384 30.3234 46.4679 30.3447C46.5023 30.348 46.5384 30.3546 46.5744 30.3611C46.7088 30.3824 46.8448 30.407 46.9809 30.4332C47.1513 30.466 47.3218 30.5021 47.4922 30.5447C47.6053 30.5709 47.7151 30.6004 47.8265 30.6315C47.8822 30.6479 47.938 30.6643 47.992 30.6807C48.1412 30.7266 48.2952 30.7594 48.4444 30.8085C49.3326 31.1002 49.4621 31.1068 49.7309 30.8724C50.3635 30.3152 51.5975 29.8367 52.6071 29.7564C55.6209 29.5122 57.8973 31.6083 58.3381 35.0269C58.5364 36.5757 58.5626 38.4571 58.384 38.4489ZM35.2352 66.9239C35.1844 66.9649 34.9665 67.0206 34.6403 67.0829C34.129 66.8289 33.4423 66.3929 32.89 65.7013C33.2227 65.7374 33.4784 65.6931 33.562 65.5571C33.7766 65.2064 33.3997 64.8508 32.4197 64.4787C30.5727 63.774 29.2534 62.1663 28.7372 59.9965C28.7241 59.9391 28.711 59.8818 28.6978 59.8244C28.5979 59.3622 28.5635 58.9312 28.5848 58.5363C28.6995 56.3386 30.5497 55.2602 32.7999 56.4123L33.7209 56.8843L33.739 57.6496C32.8786 56.9367 31.6478 56.8515 31.6478 56.8515C29.9843 56.6811 29.237 58.1151 28.9076 59.2574C29.5271 60.4881 30.6579 61.9861 32.6589 62.7661C32.6589 62.7661 33.3456 62.912 33.4767 62.6481C33.4767 62.6481 33.1572 59.3967 33.739 57.6742L33.7668 58.9132C33.8209 61.2715 34.1585 63.2627 34.8566 65.3441C35.132 66.1586 35.3008 66.8698 35.2352 66.9239ZM54.0312 65.3441C54.1738 64.741 54.2983 64.0969 54.3983 63.4414C55.5816 63.1365 58.1038 62.1483 59.7279 59.0738C59.3919 57.7873 58.8052 57.2629 58.8052 57.2629C57.5105 56.0583 55.5291 57.0597 54.6359 57.6218L54.5901 56.8187L55.4718 56.3795C56.5895 55.824 58.1513 55.7748 58.9642 56.2714C59.6082 56.6631 59.9671 57.4776 60.0212 58.4724C59.9278 58.6805 59.8295 58.8821 59.7279 59.0738C59.7967 59.3377 59.8557 59.6359 59.895 59.967C59.7852 60.4865 59.6049 61.0208 59.3558 61.5436C58.7282 62.8579 57.7498 63.9051 56.4879 64.6115C55.8798 64.954 55.5308 65.2818 55.4652 65.5604C55.0539 65.7652 54.4966 66.0225 53.8247 66.2798C53.8772 66.0225 53.9476 65.6948 54.0312 65.3441ZM57.4351 30.6233C55.5275 28.5535 52.1351 28.152 49.9144 29.7318C49.4654 30.053 49.313 30.076 48.7689 29.9186C48.4231 29.8203 47.3906 29.6417 46.4728 29.5253C44.634 29.2893 41.4612 29.4958 39.9682 29.9449C39.1898 30.1792 39.1668 30.1743 37.7853 29.4876C36.5152 28.8567 36.2661 28.7927 35.0631 28.7927C33.6701 28.7927 32.3377 29.2418 31.2954 30.0612C30.4481 30.7299 29.573 32.0786 29.3534 33.0636C29.0879 34.2468 28.7601 34.196 28.7945 32.9751C28.8634 30.5414 30.9463 28.3961 32.6819 26.9408C34.7026 25.2479 37.092 23.9958 39.6372 23.3075C39.9682 23.219 40.3009 23.1387 40.6369 23.0682C45.8173 21.9882 51.3501 23.2878 55.4603 26.6344C56.8107 27.734 58.0382 28.9976 58.7986 30.5709C59.6689 32.3786 60.0376 33.7962 59.6918 34.0158C59.3132 34.255 59.2641 34.2108 59.0346 33.4422C58.7019 32.3261 58.2152 31.469 57.4351 30.6233ZM61.7486 49.6209C61.2454 50.0077 60.3785 50.029 59.6869 49.6701C59.2067 49.4242 59.1739 49.3521 59.3067 48.8572C59.364 48.6409 59.4214 46.943 59.4525 44.6814C59.682 45.2878 60.1376 46.0187 61.0045 46.0449C61.0045 46.0449 61.8649 46.0171 62.4025 45.1681C62.3386 48.7671 62.2091 49.2669 61.7486 49.6209ZM65.3491 46.5546C65.123 47.1118 63.9364 48.2279 63.5693 48.2279C63.3956 48.2279 63.3366 47.7821 63.3186 45.3156C63.7939 45.4386 64.7952 45.4566 65.7064 44.1209C65.654 45.2042 65.5261 46.1203 65.3491 46.5546Z" fill="#0E2B44"/>
<path fill-rule="evenodd" clip-rule="evenodd" d="M25.2561 43.7112C24.1368 44.4913 23.2124 42.8524 22.7847 41.8806C22.7814 41.6676 22.7798 41.4398 22.7798 41.1988C22.7798 39.324 22.8322 38.9421 23.1813 38.1571C23.6533 37.105 24.8726 35.8857 25.0955 36.2462C25.1758 36.3724 25.243 38.811 25.2528 41.6659C25.2545 42.4493 25.2577 43.1278 25.2561 43.7112Z" fill="white"/>
<path fill-rule="evenodd" clip-rule="evenodd" d="M61.0736 31.9C60.3017 28.873 58.7513 26.2033 56.3881 23.827C54.0363 21.4621 51.7305 20.1445 48.3135 19.212C46.9204 18.8334 43.0888 18.6679 41.4565 18.9186C38.7131 19.3398 35.6238 20.6722 33.2409 22.4618C31.2858 23.9302 28.9881 26.6688 28.5981 27.9995C28.5309 28.2355 28.3785 28.5436 28.2621 28.6845C27.9081 29.1172 26.9707 32.3326 26.9707 33.116C26.9707 33.7748 27.01 33.8469 27.346 33.7961C27.6541 33.7519 27.7705 33.5306 28.0212 32.5096C28.1867 31.8311 28.5194 30.9068 28.762 30.4545C29.0012 30.0005 29.1995 29.5662 29.1995 29.4876C29.1995 29.4646 29.2307 29.4089 29.2848 29.327L29.0668 29.0041C29.0668 29.0041 29.6043 28.0618 30.7319 26.8179C30.7319 26.8179 30.7335 26.8163 30.7351 26.813C30.8466 26.5966 34.5012 19.6741 44.7949 19.7151C45.9519 19.7905 47.3613 20.0052 48.8903 20.5313C52.9219 21.9194 55.3687 24.6284 56.4831 26.0607C56.4815 26.0607 56.4815 26.0591 56.4799 26.0591C56.2832 25.9722 56.0849 25.8854 55.8899 25.7985C56.6143 26.3623 57.2452 26.9474 57.7942 27.5652H57.7959C59.0725 29.0041 59.9002 30.6184 60.3934 32.5424C60.6409 33.5126 60.7704 33.7519 61.0654 33.7961C61.5243 33.865 61.5243 33.6683 61.0736 31.9Z" fill="white"/>
<path fill-rule="evenodd" clip-rule="evenodd" d="M28.9026 44.2569L28.8993 44.4012C27.6849 45.5516 26.5737 44.4438 26.0985 43.8259C26.0903 43.1966 26.0804 42.4706 26.0706 41.6282L26.0264 37.8048C26.4262 36.6887 27.2063 35.9693 27.9995 35.948C28.1897 35.9431 28.5109 35.9742 28.8993 36.22C28.9173 36.5888 28.9321 37.0689 28.9452 37.695C28.9763 39.1044 28.955 42.056 28.9026 44.2569Z" fill="#00BEF9"/>
<path fill-rule="evenodd" clip-rule="evenodd" d="M33.7391 57.6742C33.1573 59.3967 33.4768 62.6481 33.4768 62.6481C33.3457 62.912 32.659 62.7661 32.659 62.7661C30.658 61.986 29.5272 60.4881 28.9077 59.2574C29.2371 58.1151 29.9844 56.6811 31.6479 56.8515C31.6479 56.8515 32.8787 56.9367 33.7391 57.6496V57.6742Z" fill="#B2ECDD"/>
<path fill-rule="evenodd" clip-rule="evenodd" d="M34.6401 67.0828C33.8125 67.2401 32.2867 67.4384 31.0412 67.5319C29.2532 67.6662 29.1073 67.4729 30.2693 66.5059C30.8511 66.0241 30.9559 65.8586 30.7855 65.6882C30.4905 65.3932 29.517 65.8701 29.0057 66.5617C28.5501 67.1779 28.2387 67.2287 28.0748 66.7092C27.9814 66.4125 28.0994 66.1995 28.6452 65.6914C29.6154 64.7851 30.384 64.6704 31.5099 65.2588C31.9786 65.5046 32.4916 65.6587 32.8898 65.7013C33.4421 66.3929 34.1288 66.8288 34.6401 67.0828Z" fill="#B2ECDD"/>
<path fill-rule="evenodd" clip-rule="evenodd" d="M40.8549 63.3563C41.6104 65.6293 42.2266 67.6353 42.2266 67.8123C42.2266 68.3302 41.8988 68.7989 41.5399 68.7989C41.3105 68.7989 41.068 68.5268 40.7697 67.9418C40.3977 67.2043 40.2666 67.0846 39.8306 67.0846C39.275 67.0846 38.8309 67.6369 39.0981 67.9942C39.6766 68.7727 38.7162 69.2725 37.8902 68.6219C36.997 67.9205 36.0318 65.6556 35.2599 62.4565C34.9091 60.9996 34.8649 58.148 35.0452 56.3026C36.2284 56.2862 39.0358 56.3993 41.7251 57.6465C40.8811 57.8612 40.478 58.3643 40.2879 58.7494C39.965 58.4774 39.4848 58.5921 39.4848 58.9707C39.4848 59.11 40.101 61.0815 40.8549 63.3563Z" fill="#B2ECDD"/>
<path fill-rule="evenodd" clip-rule="evenodd" d="M53.6692 60.3718C53.4726 66.1602 51.7977 70.041 50.0654 68.7283C49.8228 68.5447 49.7835 68.353 49.8704 67.8056C49.9638 67.2205 49.9277 67.0878 49.6262 66.9288C49.3361 66.7715 49.2132 66.8026 48.9379 67.0976C48.7527 67.2943 48.5544 67.7204 48.4921 68.0416C48.4134 68.4644 48.2922 68.6267 48.0594 68.6267C47.1958 68.6267 46.9565 67.0567 47.5334 65.1736C47.984 63.7036 49.0837 59.5048 49.0837 59.2541C49.0854 58.9329 48.5839 58.5182 48.3184 58.6215C48.2741 58.6395 48.2233 58.7034 48.1709 58.8001C47.9267 57.8365 46.8909 57.6169 46.4189 57.5661C47.0286 57.4907 48.161 57.2563 49.1657 56.5205C49.1657 56.5205 51.8075 55.6191 53.4152 56.3255C53.4316 56.4058 53.4513 56.491 53.4709 56.5811C53.6922 57.5792 53.7364 58.4117 53.6692 60.3718Z" fill="#B2ECDD"/>
<path fill-rule="evenodd" clip-rule="evenodd" d="M59.728 59.0739C58.1039 62.1484 55.5817 63.1366 54.3984 63.4414C54.659 61.7551 54.7705 59.9802 54.6902 58.5659L54.6361 57.6219C55.5292 57.0598 57.5106 56.0584 58.8053 57.263C58.8053 57.263 59.392 57.7874 59.728 59.0739Z" fill="#B2ECDD"/>
<path fill-rule="evenodd" clip-rule="evenodd" d="M59.8952 59.967C59.8559 59.636 59.7969 59.3377 59.728 59.0739C59.8296 58.8821 59.928 58.6805 60.0214 58.4724C60.0476 58.9378 60.005 59.4459 59.8952 59.967Z" fill="#B2ECDD"/>
<path fill-rule="evenodd" clip-rule="evenodd" d="M61.1715 67.0828C60.7962 67.4974 60.57 67.5253 60.57 67.1532C60.57 67.0025 60.3013 66.6108 59.9768 66.283C59.5359 65.8422 59.259 65.7029 58.9164 65.7438C58.2707 65.8209 58.2265 66.1585 58.8197 66.4649C59.336 66.7321 59.985 67.5531 59.8145 67.7252C59.6277 67.912 53.9982 67.0844 53.7475 66.8337C53.7311 66.8156 53.7622 66.6026 53.8245 66.2797C54.4964 66.0224 55.0537 65.7651 55.465 65.5603C55.4306 65.6963 55.4666 65.8209 55.5732 65.9274C55.6994 66.0536 56.1468 65.9143 57.0596 65.4701C58.0888 64.9686 58.4805 64.8572 58.9099 64.9473C59.7473 65.126 61.0191 65.87 61.2633 66.3273C61.4517 66.6796 61.4386 66.7878 61.1715 67.0828Z" fill="#B2ECDD"/>
<path fill-rule="evenodd" clip-rule="evenodd" d="M58.4283 47.6511C57.5646 51.3745 54.8097 53.4002 48.8934 54.6637C43.2574 55.8683 35.586 54.3458 32.3017 51.3729C31.5396 50.6846 31.0922 50.0864 30.6186 49.1277C30.0188 47.9149 29.9663 47.6904 29.9139 46.0647C29.8811 45.0994 29.927 44.18 30.0171 44.021C30.1073 43.8588 30.1696 43.8227 30.2957 43.9669C30.3613 44.0407 30.4449 44.1652 30.5563 44.3455C31.4577 45.8057 33.3194 46.9709 35.0664 47.1709C38.036 47.5101 40.396 46.2154 41.6284 43.567C41.8611 43.0656 42.0545 42.4412 42.0545 42.1789C42.0545 42.0183 42.0693 41.8676 42.1578 41.7528C42.1578 41.7528 42.2053 41.6922 42.2774 41.6479C42.6379 41.4218 43.2148 41.4464 43.6229 41.43C44.2915 41.4038 44.9651 41.4251 45.6321 41.466C45.7993 41.4759 45.9681 41.489 46.1238 41.5496C46.3319 41.6316 46.4647 41.7938 46.5073 42.0118C46.6302 42.6329 46.8662 43.2327 47.1563 43.7948C47.9183 45.2747 49.3458 46.5465 50.7011 46.9464C51.786 47.2708 53.9821 47.2708 54.8933 46.948C55.9372 46.5792 57.1074 45.7156 57.7023 44.8716C57.9891 44.4635 58.2791 44.1619 58.3463 44.2013C58.4906 44.2898 58.5758 44.8699 58.5922 45.5681C58.6102 46.2695 58.5578 47.0906 58.4283 47.6511Z" fill="#B2ECDD"/>
<path fill-rule="evenodd" clip-rule="evenodd" d="M58.2545 38.3424C58.1316 38.208 57.9497 37.9589 57.7677 37.6754C57.2302 36.8264 56.6025 36.2922 55.2865 35.5744L54.4097 35.0942L54.9178 34.7943C55.8077 34.2698 55.806 33.1521 54.9178 32.2622C54.5638 31.9099 54.2573 31.7706 53.8279 31.7706C52.6463 31.7706 51.8515 33.4996 52.684 34.2567C52.8725 34.4272 53.0265 34.6205 53.0265 34.6877C53.0265 34.7549 52.5988 34.8533 52.0744 34.9057C50.8043 35.0385 49.1605 35.83 48.2673 36.7412C47.4954 37.5311 46.7891 38.8406 46.6039 39.8272L46.4908 40.427H42.0856L41.9889 39.8124C41.5792 37.2296 39.152 35.1827 36.6085 34.9139C35.345 34.7795 33.9946 35.0516 32.9031 35.7137C31.9575 36.2856 30.8414 37.1608 30.3711 38.1916C29.9974 39.0127 29.8876 38.6259 29.9794 36.7855C30.004 36.2627 30.0285 35.8218 30.0515 35.4449C30.5218 34.1764 32.1394 30.5939 35.3024 31.0118C35.3024 31.0118 36.8216 31.3625 37.6 32.4147C37.6 32.4147 38.6505 33.0571 39.8584 32.1213C39.8584 32.1213 43.7916 30.1366 49.7898 32.531C49.7898 32.531 50.7535 32.6818 51.3221 31.4985C51.3221 31.4985 53.7902 29.7171 56.0977 32.0541C56.0977 32.0541 58.1217 34.8713 58.2545 38.3424Z" fill="#B2ECDE"/>
<path fill-rule="evenodd" clip-rule="evenodd" d="M58.4283 47.651C57.5646 51.3744 54.8097 53.4 48.8934 54.6636C43.2574 55.8682 35.586 54.3457 32.3017 51.3728C31.5396 50.6845 31.0922 50.0863 30.6186 49.1276C30.0188 47.9148 29.9663 47.6903 29.9139 46.0645C29.8811 45.0993 29.927 44.1799 30.0171 44.0209C30.1073 43.8586 30.1696 43.8226 30.2957 43.9668C30.7104 45.6155 31.5347 48.1131 32.9458 49.5487C32.9458 49.5487 37.3182 53.9294 46.3139 53.4623C46.3139 53.4623 56.2404 52.7117 58.5922 45.568C58.6102 46.2694 58.5578 47.0905 58.4283 47.651Z" fill="#7CB4BF"/>
<path fill-rule="evenodd" clip-rule="evenodd" d="M56.4748 44.6076C54.4917 46.6447 51.2075 46.6857 49.1622 44.6978C48.038 43.6047 47.6299 42.6181 47.6413 41.0267C47.6528 39.4862 47.9314 38.7668 48.9344 37.6802C50.4553 36.0315 52.1466 35.6218 54.4459 36.3429C55.421 36.6477 56.7517 37.8703 57.322 38.9831C57.5793 39.4846 57.7367 40.1598 57.7908 40.9858C57.8956 42.5755 57.563 43.4899 56.4764 44.606L56.4748 44.6076Z" fill="#B2ECDD"/>
<path fill-rule="evenodd" clip-rule="evenodd" d="M40.9384 41.1988C40.9401 42.5131 40.8893 42.7491 40.4091 43.5981C37.9377 47.982 31.0676 46.3776 30.771 41.3463C30.5465 37.5245 34.6633 34.8564 38.2294 36.5133C39.2439 36.9869 40.0584 37.8326 40.5779 38.9617C40.8516 39.5583 40.9384 40.0844 40.9384 41.1988Z" fill="#B2ECDD"/>
<path fill-rule="evenodd" clip-rule="evenodd" d="M62.4419 41.8692C62.4304 43.1901 62.419 44.275 62.4026 45.1682C61.865 46.0171 61.0046 46.045 61.0046 46.045C60.1377 46.0188 59.6821 45.2878 59.4526 44.6815C59.4641 43.8129 59.4739 42.864 59.4772 41.884C59.4887 39.4699 59.5002 37.3132 59.51 36.1578C60.0377 35.9939 60.8653 35.9415 61.516 36.8297C61.516 36.8297 61.9044 37.323 62.4501 37.4738C62.4665 38.3784 62.4599 39.7436 62.4419 41.8692Z" fill="#00BEF9"/>
<path fill-rule="evenodd" clip-rule="evenodd" d="M65.7064 44.121C64.7952 45.4567 63.7938 45.4387 63.3186 45.3158C63.3137 44.6078 63.312 43.7343 63.312 42.6559C63.312 39.3651 63.3776 37.0854 63.471 37.0854C63.5595 37.0854 63.8627 37.2821 64.1495 37.5214C64.433 37.7623 64.8788 38.3933 65.1393 38.9242C65.5359 39.7322 65.6277 40.1911 65.7047 41.7037C65.7473 42.5182 65.7441 43.3606 65.7064 44.121Z" fill="white"/>
<path fill-rule="evenodd" clip-rule="evenodd" d="M62.4024 45.1681C62.3385 48.7671 62.209 49.2669 61.7485 49.6209C61.2454 50.0077 60.3784 50.029 59.6868 49.6701C59.2067 49.4242 59.1739 49.3521 59.3066 48.8572C59.364 48.6409 59.4213 46.943 59.4525 44.6814C59.6819 45.2878 60.1375 46.0187 61.0045 46.0449C61.0045 46.0449 61.8649 46.0171 62.4024 45.1681Z" fill="#418BBE"/>
<path fill-rule="evenodd" clip-rule="evenodd" d="M62.4499 37.4739C61.9041 37.3231 61.5157 36.8298 61.5157 36.8298C60.8651 35.9415 60.0375 35.994 59.5098 36.1579C59.5147 35.622 59.518 35.3007 59.5212 35.268C59.5688 34.8074 60.734 34.56 61.4928 34.8501C61.732 34.9386 62.0516 35.2614 62.209 35.563C62.3548 35.8448 62.4253 36.2119 62.4499 37.4739Z" fill="#FEFCEA"/>
<path fill-rule="evenodd" clip-rule="evenodd" d="M65.7062 44.1208C65.6537 45.2041 65.5259 46.1202 65.3489 46.5545C65.1227 47.1118 63.9362 48.2278 63.5691 48.2278C63.3954 48.2278 63.3364 47.782 63.3184 45.3156C63.7936 45.4385 64.795 45.4565 65.7062 44.1208Z" fill="#BFD5E8"/>
<path fill-rule="evenodd" clip-rule="evenodd" d="M25.2561 43.7112C25.2511 47.5101 25.1233 47.261 23.9941 45.9712C23.0879 44.9354 22.8224 44.1144 22.7847 41.8806C23.2124 42.8525 24.1367 44.4913 25.2561 43.7112Z" fill="#BFD5E8"/>
<path fill-rule="evenodd" clip-rule="evenodd" d="M28.8996 36.2201C28.5112 35.9743 28.19 35.9431 27.9999 35.948C27.2067 35.9693 26.4266 36.6888 26.0267 37.8049L26.0005 35.6301L26.4725 35.1565C27.0002 34.6304 28.0343 34.5075 28.5833 34.909C28.7734 35.0483 28.8521 35.2777 28.8996 36.2201Z" fill="#FEFCEA"/>
<path fill-rule="evenodd" clip-rule="evenodd" d="M28.8994 44.4012L28.8027 48.2574L28.2504 48.5229C27.5752 48.8425 26.8738 48.6589 26.4395 48.046C26.215 47.733 26.1511 47.1839 26.0986 43.8259C26.5739 44.4438 27.685 45.5516 28.8994 44.4012Z" fill="#418BBE"/>
<path d="M42.4923 33.1538C43.0109 33.1538 43.4313 32.8229 43.4313 32.4147C43.4313 32.0065 43.0109 31.6755 42.4923 31.6755C41.9737 31.6755 41.5532 32.0065 41.5532 32.4147C41.5532 32.8229 41.9737 33.1538 42.4923 33.1538Z" fill="#FEFCEA"/>
<path fill-rule="evenodd" clip-rule="evenodd" d="M58.3839 38.4489C58.361 38.4473 58.3151 38.4096 58.2544 38.3424C58.1791 36.3545 57.4973 34.301 56.4648 32.6048C56.3337 32.3901 56.1879 32.1836 56.0174 31.9968C55.5635 31.4986 54.9522 31.1511 54.2966 30.9905C53.3969 30.7693 52.0366 30.8201 51.3418 31.533C51.1451 31.7346 51.0124 31.9935 50.8075 32.1869C50.2962 32.6704 49.6833 32.5163 49.1031 32.2787C48.854 32.1771 48.5918 32.1 48.3345 32.023C47.3659 31.7297 46.3711 31.5215 45.3632 31.4216C43.9702 31.2823 42.5461 31.3429 41.1842 31.6772C40.7368 31.787 40.2697 31.9165 39.8567 32.1246C38.6489 33.0604 37.5984 32.418 37.5984 32.418C36.8199 31.3658 35.3007 31.0151 35.3007 31.0151C32.1377 30.5972 30.5202 34.1797 30.0498 35.4482C30.1498 33.87 30.2596 33.3898 30.5759 32.654C31.0151 31.633 32.3524 30.2875 33.2439 29.9712C34.1191 29.6581 35.4547 29.6549 36.479 29.963C36.9313 30.1006 37.5951 30.4464 37.954 30.7349C38.3129 31.025 38.6784 31.2593 38.7652 31.2593C38.8521 31.2593 39.3011 31.0872 39.7616 30.8758C39.7616 30.8758 39.7731 30.8709 40.2844 30.6726C40.7695 30.4841 42.1953 30.14 44.0489 30.1449C44.0489 30.1449 46.2449 30.1498 47.992 30.6841C48.1411 30.73 48.2951 30.7627 48.4426 30.8119C49.3309 31.1036 49.4604 31.1102 49.7291 30.8758C50.3617 30.3186 51.5958 29.8401 52.6053 29.7598C55.6192 29.5156 57.8955 31.6117 58.3364 35.0303C58.5347 36.579 58.5609 38.4604 58.3823 38.4522L58.3839 38.4489Z" fill="#FEFCEA"/>
<path fill-rule="evenodd" clip-rule="evenodd" d="M60.021 58.4724C59.9276 58.6805 59.8293 58.8821 59.7276 59.0738C59.3917 57.7873 58.805 57.2629 58.805 57.2629C57.5103 56.0583 55.5289 57.0597 54.6357 57.6218L54.5898 56.8188L55.4715 56.3796C56.5892 55.824 58.1511 55.7748 58.9639 56.2714C59.608 56.6631 59.9669 57.4776 60.021 58.4724Z" fill="#FEFCEA"/>
<path fill-rule="evenodd" clip-rule="evenodd" d="M33.7392 57.6498C32.8788 56.9369 31.648 56.8516 31.648 56.8516C29.9845 56.6812 29.2372 58.1152 28.9078 59.2575C28.7783 59.0034 28.6718 58.7593 28.585 58.5364C28.6997 56.3387 30.5499 55.2603 32.8001 56.4124L33.7211 56.8844L33.7392 57.6498Z" fill="#FEFCEA"/>
<path fill-rule="evenodd" clip-rule="evenodd" d="M46.6907 64.3051C46.6448 64.4805 46.6022 64.6526 46.5612 64.8165C46.3285 65.7424 46.1695 66.4651 46.1695 66.6257C46.1695 67.0289 46.099 67.065 45.0895 67.1731C43.5949 67.3321 43.2212 67.2534 43.0721 66.7421C42.9377 66.2816 42.7771 65.7539 42.5985 65.1918C42.4001 64.5592 42.1822 63.8856 41.9609 63.2202C41.9609 63.2202 42.9934 65.195 44.7158 65C44.7158 65 45.8696 65.0639 46.6907 64.3051Z" fill="#BFD5E8"/>
<path fill-rule="evenodd" clip-rule="evenodd" d="M35.2351 66.924C35.1843 66.965 34.9663 67.0207 34.6402 67.083C34.1289 66.8289 33.4422 66.393 32.8899 65.7014C33.2226 65.7375 33.4783 65.6932 33.5618 65.5572C33.7765 65.2065 33.3996 64.8509 32.4196 64.4788C30.5726 63.7741 29.2533 62.1664 28.7371 59.9966C28.724 59.9392 28.7108 59.8818 28.6977 59.8245C28.5978 59.3623 28.5634 58.9313 28.5847 58.5364C28.6715 58.7592 28.778 59.0034 28.9075 59.2574C29.527 60.4882 30.6578 61.9861 32.6588 62.7662C32.6588 62.7662 33.3455 62.9121 33.4766 62.6482C33.4766 62.6482 33.1571 59.3967 33.7388 57.6743L33.7667 58.9133C33.8208 61.2716 34.1584 63.2628 34.8565 65.3441C35.1319 66.1587 35.3007 66.8699 35.2351 66.924Z" fill="#7DB6BD"/>
<path fill-rule="evenodd" clip-rule="evenodd" d="M53.4151 56.3255C53.4037 56.2764 53.0333 56.1764 52.9743 56.16C52.7891 56.1108 52.5875 56.0961 52.3974 56.0764C52.0205 56.0387 51.6402 56.0354 51.2633 56.0649C50.498 56.1239 49.7408 56.3157 49.0427 56.6353C48.5215 56.8745 48.0282 57.1826 47.4825 57.358C46.4893 57.6759 45.388 57.5514 44.3621 57.5514C43.6918 57.5514 43.0232 57.5514 42.3529 57.5514C42.3496 57.5514 42.3463 57.5514 42.343 57.5514C42.1152 57.5661 41.9104 57.5989 41.7268 57.6464C39.0375 56.3993 36.2301 56.2862 35.0469 56.3026C35.1468 55.2832 35.314 54.5703 35.5369 54.5703C35.6008 54.5703 36.1892 54.7571 36.8431 54.9833C40.8074 56.3649 46.2075 56.4714 50.8864 55.2586C53.0087 54.708 53.0431 54.6506 53.4168 56.3255H53.4151Z" fill="#79BDC3"/>
<path fill-rule="evenodd" clip-rule="evenodd" d="M46.1828 57.5513C46.1828 57.5513 46.2713 57.5513 46.4122 57.566C46.1385 57.6004 45.973 57.6004 45.973 57.6004L42.6035 58.097C42.3134 57.9315 42.0201 57.7824 41.7251 57.6463C41.9086 57.5988 42.1135 57.566 42.3413 57.5513H46.1828Z" fill="#79BDC3"/>
<path fill-rule="evenodd" clip-rule="evenodd" d="M48.1705 58.8001C48.0623 58.9967 47.9509 59.3278 47.8788 59.6851C47.7706 60.2177 47.3429 61.9024 46.9249 63.4266C46.843 63.7248 46.7643 64.0215 46.6906 64.305C45.8695 65.0638 44.7158 64.9999 44.7158 64.9999C42.9933 65.1949 41.9609 63.2201 41.9609 63.2201C41.2365 61.0371 40.4892 58.959 40.3482 58.8066C40.3286 58.7853 40.3089 58.7673 40.2876 58.7493C40.4777 58.3641 40.8809 57.861 41.7249 57.6463C41.9084 57.5988 42.1133 57.566 42.3411 57.5513H46.1825C46.1825 57.5513 46.271 57.5513 46.412 57.566H46.4185C46.8905 57.6168 47.9263 57.8364 48.1705 58.8001Z" fill="#FEFCEA"/>
<path fill-rule="evenodd" clip-rule="evenodd" d="M57.7941 27.5652C57.2926 27.226 56.7928 26.8851 56.2929 26.5458C56.2929 26.5458 51.8336 22.6782 46.2451 22.3078C46.2451 22.3078 40.1503 21.6457 34.9125 24.7611C34.9125 24.7611 30.6892 27.5849 29.9484 29.1188L29.3519 29.4253L29.2847 29.327C29.619 28.8304 30.835 27.3882 31.4217 26.8163C31.6561 26.5901 32.387 26.005 33.0507 25.5166C39.0162 21.1294 46.5795 20.4493 52.6891 23.75C53.8363 24.3678 54.8409 25.002 55.7128 25.6625C55.7685 25.7035 55.821 25.7444 55.875 25.7854C55.88 25.7903 55.8832 25.7936 55.8865 25.7952L55.8898 25.7985C56.6142 26.3623 57.2451 26.9474 57.7941 27.5652Z" fill="#0E2B44"/>
<path fill-rule="evenodd" clip-rule="evenodd" d="M57.794 27.5653C57.245 26.9474 56.614 26.3623 55.8896 25.7986C56.0847 25.8854 56.283 25.9723 56.4796 26.0592C57.0516 26.6491 57.4892 27.1769 57.794 27.5653Z" fill="#4889B0"/>
<path fill-rule="evenodd" clip-rule="evenodd" d="M56.4829 26.0607C56.4829 26.0607 56.4812 26.0607 56.4796 26.0607C54.8194 24.3449 52.0285 22.1029 48.0706 21.213C46.3122 20.8164 44.7225 20.7787 43.4311 20.8688C36.9527 21.1589 32.831 24.5038 30.7349 26.8146C30.8463 26.5983 34.5009 19.6758 44.7946 19.7167C45.9516 19.7921 47.361 20.0068 48.8901 20.5329C52.9216 21.921 55.3684 24.63 56.4829 26.0624V26.0607Z" fill="#00BEF9"/>
<path fill-rule="evenodd" clip-rule="evenodd" d="M56.4795 26.0591C56.2828 25.9723 56.0845 25.8854 55.8895 25.7985L55.8862 25.7953C55.8862 25.7953 55.8797 25.7903 55.8747 25.7854C55.8698 25.7822 55.8633 25.7756 55.8567 25.7707C55.8092 25.7346 55.76 25.6986 55.7125 25.6625C54.8406 25.0021 53.836 24.3678 52.6888 23.75C46.5792 20.4493 39.0159 21.1295 33.0505 25.5167C32.3867 26.005 31.6558 26.5901 31.4214 26.8163C30.8347 27.3882 29.6187 28.8304 29.2844 29.327L29.0664 29.0041C29.0664 29.0041 29.604 28.0618 30.7315 26.8179C30.7315 26.8179 30.7331 26.8163 30.7348 26.813C32.8308 24.5022 36.9526 21.1573 43.4309 20.8672C44.7224 20.7771 46.312 20.8148 48.0705 21.2114C52.0284 22.1013 54.8193 24.3432 56.4795 26.0591Z" fill="#428DB5"/>
<path fill-rule="evenodd" clip-rule="evenodd" d="M47.4542 46.4514C47.0658 46.3006 46.815 46.4645 46.2955 47.2118C45.5466 48.2918 44.5715 48.5065 43.398 47.8477C43.0277 47.6379 42.5671 47.2151 42.3754 46.9054C42.0427 46.3678 41.7313 46.2089 41.4839 46.4563C41.4199 46.5186 41.3691 46.7743 41.3691 47.0201C41.3691 47.5298 42.3049 48.5262 43.203 48.9802C44.3256 49.5439 45.8645 49.1998 46.9773 48.1329C47.7426 47.3987 47.9573 46.6432 47.4542 46.4514Z" fill="#0E2B44"/>
<path fill-rule="evenodd" clip-rule="evenodd" d="M33.4108 32.3491C32.906 32.8228 32.7979 33.0489 32.7979 33.6078C32.7979 34.46 33.201 34.8582 34.063 34.8582C35.1807 34.8582 36.2263 34.0683 36.2263 33.2243C36.2263 33.0276 35.9871 32.6196 35.6937 32.3196C34.9546 31.5658 34.2335 31.5756 33.4124 32.3508L33.4108 32.3491Z" fill="#0E2B44"/>
<path fill-rule="evenodd" clip-rule="evenodd" d="M47.4542 46.4514C47.0658 46.3006 46.815 46.4645 46.2955 47.2118C45.5466 48.2918 44.5715 48.5065 43.398 47.8477C43.0277 47.6379 42.5671 47.2151 42.3754 46.9054C42.0427 46.3678 41.7313 46.2089 41.4839 46.4563C41.4199 46.5186 41.3691 46.7743 41.3691 47.0201C41.3691 47.5298 42.3049 48.5262 43.203 48.9802C44.3256 49.5439 45.8645 49.1998 46.9773 48.1329C47.7426 47.3987 47.9573 46.6432 47.4542 46.4514Z" fill="#0E2B44"/>
<path fill-rule="evenodd" clip-rule="evenodd" d="M47.4542 46.4514C47.0658 46.3006 46.815 46.4645 46.2955 47.2118C45.5466 48.2918 44.5715 48.5065 43.398 47.8477C43.0277 47.6379 42.5671 47.2151 42.3754 46.9054C42.0427 46.3678 41.7313 46.2089 41.4839 46.4563C41.4199 46.5186 41.3691 46.7743 41.3691 47.0201C41.3691 47.5298 42.3049 48.5262 43.203 48.9802C44.3256 49.5439 45.8645 49.1998 46.9773 48.1329C47.7426 47.3987 47.9573 46.6432 47.4542 46.4514Z" fill="#0E2B44"/>
<path fill-rule="evenodd" clip-rule="evenodd" d="M47.4542 46.4514C47.0658 46.3006 46.815 46.4645 46.2955 47.2118C45.5466 48.2918 44.5715 48.5065 43.398 47.8477C43.0277 47.6379 42.5671 47.2151 42.3754 46.9054C42.0427 46.3678 41.7313 46.2089 41.4839 46.4563C41.4199 46.5186 41.3691 46.7743 41.3691 47.0201C41.3691 47.5298 42.3049 48.5262 43.203 48.9802C44.3256 49.5439 45.8645 49.1998 46.9773 48.1329C47.7426 47.3987 47.9573 46.6432 47.4542 46.4514Z" fill="#0E2B44"/>
<path fill-rule="evenodd" clip-rule="evenodd" d="M47.4542 46.4514C47.0658 46.3006 46.815 46.4645 46.2955 47.2118C45.5466 48.2918 44.5715 48.5065 43.398 47.8477C43.0277 47.6379 42.5671 47.2151 42.3754 46.9054C42.0427 46.3678 41.7313 46.2089 41.4839 46.4563C41.4199 46.5186 41.3691 46.7743 41.3691 47.0201C41.3691 47.5298 42.3049 48.5262 43.203 48.9802C44.3256 49.5439 45.8645 49.1998 46.9773 48.1329C47.7426 47.3987 47.9573 46.6432 47.4542 46.4514Z" fill="#0E2B44"/>
<path fill-rule="evenodd" clip-rule="evenodd" d="M47.4542 46.4514C47.0658 46.3006 46.815 46.4645 46.2955 47.2118C45.5466 48.2918 44.5715 48.5065 43.398 47.8477C43.0277 47.6379 42.5671 47.2151 42.3754 46.9054C42.0427 46.3678 41.7313 46.2089 41.4839 46.4563C41.4199 46.5186 41.3691 46.7743 41.3691 47.0201C41.3691 47.5298 42.3049 48.5262 43.203 48.9802C44.3256 49.5439 45.8645 49.1998 46.9773 48.1329C47.7426 47.3987 47.9573 46.6432 47.4542 46.4514Z" fill="#0E2B44"/>
<path fill-rule="evenodd" clip-rule="evenodd" d="M59.895 59.967C59.7852 60.4866 59.6049 61.0208 59.3558 61.5436C58.7282 62.858 57.7498 63.9052 56.4878 64.6116C55.8798 64.9541 55.5308 65.2818 55.4652 65.5604C55.0538 65.7653 54.4966 66.0226 53.8247 66.2799C53.8772 66.0226 53.9476 65.6948 54.0312 65.3441C54.1738 64.741 54.2983 64.097 54.3983 63.4414C55.5816 63.1366 58.1037 62.1484 59.7278 59.0739L60.0212 58.4724C60.031 58.6904 60.031 58.9378 60.0081 59.2099C59.9852 59.4934 59.9425 59.7474 59.895 59.967Z" fill="#7DB6BD"/>
<path fill-rule="evenodd" clip-rule="evenodd" d="M47.4542 46.4514C47.0658 46.3006 46.815 46.4645 46.2955 47.2118C45.5466 48.2918 44.5715 48.5065 43.398 47.8477C43.0277 47.6379 42.5671 47.2151 42.3754 46.9054C42.0427 46.3678 41.7313 46.2089 41.4839 46.4563C41.4199 46.5186 41.3691 46.7743 41.3691 47.0201C41.3691 47.5298 42.3049 48.5262 43.203 48.9802C44.3256 49.5439 45.8645 49.1998 46.9773 48.1329C47.7426 47.3987 47.9573 46.6432 47.4542 46.4514Z" fill="#0E2B44"/>
<path fill-rule="evenodd" clip-rule="evenodd" d="M47.4542 46.4514C47.0658 46.3006 46.815 46.4645 46.2955 47.2118C45.5466 48.2918 44.5715 48.5065 43.398 47.8477C43.0277 47.6379 42.5671 47.2151 42.3754 46.9054C42.0427 46.3678 41.7313 46.2089 41.4839 46.4563C41.4199 46.5186 41.3691 46.7743 41.3691 47.0201C41.3691 47.5298 42.3049 48.5262 43.203 48.9802C44.3256 49.5439 45.8645 49.1998 46.9773 48.1329C47.7426 47.3987 47.9573 46.6432 47.4542 46.4514Z" fill="#0E2B44"/>
<path fill-rule="evenodd" clip-rule="evenodd" d="M47.4542 46.4514C47.0658 46.3006 46.815 46.4645 46.2955 47.2118C45.5466 48.2918 44.5715 48.5065 43.398 47.8477C43.0277 47.6379 42.5671 47.2151 42.3754 46.9054C42.0427 46.3678 41.7313 46.2089 41.4839 46.4563C41.4199 46.5186 41.3691 46.7743 41.3691 47.0201C41.3691 47.5298 42.3049 48.5262 43.203 48.9802C44.3256 49.5439 45.8645 49.1998 46.9773 48.1329C47.7426 47.3987 47.9573 46.6432 47.4542 46.4514Z" fill="#0E2B44"/>
<path fill-rule="evenodd" clip-rule="evenodd" d="M36.2263 33.2225C36.2263 34.0665 35.1807 34.8564 34.063 34.8564C33.201 34.8564 32.7979 34.4582 32.7979 33.606C32.7979 33.0472 32.9077 32.821 33.4108 32.3474C34.2318 31.5722 34.9529 31.5624 35.6921 32.3162C35.9854 32.6161 36.2247 33.0242 36.2247 33.2209L36.2263 33.2225Z" fill="black"/>
<path fill-rule="evenodd" clip-rule="evenodd" d="M36.2263 33.2225C36.2263 34.0665 35.1807 34.8564 34.063 34.8564C33.201 34.8564 32.7979 34.4582 32.7979 33.606C32.7979 33.0472 32.9077 32.821 33.4108 32.3474C34.2318 31.5722 34.9529 31.5624 35.6921 32.3162C35.9854 32.6161 36.2247 33.0242 36.2247 33.2209L36.2263 33.2225Z" fill="#13314F"/>
<path fill-rule="evenodd" clip-rule="evenodd" d="M38.4617 40.8974C38.447 40.6974 38.4158 40.4991 38.37 40.309C38.2552 39.8321 38.0291 39.3765 37.6882 39.0225C37.3555 38.6751 36.9179 38.4309 36.4509 38.3162C35.5446 38.0933 34.5268 38.3424 33.9123 39.0684C33.165 39.9534 33.183 41.3317 33.614 42.3543C33.8828 42.9918 34.3908 43.5015 35.0611 43.7047C35.674 43.8916 36.4033 43.8817 36.9884 43.5998C37.5718 43.3196 38.0356 42.7984 38.2782 42.2003C38.4421 41.7922 38.4945 41.3415 38.4634 40.899L38.4617 40.8974ZM36.1214 40.7237C35.7167 40.9088 35.6298 40.881 35.2627 40.4549C35.0382 40.1943 34.853 39.8354 34.853 39.66C34.853 38.7833 36.1772 38.4751 36.6737 39.2339C37.0327 39.7797 36.7967 40.4172 36.1214 40.7237Z" fill="#0E2B44"/>
<path fill-rule="evenodd" clip-rule="evenodd" d="M36.123 40.7237C35.7182 40.9089 35.6313 40.881 35.2642 40.4549C35.0397 40.1944 34.8545 39.8354 34.8545 39.6601C34.8545 38.7833 36.1787 38.4752 36.6753 39.234C37.0342 39.7797 36.7982 40.4172 36.123 40.7237Z" fill="#FEFCEA"/>
<path fill-rule="evenodd" clip-rule="evenodd" d="M54.2377 38.7176C53.4068 38.1948 52.9201 38.0932 52.235 38.2964C51.5041 38.5127 50.6601 39.4157 50.4454 40.2073C49.9767 41.9461 51.2665 43.8275 52.925 43.8275C54.4098 43.8275 55.4275 42.682 55.4275 41.0136C55.4275 39.9221 55.0785 39.2518 54.2377 38.7176ZM53.5363 40.2974C53.2134 40.8727 52.8021 40.9726 52.2482 40.6088C51.6926 40.245 51.6762 39.4403 52.2121 39.0617C52.7415 38.6881 53.2233 38.7946 53.5363 39.3567C53.7723 39.7796 53.7723 39.8746 53.5363 40.2974Z" fill="#0E2B44"/>
<path fill-rule="evenodd" clip-rule="evenodd" d="M53.5365 40.2975C53.2136 40.8728 52.8023 40.9727 52.2484 40.6089C51.6928 40.2451 51.6764 39.4404 52.2123 39.0618C52.7417 38.6882 53.2235 38.7947 53.5365 39.3568C53.7725 39.7796 53.7725 39.8747 53.5365 40.2975Z" fill="#FEFCEA"/>
<path fill-rule="evenodd" clip-rule="evenodd" d="M46.9792 48.1329C45.8665 49.1998 44.3276 49.5439 43.205 48.9802C42.3069 48.5278 41.3711 47.5298 41.3711 47.0201C41.3711 46.7726 41.4219 46.5186 41.4858 46.4563C41.7333 46.2089 42.0447 46.3678 42.3773 46.9054C42.5691 47.2151 43.0313 47.6396 43.4 47.8477C44.5718 48.5065 45.5485 48.2918 46.2975 47.2118C46.817 46.4645 47.0677 46.3006 47.4562 46.4514C47.9609 46.6432 47.7446 47.3987 46.9792 48.1329Z" fill="black"/>
<path fill-rule="evenodd" clip-rule="evenodd" d="M46.9792 48.1329C45.8665 49.1998 44.3276 49.5439 43.205 48.9802C42.3069 48.5278 41.3711 47.5298 41.3711 47.0201C41.3711 46.7726 41.4219 46.5186 41.4858 46.4563C41.7333 46.2089 42.0447 46.3678 42.3773 46.9054C42.5691 47.2151 43.0313 47.6396 43.4 47.8477C44.5718 48.5065 45.5485 48.2918 46.2975 47.2118C46.817 46.4645 47.0677 46.3006 47.4562 46.4514C47.9609 46.6432 47.7446 47.3987 46.9792 48.1329Z" fill="#0E2B44"/>
<path fill-rule="evenodd" clip-rule="evenodd" d="M20.7179 57.2791L19.4756 54.1276L18.8397 54.0899C18.4907 54.0702 18.1711 54.103 18.1318 54.1669C18.0465 54.3046 15.6538 60.3733 15.6538 60.4519C15.6538 60.4814 15.9062 60.506 16.2127 60.506C16.5852 60.506 16.854 60.2848 17.019 59.8423L17.2664 59.1785H20.2541L20.5048 59.8095C20.6441 60.1569 20.7719 60.4618 20.7883 60.488C20.8359 60.5585 21.8274 60.5601 21.8978 60.4913C21.9306 60.4568 21.3996 59.013 20.7162 57.2791H20.7179ZM17.7532 58.1182C17.6778 57.9838 18.725 55.3125 18.8135 55.4174C18.861 55.4715 19.1069 56.0696 19.3609 56.7465C19.6166 57.4233 19.823 58.0379 19.823 58.11C19.823 58.2526 17.8318 58.2608 17.7532 58.1182Z" fill="#0E2B44"/>
<path fill-rule="evenodd" clip-rule="evenodd" d="M75.3901 27.0819C74.9361 27.4146 67.3843 27.4178 67.1089 27.0868C66.9942 26.9458 66.9827 26.7983 67.0794 26.7017C67.2859 26.4952 75.1491 26.4919 75.4671 26.6967C75.6654 26.8246 75.6523 26.8918 75.3901 27.0819Z" fill="#0E2B44"/>
<path fill-rule="evenodd" clip-rule="evenodd" d="M67.0172 24.7447C66.8795 24.6087 66.891 24.5202 67.0516 24.4202C67.381 24.217 75.1754 24.1892 75.4819 24.3891C76.1128 24.8037 75.2786 24.9086 71.2946 24.9201C68.5462 24.9267 67.1434 24.8709 67.0172 24.7431V24.7447Z" fill="#0E2B44"/>
<path fill-rule="evenodd" clip-rule="evenodd" d="M66.9879 22.4946C66.9223 22.3897 66.9764 22.2357 67.1059 22.1537C67.2337 22.0718 69.1249 22.003 71.3063 22.003C74.4152 21.9997 75.3133 22.0488 75.4624 22.2291C75.5689 22.3553 75.6033 22.511 75.5411 22.5716C75.3346 22.7781 67.1174 22.7044 66.9879 22.4946Z" fill="#0E2B44"/>
<path fill-rule="evenodd" clip-rule="evenodd" d="M75.5704 29.1975C75.5033 29.3073 73.9021 29.3713 71.275 29.3713C67.8957 29.3713 67.0845 29.327 67.0845 29.1435C67.0845 29.0173 67.1238 28.8763 67.1713 28.8288C67.2729 28.7272 75.1181 28.8485 75.4524 28.9534C75.5754 28.9943 75.6294 29.1041 75.5704 29.1992V29.1975Z" fill="#0E2B44"/>
<path fill-rule="evenodd" clip-rule="evenodd" d="M80.5937 25.6609L80.5412 17.5797L80.1119 17.2257C79.8152 16.9782 79.4367 16.8668 78.8794 16.8619C78.278 16.8586 78.0158 16.7701 77.8388 16.5194C77.2635 15.6967 76.9571 15.659 71.1113 15.6721C66.0997 15.6836 65.5671 15.7131 64.9181 16.0113C64.0314 16.4194 63.2169 17.3322 62.9793 18.1795C62.7515 19.0039 62.7384 30.448 62.9662 31.8328C63.1858 33.1734 63.7283 34.2485 64.4739 34.8188C65.0492 35.258 65.2147 35.2891 67.3272 35.3711L69.5691 35.4563L69.6134 36.3986C69.6396 36.9182 69.7002 37.5213 69.7494 37.7425C69.8395 38.1407 69.8445 38.1407 70.5918 37.5294C71.0048 37.1886 71.3866 36.9132 71.4407 36.9132C71.4948 36.9132 71.9291 37.1918 72.4043 37.5344C72.8812 37.8769 73.3221 38.103 73.3877 38.0391C73.4499 37.9769 73.5319 37.3951 73.5679 36.7494C73.6236 35.7792 73.6925 35.5579 73.9547 35.4891C74.1284 35.4432 75.3674 35.394 76.7031 35.3793C79.4252 35.3514 79.8644 35.2219 80.3446 34.3124C80.6232 33.788 80.6412 33.098 80.5937 25.6609ZM65.3688 24.1122C65.3688 17.4273 65.3819 17.188 65.7129 16.857C66.044 16.5259 66.2849 16.5128 71.2916 16.5128H76.5293L76.9489 16.9356L77.3684 17.3552V23.9745C77.3684 30.7364 77.3422 31.0576 76.6981 31.5509C76.4998 31.7033 75.0576 31.7623 71.2948 31.7656C66.2586 31.7705 66.1554 31.7656 65.767 31.3985L65.3688 31.0248V24.1122ZM67.5386 34.514C65.7965 34.514 65.5326 34.4714 65.0098 34.1223C64.6886 33.9059 64.2724 33.4241 64.0839 33.0505C63.7578 32.4031 63.7414 32.0295 63.7414 25.2561C63.7414 18.4827 63.761 18.1107 64.0609 17.6715C64.2379 17.4125 64.4346 17.1995 64.5018 17.1995C64.569 17.1995 64.6395 20.2265 64.6575 23.927C64.6772 27.6291 64.7378 31.1773 64.7968 31.8148C64.8886 32.8587 64.9574 33.0259 65.4835 33.4864C66.0489 33.9813 66.1243 33.9994 67.7762 33.9994C69.1807 33.9994 69.4839 34.0452 69.4839 34.2567C69.4839 34.4681 69.1545 34.514 67.5386 34.514ZM72.7403 35.199C72.7403 36.6969 72.619 36.8444 71.9848 36.1069L71.5866 35.6448L71.008 36.1331L70.4262 36.6215L70.3771 35.4563C70.3476 34.8155 70.364 34.1862 70.4131 34.0584C70.4754 33.8978 70.8392 33.8273 71.621 33.8273H72.7403V35.199ZM73.504 33.0079C73.4139 32.9325 71.7816 32.9439 69.8756 33.0341C67.1059 33.1619 66.357 33.1488 66.1439 32.9718C65.9964 32.8505 65.9194 32.7063 65.9751 32.6522C66.1357 32.49 72.6272 32.4261 73.0484 32.5818C73.5417 32.7637 76.6391 32.508 77.1701 32.2409C78.0256 31.8115 78.0551 31.564 78.0551 24.866C78.0551 21.4359 78.101 18.581 78.1584 18.5253C78.3599 18.3237 78.7418 18.6155 78.7467 18.976C78.7516 19.1776 78.7467 22.3865 78.7401 26.1067C78.7336 31.2248 78.6795 32.903 78.5205 33.0046C78.2469 33.1783 73.7138 33.1816 73.504 33.0079ZM79.9381 25.892C79.9365 30.0202 79.8923 33.5634 79.8398 33.7634C79.7841 33.9649 79.5743 34.2157 79.3695 34.3222C78.8598 34.5893 73.5974 34.6697 73.5974 34.4091C73.5974 34.1813 75.1658 33.9994 77.1291 33.9994C78.3845 33.9994 78.6074 33.9502 79.0319 33.5864L79.512 33.1734L79.5628 26.1607C79.5973 21.5916 79.553 18.9858 79.4367 18.681C79.3285 18.3975 79.0532 18.1386 78.7418 18.0304C78.4599 17.9337 78.2714 17.7829 78.3222 17.6961C78.5025 17.4093 79.0991 17.5404 79.5202 17.9632L79.9398 18.3844V25.892H79.9381Z" fill="#0E2B44"/>
<path fill-rule="evenodd" clip-rule="evenodd" d="M79.9395 18.3843V25.8919C79.9362 30.0202 79.892 33.5634 79.8396 33.7633C79.7838 33.9649 79.5741 34.2156 79.3692 34.3222C78.8595 34.5893 73.5972 34.6696 73.5972 34.409C73.5972 34.1812 75.1655 33.9993 77.1289 33.9993C78.3843 33.9993 78.6071 33.9501 79.0316 33.5863L79.5118 33.1733L79.5626 26.1607C79.597 21.5916 79.5528 18.9858 79.4364 18.681C79.3282 18.3974 79.0529 18.1385 78.7415 18.0303C78.4596 17.9336 78.2712 17.7829 78.322 17.696C78.5023 17.4092 79.0988 17.5403 79.52 17.9631L79.9395 18.3843Z" fill="#00BEF9"/>
<path fill-rule="evenodd" clip-rule="evenodd" d="M69.4837 34.2566C69.4837 34.4697 69.1543 34.5139 67.5384 34.5139C65.7963 34.5139 65.5325 34.4713 65.0097 34.1222C64.6885 33.9059 64.2722 33.4241 64.0837 33.0504C63.7576 32.4031 63.7412 32.0294 63.7412 25.2561C63.7412 18.4827 63.7609 18.1107 64.0608 17.6715C64.2378 17.4125 64.4344 17.1995 64.5016 17.1995C64.5688 17.1995 64.6393 20.2264 64.6573 23.9269C64.677 27.6291 64.7376 31.1772 64.7966 31.8147C64.8884 32.8587 64.9572 33.0259 65.4833 33.4864C66.0487 33.9813 66.1241 33.9993 67.7761 33.9993C69.1806 33.9993 69.4837 34.0452 69.4837 34.2566Z" fill="#00BEF9"/>
<path fill-rule="evenodd" clip-rule="evenodd" d="M75.3901 27.0819C74.9361 27.4146 67.3843 27.4178 67.1089 27.0868C66.9942 26.9458 66.9827 26.7983 67.0794 26.7017C67.2859 26.4952 75.1491 26.4919 75.4671 26.6967C75.6654 26.8246 75.6523 26.8918 75.3901 27.0819Z" fill="#0E2B44"/>
<path fill-rule="evenodd" clip-rule="evenodd" d="M71.2946 24.92C68.5462 24.9266 67.1434 24.8709 67.0172 24.743C66.8795 24.607 66.891 24.5185 67.0516 24.4185C67.381 24.2153 75.1754 24.1875 75.4819 24.3874C76.1128 24.802 75.2786 24.9069 71.2946 24.9184V24.92Z" fill="#0E2B44"/>
<path fill-rule="evenodd" clip-rule="evenodd" d="M66.9879 22.4946C66.9223 22.3897 66.9764 22.2357 67.1059 22.1537C67.2337 22.0718 69.1249 22.003 71.3063 22.003C74.4152 21.9997 75.3133 22.0488 75.4624 22.2291C75.5689 22.3553 75.6033 22.511 75.5411 22.5716C75.3346 22.7781 67.1174 22.7044 66.9879 22.4946Z" fill="#0E2B44"/>
<path fill-rule="evenodd" clip-rule="evenodd" d="M75.5704 29.1975C75.5033 29.3073 73.9021 29.3713 71.275 29.3713C67.8957 29.3713 67.0845 29.327 67.0845 29.1435C67.0845 29.0173 67.1238 28.8763 67.1713 28.8288C67.2729 28.7272 75.1181 28.8485 75.4524 28.9534C75.5754 28.9943 75.6294 29.1041 75.5704 29.1992V29.1975Z" fill="#0E2B44"/>
<path fill-rule="evenodd" clip-rule="evenodd" d="M75.5391 22.5716C75.3326 22.7781 67.1154 22.7044 66.9859 22.4946C66.9204 22.3897 66.9745 22.2357 67.1039 22.1537C67.2318 22.0718 69.123 22.003 71.3043 22.003C74.4132 21.9997 75.3113 22.0488 75.4604 22.2291C75.567 22.3553 75.6014 22.511 75.5391 22.5716Z" fill="#0E2B44"/>
<path fill-rule="evenodd" clip-rule="evenodd" d="M71.2946 24.92C68.5462 24.9266 67.1434 24.8709 67.0172 24.743C66.8795 24.607 66.891 24.5185 67.0516 24.4185C67.381 24.2153 75.1754 24.1875 75.4819 24.3874C76.1128 24.802 75.2786 24.9069 71.2946 24.9184V24.92Z" fill="#0E2B44"/>
<path fill-rule="evenodd" clip-rule="evenodd" d="M75.3901 27.0819C74.9361 27.4146 67.3843 27.4178 67.1089 27.0868C66.9942 26.9458 66.9827 26.7983 67.0794 26.7017C67.2859 26.4952 75.1491 26.4919 75.4671 26.6967C75.6654 26.8246 75.6523 26.8918 75.3901 27.0819Z" fill="#0E2B44"/>
<path fill-rule="evenodd" clip-rule="evenodd" d="M75.5704 29.1975C75.5033 29.3073 73.9021 29.3713 71.275 29.3713C67.8957 29.3713 67.0845 29.327 67.0845 29.1435C67.0845 29.0173 67.1238 28.8763 67.1713 28.8288C67.2729 28.7272 75.1181 28.8485 75.4524 28.9534C75.5754 28.9943 75.6294 29.1041 75.5704 29.1992V29.1975Z" fill="#0E2B44"/>
<path d="M68.7381 20.1543V20.4837H67.4614V18.4548H67.8121V20.1543H68.7381Z" fill="#0E2B44"/>
<path d="M70.426 19.8659H69.2116C69.264 20.0806 69.4492 20.2216 69.6934 20.2216C69.8901 20.2216 70.0589 20.1281 70.1441 20.0151L70.367 20.2068C70.2146 20.3986 69.9671 20.5182 69.6852 20.5182C69.2083 20.5182 68.856 20.1773 68.856 19.7266C68.856 19.2759 69.1968 18.9465 69.6475 18.9465C70.0982 18.9465 70.4358 19.2825 70.4358 19.7348C70.4358 19.7758 70.4325 19.8233 70.4276 19.8643L70.426 19.8659ZM69.2083 19.5955H70.0818C70.0326 19.3841 69.8589 19.2448 69.6442 19.2448C69.4296 19.2448 69.2624 19.3857 69.2083 19.5955Z" fill="#0E2B44"/>
<path d="M72.2321 18.9841V20.4837H71.9027V20.269C71.7798 20.4247 71.5962 20.5197 71.3766 20.5197C70.9538 20.5197 70.6392 20.1821 70.6392 19.7347C70.6392 19.2873 70.9538 18.9497 71.3766 18.9497C71.5979 18.9497 71.7798 19.0431 71.9027 19.2005V18.9858H72.2321V18.9841ZM71.9027 19.7347C71.9027 19.4692 71.7061 19.2676 71.4406 19.2676C71.1751 19.2676 70.9768 19.4709 70.9768 19.7347C70.9768 19.9986 71.1734 20.2018 71.4406 20.2018C71.7077 20.2018 71.9027 19.9986 71.9027 19.7347Z" fill="#0E2B44"/>
<path d="M73.4762 18.9596V19.2972H73.4205C73.1272 19.2972 72.9534 19.4758 72.9534 19.7528V20.4821H72.624V18.9825H72.9534V19.2038C73.0649 19.0514 73.2238 18.9596 73.4205 18.9596H73.4762Z" fill="#0E2B44"/>
<path d="M75.1493 19.5397V20.4837H74.8199V19.6479C74.8199 19.4185 74.6724 19.2661 74.4462 19.2661C74.2086 19.2661 74.0496 19.4217 74.0496 19.6545V20.4837H73.7202V18.9842H74.0496V19.1776C74.1709 19.0268 74.343 18.9481 74.556 18.9481C74.9117 18.9481 75.1493 19.1841 75.1493 19.5397Z" fill="#0E2B44"/>
<path d="M72.1569 58.2804C72.0373 58.4279 71.8652 58.523 71.6849 58.5426C71.662 58.5443 71.639 58.5459 71.6177 58.5459C71.4686 58.5459 71.326 58.4935 71.208 58.3984C71.0654 58.2853 70.9786 58.1264 70.9589 57.9526C70.9409 57.7724 70.9966 57.5839 71.1146 57.4397C71.2293 57.2971 71.3916 57.207 71.5702 57.1857C71.7521 57.1644 71.9307 57.2152 72.0717 57.3299C72.211 57.4413 72.2978 57.597 72.3159 57.7691C72.3355 57.9494 72.2782 58.1313 72.1569 58.2804Z" fill="#0E2B44"/>
<path d="M70.6096 56.4564C70.6096 56.6088 70.5572 56.7645 70.4474 56.9005C70.3343 57.0415 70.177 57.1316 70.0033 57.1578C69.9721 57.1628 69.9393 57.1644 69.9082 57.1644C69.7607 57.1644 69.6181 57.1136 69.5001 57.0185C69.1986 56.776 69.1527 56.3515 69.3952 56.0516C69.6345 55.7583 70.0688 55.7107 70.3622 55.9484C70.5261 56.0811 70.6096 56.2663 70.6096 56.4564Z" fill="#0E2B44"/>
<path d="M69.7802 58.1805C69.223 57.7299 68.556 57.4365 67.948 57.3742L67.8841 57.3677L67.5792 58.2117L67.6841 58.2232C68.1577 58.274 68.6773 58.4936 69.0739 58.8131C69.3836 59.0639 69.5573 59.3359 69.5868 59.6227C69.618 59.9161 69.5016 60.2291 69.241 60.552L69.2181 60.5798C68.1692 59.7391 67.2007 59.3376 66.4074 59.4212C65.906 59.472 65.4782 59.7129 65.1357 60.1373C64.8505 60.4897 64.7112 60.9223 64.7473 61.3566C64.7866 61.8417 65.039 62.2859 65.4782 62.6399C66.0141 63.0725 66.6877 63.2512 67.3055 63.1299L66.963 63.6707L67.8349 64.3754L67.8824 64.2885C68.0479 63.9837 68.3036 63.6183 68.6658 63.1692L70.0162 61.4976C70.7127 60.6339 71.2371 59.3572 69.7802 58.1805ZM68.6789 61.2862L68.1037 61.9991C68.0479 62.0679 67.9644 62.1417 67.8677 62.2023C67.4956 62.4383 66.8549 62.5481 66.278 62.0827C66.0698 61.9155 65.942 61.7008 65.9191 61.4779C65.8945 61.2518 65.9715 61.024 66.1501 60.8027C66.3353 60.5733 66.5549 60.4504 66.8221 60.4241C66.8549 60.4209 66.8893 60.4192 66.9237 60.4192C67.394 60.4192 67.984 60.7109 68.6789 61.2862Z" fill="#0E2B44"/>
<path d="M15.8426 40.3711C15.682 40.7857 15.3362 41.1348 14.8429 41.3806C14.6216 41.4904 14.1841 41.6756 13.7793 41.6691H13.7154L13.5236 40.8447H13.6285C13.9071 40.8447 14.1726 40.7825 14.4184 40.6612C14.897 40.4219 15.0772 40.0056 14.8757 39.5992C14.7151 39.2796 14.4774 39.1092 13.9972 38.9715C13.4023 38.7896 12.9287 38.6093 12.6763 38.1013C12.4403 37.6293 12.5223 37.0852 12.909 36.5657C12.8959 36.4329 12.8648 36.3182 12.8091 36.2084C12.537 35.661 12.0437 35.4824 11.5242 35.7413C11.067 35.9708 10.6343 36.4198 11.3652 37.885L13.4056 41.9755L12.4829 42.4361L10.4606 38.3799C9.99025 37.4359 9.88373 36.705 10.1263 36.0822C10.3213 35.5906 10.6835 35.2186 11.2358 34.9432C11.6799 34.722 12.1568 34.663 12.5829 34.7744C13.0483 34.8973 13.4204 35.212 13.6564 35.6873C13.8219 36.02 13.8497 36.3641 13.8219 36.5575L13.8186 36.5821L13.8039 36.6001C13.5023 36.9508 13.4089 37.2835 13.5367 37.5392C13.6728 37.8129 13.9301 37.9046 14.3217 38.0423C14.8363 38.2144 15.4214 38.4094 15.7574 39.083C15.9737 39.5156 16.0032 39.9597 15.8426 40.3711Z" fill="#0E2B44"/>
<path d="M73.6251 41.0283L71.2749 47.1117H70.3916L72.7335 41.0283H73.6251Z" fill="#0E2B44"/>
<path d="M76.8652 46.6005C76.8242 46.3776 76.8046 46.0777 76.8046 45.7089V44.2717C76.8046 43.1523 76.2277 42.5361 75.1805 42.5361C74.6806 42.5361 74.1873 42.6705 73.8284 42.9032L73.7203 42.9737L73.989 43.7538L74.166 43.6391C74.4168 43.4768 74.7577 43.3801 75.0772 43.3801C75.5328 43.3801 75.759 43.585 75.7836 44.0226C74.9002 44.0406 74.2562 44.2438 73.8694 44.6289C73.6088 44.8895 73.4761 45.2206 73.4761 45.6139C73.4761 46.2432 73.9349 46.8807 74.815 46.8807C75.2231 46.8807 75.6049 46.7414 75.8885 46.4972L75.9229 46.7939H76.9013L76.8652 46.6005ZM74.9969 46.0367C74.8478 46.0367 74.502 45.9876 74.502 45.5336C74.502 45.3681 74.5544 45.237 74.6593 45.1337C74.856 44.942 75.2493 44.8387 75.8016 44.8322V45.3353C75.8016 45.3845 75.7901 45.4451 75.7705 45.5057C75.6869 45.7499 75.4345 46.0367 74.9969 46.0367Z" fill="#0E2B44"/>
<path d="M80.1737 41.0283L77.8236 47.1117H76.9419L79.2822 41.0283H80.1737Z" fill="#0E2B44"/>
<path d="M83.6974 42.5361C82.5404 42.5361 81.7324 43.4555 81.7324 44.7715C81.7324 46.0875 82.5371 46.8725 83.7843 46.8725C84.4349 46.8725 84.8757 46.7349 85.1314 46.6202L85.2543 46.5644L85.0593 45.745L84.8807 45.8204C84.6529 45.9171 84.3742 46.0056 83.881 46.0056C83.5581 46.0056 82.8305 45.904 82.7354 44.9993H85.4084L85.428 44.8191C85.4362 44.7486 85.4493 44.6404 85.4493 44.5093C85.4493 43.5276 84.9069 42.5361 83.6974 42.5361ZM83.6417 43.3638C83.8728 43.3638 84.058 43.4326 84.1907 43.5686C84.3661 43.7472 84.4218 43.9996 84.4398 44.1717H82.7665C82.8567 43.8112 83.1091 43.3638 83.6417 43.3638Z" fill="#0E2B44"/>
<path fill-rule="evenodd" clip-rule="evenodd" d="M40.5779 56.0287C40.9958 56.3106 41.0778 56.5204 41.4039 56.7826C41.6645 56.9923 41.889 57.0825 42.3053 57.248C42.52 57.3332 42.8789 57.4807 43.3591 57.5479C43.7163 57.5971 44.0802 57.5709 44.4391 57.5676C45.1864 57.561 45.9452 57.4889 46.6433 57.2038C47.2808 56.9432 47.8708 56.4581 48.0347 56.3253C48.2871 56.1221 48.4887 55.9287 48.8623 55.7599C49.331 55.5502 49.744 55.5256 49.744 55.5239C49.744 55.5223 48.6673 55.7386 47.6119 55.8796C46.5401 56.0221 45.7092 56.0566 45.2323 56.0762C44.0031 56.1254 43.0542 56.0795 42.6806 56.0598C41.9611 56.0205 41.1187 55.9435 40.1797 55.7993C40.2715 55.8435 40.4157 55.9173 40.5796 56.0271L40.5779 56.0287Z" fill="#CADCE6"/>
<path d="M28.2046 27.8931C28.2046 27.8931 29.4173 29.5139 29.6058 29.6024" stroke="#0E2B44" stroke-width="2" stroke-miterlimit="10"/>
</g>
<defs>
<clipPath id="clip0_484_112">
<rect width="75.4495" height="60" fill="white" transform="translate(10 10)"/>
</clipPath>
</defs>
</svg>
