<svg width="50" height="50" viewBox="0 0 50 50" fill="none" xmlns="http://www.w3.org/2000/svg">
<path d="M8.30819 45C8.30819 44.1534 8.30819 43.3458 8.30819 42.5383C8.30819 41.7307 8.30819 40.9101 8.30819 40.0374C7.18564 40.0374 6.1153 40.0374 5.0058 40.0374C5.0058 38.9043 5.0058 37.8362 5.0058 36.703C10.5272 36.703 16.0616 36.703 21.6352 36.703C21.6352 34.3325 21.6352 32.001 21.6352 29.6304C25.8513 28.8489 29.3104 26.3611 33.174 24.6939C32.665 23.6649 32.169 22.6881 31.673 21.6851C31.0986 21.9717 30.5504 22.2322 30.0022 22.5187C28.3575 23.3393 26.7259 24.1729 25.0682 24.9805C22.797 26.1006 20.4083 26.6737 17.876 26.6737C16.0094 26.6737 14.1298 26.6737 12.2632 26.6737C12.0805 26.6737 11.9108 26.6737 11.6759 26.6737C11.6759 28.901 11.6759 31.0892 11.6759 33.2644C10.2922 33.2644 8.94779 33.3947 7.64249 33.2253C6.07614 33.0169 5.01885 31.5972 5.0058 29.9951C4.99275 28.6405 5.0058 27.2989 5.0058 25.9443C5.0058 20.2003 5.0058 14.4562 5.0058 8.69912C4.96664 6.38066 6.3372 5 8.66062 5C19.5337 5 30.4068 5 41.293 5C43.6294 5 45 6.36763 45 8.69912C45 15.7327 45 22.7662 45 29.7997C45 31.5711 43.9949 32.8997 42.3764 33.2644C42.037 33.3426 41.6715 33.3426 41.306 33.3426C36.0848 33.3426 30.8506 33.3426 25.6294 33.3426C25.4336 33.3426 25.2509 33.3426 25.016 33.3426C25.016 34.4627 25.016 35.5438 25.016 36.677C31.6599 36.677 38.3038 36.677 44.9608 36.677C44.9608 37.8102 44.9608 38.8912 44.9608 40.0114C43.8774 40.0114 42.8071 40.0114 41.6715 40.0114C41.6715 41.6916 41.6715 43.3198 41.6715 44.987C30.5504 45 19.4685 45 8.30819 45ZM16.6621 13.3491C13.9079 13.336 11.6628 15.5633 11.6497 18.3247C11.6367 21.0729 13.8818 23.3263 16.636 23.3393C19.3771 23.3523 21.6483 21.099 21.6483 18.3507C21.6613 15.6024 19.4293 13.3621 16.6621 13.3491ZM40.0007 12.4894C40.0007 11.8382 39.9746 11.1999 40.0138 10.5747C40.0399 10.1319 39.9094 10.0016 39.4525 10.0016C34.2574 10.0147 29.0624 10.0147 23.8673 10.0147C23.6976 10.0147 23.5279 10.0147 23.3713 10.0147C23.3713 10.9004 23.3713 11.7079 23.3713 12.5024C28.9188 12.4894 34.4402 12.4894 40.0007 12.4894ZM39.9877 15.0554C35.5236 15.0554 31.0986 15.0554 26.6867 15.0554C26.6867 15.889 26.6867 16.6705 26.6867 17.465C31.1378 17.465 35.5497 17.465 39.9877 17.465C39.9877 16.6444 39.9877 15.8759 39.9877 15.0554Z" fill="url(#paint0_linear_215_2)"/>
<defs>
<linearGradient id="paint0_linear_215_2" x1="45" y1="25" x2="5" y2="25" gradientUnits="userSpaceOnUse">
<stop stop-color="#1AB69D"/>
<stop offset="1" stop-color="#31B978"/>
</linearGradient>
</defs>
</svg>
