<svg width="34" height="34" viewBox="0 0 34 34" fill="none" xmlns="http://www.w3.org/2000/svg">
<rect width="34" height="34" rx="17" fill="#F5FFFE"/>
<g clip-path="url(#clip0_637_10)">
<path opacity="0.3" d="M22.1467 24.65H21.2467V24.425C21.2467 23.435 20.4367 22.625 19.4467 22.625H17.4217V20.5641C17.1967 20.5911 16.9717 20.6001 16.7467 20.6001C16.5217 20.6001 16.2967 20.5911 16.0718 20.5641V22.625H14.0468C13.0568 22.625 12.2469 23.435 12.2469 24.425V24.65H11.3469C10.9779 24.65 10.6719 24.956 10.6719 25.325C10.6719 25.694 10.9779 26 11.3469 26H22.1467C22.5157 26 22.8217 25.694 22.8217 25.325C22.8217 24.956 22.5157 24.65 22.1467 24.65Z" fill="#13A7BE"/>
<path opacity="0.3" d="M10.916 16.6757C10.322 16.4508 9.79997 16.0818 9.38598 15.6677C8.54899 14.7408 8 13.6338 8 12.3378C8 11.0418 9.01698 10.0248 10.313 10.0248H10.817C10.583 10.5018 10.448 11.0328 10.448 11.5998V14.2998C10.448 15.1457 10.61 15.9468 10.916 16.6757Z" fill="#13A7BE"/>
<path opacity="0.3" d="M25.495 12.3379C25.495 13.6339 24.9461 14.7408 24.1091 15.6678C23.6951 16.0818 23.1731 16.4508 22.5791 16.6758C22.8851 15.9468 23.0471 15.1458 23.0471 14.2999V11.5999C23.0471 11.0329 22.9121 10.5019 22.6781 10.0249H23.1821C24.4781 10.0249 25.495 11.0419 25.495 12.3379Z" fill="#13A7BE"/>
<path d="M19.4454 8H14.0455C12.0565 8 10.4456 9.61098 10.4456 11.5999V14.2999C10.4456 17.7828 13.2625 20.5998 16.7455 20.5998C20.2284 20.5998 23.0454 17.7828 23.0454 14.2999V11.5999C23.0454 9.61098 21.4344 8 19.4454 8ZM19.3014 13.8049L18.7434 14.4889C18.6534 14.5879 18.5904 14.7859 18.5994 14.9209L18.6534 15.8029C18.6894 16.3428 18.3024 16.6218 17.7985 16.4238L16.9795 16.0998C16.8535 16.0548 16.6375 16.0548 16.5115 16.0998L15.6925 16.4238C15.1885 16.6218 14.8015 16.3428 14.8375 15.8029L14.8915 14.9209C14.9005 14.7859 14.8375 14.5879 14.7475 14.4889L14.1895 13.8049C13.8385 13.3909 13.9915 12.9319 14.5135 12.7969L15.3685 12.5809C15.5035 12.5449 15.6655 12.4189 15.7375 12.3019L16.2145 11.5639C16.5115 11.105 16.9795 11.105 17.2765 11.5639L17.7535 12.3019C17.8255 12.4189 17.9875 12.5449 18.1224 12.5809L18.9774 12.7969C19.4994 12.9319 19.6524 13.3909 19.3014 13.8049Z" fill="#13A7BE"/>
<path opacity="0.4" d="M19.3038 13.8048L18.7458 14.4888C18.6558 14.5878 18.5928 14.7858 18.6018 14.9208L18.6558 15.8028C18.6918 16.3428 18.3048 16.6218 17.8009 16.4238L16.9819 16.0998C16.8559 16.0548 16.6399 16.0548 16.5139 16.0998L15.6949 16.4238C15.1909 16.6218 14.8039 16.3428 14.8399 15.8028L14.8939 14.9208C14.9029 14.7858 14.8399 14.5878 14.7499 14.4888L14.1919 13.8048C13.8409 13.3908 13.9939 12.9318 14.5159 12.7968L15.3709 12.5808C15.5059 12.5448 15.6679 12.4188 15.7399 12.3018L16.2169 11.5638C16.5139 11.1048 16.9819 11.1048 17.2789 11.5638L17.7559 12.3018C17.8279 12.4188 17.9898 12.5448 18.1248 12.5808L18.9798 12.7968C19.5018 12.9318 19.6548 13.3908 19.3038 13.8048Z" fill="#13A7BE"/>
</g>
<defs>
<clipPath id="clip0_637_10">
<rect width="18" height="18" fill="white" transform="translate(8 8)"/>
</clipPath>
</defs>
</svg>
