<svg width="34" height="34" viewBox="0 0 34 34" fill="none" xmlns="http://www.w3.org/2000/svg">
<rect width="34" height="34" rx="17" fill="#EFE7FC"/>
<path d="M24.7079 25.3331H9.29126C8.94959 25.3331 8.66626 25.0498 8.66626 24.7081C8.66626 24.3664 8.94959 24.0831 9.29126 24.0831H24.7079C25.0496 24.0831 25.3329 24.3664 25.3329 24.7081C25.3329 25.0498 25.0496 25.3331 24.7079 25.3331Z" fill="#8E55EA"/>
<path opacity="0.4" d="M24.1578 18.4169L18.1328 24.4419C16.9494 25.6252 15.0411 25.6252 13.8661 24.4502L10.0244 20.6085L20.3244 10.3086L24.1661 14.1502C25.3411 15.3252 25.3411 17.2335 24.1578 18.4169Z" fill="#8E55EA"/>
<path d="M20.326 10.3085L10.0177 20.6085L9.25936 19.8502C8.08436 18.6752 8.08436 16.7668 9.2677 15.5835L15.2927 9.55847C16.476 8.37513 18.3843 8.37513 19.5593 9.55013L20.326 10.3085Z" fill="#8E55EA"/>
<path d="M17.7415 21.6668L16.6165 22.7918C16.3831 23.0251 16.0081 23.0251 15.7748 22.7918C15.5415 22.5585 15.5415 22.1835 15.7748 21.9501L16.8998 20.8251C17.1331 20.5918 17.5081 20.5918 17.7415 20.8251C17.9748 21.0585 17.9748 21.4335 17.7415 21.6668Z" fill="#8E55EA"/>
<path d="M21.3926 18.0167L19.151 20.2583C18.9176 20.4917 18.5426 20.4917 18.3093 20.2583C18.076 20.025 18.076 19.65 18.3093 19.4167L20.551 17.175C20.7843 16.9417 21.1593 16.9417 21.3926 17.175C21.6176 17.4083 21.6176 17.7833 21.3926 18.0167Z" fill="#8E55EA"/>
</svg>
