<svg width="34" height="34" viewBox="0 0 34 34" fill="none" xmlns="http://www.w3.org/2000/svg">
<rect width="34" height="34" rx="17" fill="#FFF0ED"/>
<path d="M20.3333 8.66667H19.5C18.3215 8.66667 17.7322 8.66667 17.3661 9.03279C17 9.3989 17 9.98816 17 11.1667C17 12.3452 17 12.9344 17.3661 13.3006C17.7322 13.6667 18.3215 13.6667 19.5 13.6667H20.3333C21.5118 13.6667 22.1011 13.6667 22.4672 13.3006C22.7044 13.0633 22.7879 12.7325 22.8174 12.2083H22.8333L24.1795 12.7692C24.7013 12.9867 24.9623 13.0954 25.1478 12.9717C25.3333 12.848 25.3333 12.5653 25.3333 12V10.3333C25.3333 9.76801 25.3333 9.48535 25.1478 9.36165C24.9623 9.23796 24.7013 9.34667 24.1795 9.56411L22.8333 10.125H22.8174C22.7879 9.60088 22.7044 9.27 22.4672 9.03279C22.1011 8.66667 21.5118 8.66667 20.3333 8.66667Z" fill="#E9652E"/>
<path d="M13.6539 21.5833C11.2878 21.5833 10.1048 21.5833 9.36972 20.8511C8.89347 20.3767 8.72579 19.7149 8.66675 18.6667V17.8333H25.3334V18.6667C25.2744 19.7149 25.1067 20.3767 24.6304 20.8511C23.8954 21.5833 22.7123 21.5833 20.3462 21.5833H17.6275V24.9167H20.3462C20.6928 24.9167 20.9737 25.1965 20.9737 25.5417C20.9737 25.8868 20.6928 26.1667 20.3462 26.1667H13.6539C13.3074 26.1667 13.0265 25.8868 13.0265 25.5417C13.0265 25.1965 13.3074 24.9167 13.6539 24.9167H16.3727V21.5833H13.6539Z" fill="#E9652E"/>
<g opacity="0.5">
<path d="M25.3334 15.3333V16.1667C25.3334 16.6264 25.328 17.4579 25.3226 17.8333H8.66675C8.66132 17.4579 8.6667 16.6264 8.6667 16.1667V15.3333C8.6667 12.1906 8.6667 10.6193 9.64301 9.64298C10.6193 8.66667 12.1907 8.66667 15.3334 8.66667H16.0985C15.9274 8.98695 15.8482 9.32161 15.8069 9.62852C15.7498 10.0534 15.7499 10.5686 15.75 11.0987L15.75 11.1667L15.75 11.2347C15.7499 11.7648 15.7498 12.2799 15.8069 12.7048C15.8713 13.1838 16.0282 13.7304 16.4823 14.1844C16.9363 14.6385 17.4829 14.7954 17.9619 14.8598C18.3868 14.9169 18.9019 14.9168 19.432 14.9167L19.5 14.9167H20.3334L20.4014 14.9167C20.9315 14.9168 21.4466 14.9169 21.8715 14.8598C22.3505 14.7954 22.8971 14.6385 23.3511 14.1844C23.4477 14.0879 23.531 13.9869 23.6028 13.8831L23.6988 13.9231L23.746 13.9428C23.9625 14.0333 24.2368 14.1478 24.483 14.2102C24.6777 14.2594 24.9881 14.312 25.3315 14.2328C25.3334 14.5767 25.3334 14.9429 25.3334 15.3333Z" fill="#E9652E"/>
</g>
</svg>
